999
FreeCAD v1.1 44987 (Git)
  0
SECTION
  2
HEADER
  9
$ACADVER
  1
AC1014
  9
$ACADMAINTVER
 70
     9
  9
$DWGCODEPAGE
  3
ANSI_1252
  9
$TEXTSTYLE
  7
STANDARD
  9
$DIMSTYLE
  2
STANDARD
  9
$DIMTXSTY
  7
STANDARD
  9
$CMLSTYLE
  2
STANDARD
  9
$LUNITS
 70
2
  9
$INSUNITS
 70
4
  9
$PEXTMAX
 10
50
 20
50
 30
50
  9
$PEXTMIN
 10
0
 20
0
 30
0
  9
$HANDSEED
  5
FFFF
  0
ENDSEC
  0
SECTION
  2
CLASSES
  0
CLASS
  1
ACDBDICTIONARYWDFLT
  2
AcDbDictionaryWithDefault
  3
ObjectDBX Classes
 90
        0
280
     0
281
     0
  0
CLASS
  1
XRECORD
  2
AcDbXrecord
  3
ObjectDBX Classes
 90
        0
280
     0
281
     0
  0
CLASS
  1
LWPOLYLINE
  2
AcDbPolyline
  3
ObjectDBX Classes
 90
        0
280
     0
281
     1
  0
ENDSEC
  0
SECTION
  2
TABLES
  0
TABLE
  2
VPORT
  5
20
330
0
100
AcDbSymbolTable
 70
     1
  0
VPORT
  5
21
330
20
100
AcDbSymbolTableRecord
100
AcDbViewportTableRecord
  2
*ACTIVE
 70
     0
  0
ENDTAB
  0
TABLE
  2
LTYPE
  5
22
330
0
100
AcDbSymbolTable
 70
     1
  0
LTYPE
  5
23
330
21
100
AcDbSymbolTableRecord
100
AcDbLinetypeTableRecord
  2
BYBLOCK
 70
     0
  3

 72
    65
 73
     0
 40
0.0
  0
LTYPE
  5
24
330
21
100
AcDbSymbolTableRecord
100
AcDbLinetypeTableRecord
  2
BYLAYER
 70
     0
  3

 72
    65
 73
     0
 40
0.0
  0
LTYPE
  5
25
330
21
100
AcDbSymbolTableRecord
100
AcDbLinetypeTableRecord
  2
CONTINUOUS
 70
     0
  3
Solid line
 72
    65
 73
     0
 40
0.0
  0
ENDTAB
  0
TABLE
  2
LAYER
  5
ABC
330
0
100
AcDbSymbolTable
 70
3
  0
LAYER
  5
ABD
330
ABC
100
AcDbSymbolTableRecord
100
AcDbLayerTableRecord
  2
0
 70
   0
 62
   7
  6
CONTINUOUS
  0
LAYER
  5
ABE
330
ABC
100
AcDbSymbolTableRecord
100
AcDbLayerTableRecord
  2
none
 70
    0
 62
    7
  6
CONTINUOUS
  0
LAYER
  5
ABF
330
ABC
100
AcDbSymbolTableRecord
100
AcDbLayerTableRecord
  2
Sketch
 70
    0
 62
    7
  6
CONTINUOUS
  0
ENDTAB
  0
TABLE
  2
STYLE
  5
70
330
0
100
AcDbSymbolTable
 70
     2
  0
STYLE
  5
71
330
70
100
AcDbSymbolTableRecord
100
AcDbTextStyleTableRecord
  2
STANDARD
 70
     0
 40
0.0
 41
1.0
 50
0.0
 71
     0
 42
2.5
  3
arial.ttf
  4

  0
STYLE
  5
72
330
70
100
AcDbSymbolTableRecord
100
AcDbTextStyleTableRecord
  2
ANNOTATIVE
 70
     0
 40
0.0
 41
1.0
 50
0.0
 71
     0
 42
2.5
  3
arial.ttf
  4

  0
ENDTAB
  0
TABLE
  2
VIEW
  5
73
330
0
100
AcDbSymbolTable
 70
     0
  0
ENDTAB
  0
TABLE
  2
UCS
  5
74
330
0
100
AcDbSymbolTable
 70
     0
  0
ENDTAB
  0
TABLE
  2
APPID
  5
75
330
0
100
AcDbSymbolTable
 70
     2
  0
APPID
  5
76
330
75
100
AcDbSymbolTableRecord
100
AcDbRegAppTableRecord
  2
ACAD
 70
     0
  0
APPID
  5
77
330
75
100
AcDbSymbolTableRecord
100
AcDbRegAppTableRecord
  2
ACADANNOTATIVE
 70
     0
  0
ENDTAB
  0
TABLE
  2
DIMSTYLE
  5
78
330
0
100
AcDbSymbolTable
 70
     2
  0
DIMSTYLE
105
79
330
78
100
AcDbSymbolTableRecord
100
AcDbDimStyleTableRecord
  2
STANDARD
 70
     0
  3

  4

  5

  6

  7

 40
0.0
 41
2.5
 42
0.625
 43
3.75
 44
1.25
 45
0.0
 46
0.0
 47
0.0
 48
0.0
140
2.5
141
2.5
142
0.0
143
0.03937007874016
144
1.0
145
0.0
146
1.0
147
0.625
 71
     0
 72
     0
 73
     0
 74
     0
 75
     0
 76
     0
 77
     1
 78
     8
170
     0
171
     3
172
     1
173
     0
174
     0
175
     0
176
     0
177
     0
178
     0
270
     2
271
     2
272
     2
273
     2
274
     3
340
71
275
     0
280
     0
281
     0
282
     0
283
     0
284
     8
285
     0
286
     0
287
     3
288
     0
  0
ENDTAB
  0
TABLE
  2
BLOCK_RECORD
  5
A01
330
0
100
AcDbSymbolTable
  70
5
  0
BLOCK_RECORD
  5
A02
330
A01
100
AcDbSymbolTableRecord
100
AcDbBlockTableRecord
  2
*MODEL_SPACE
  0
BLOCK_RECORD
  5
A03
330
A01
100
AcDbSymbolTableRecord
100
AcDbBlockTableRecord
  2
*PAPER_SPACE
  0
ENDTAB
  0
ENDSEC
  0
SECTION
  2
BLOCKS
  0
BLOCK
  5
A04
330
A02
100
AcDbEntity
  8
0
100
AcDbBlockBegin
  2
*MODEL_SPACE
 70
   0
 10
0
 20
0
 30
0
  3
*MODEL_SPACE
  1
 
  0
ENDBLK
  5
A05
330
A02
100
AcDbEntity
  8
0
100
AcDbBlockEnd
  0
BLOCK
  5
A06
330
A03
100
AcDbEntity
 67
1
  8
0
100
AcDbBlockBegin
  2
*PAPER_SPACE
 70
   0
 10
0
 20
0
 30
0
  3
*PAPER_SPACE
  1
 
  0
ENDBLK
  5
A07
330
A03
100
AcDbEntity
 67
    1
  8
0
100
AcDbBlockEnd
  0
ENDSEC
  0
SECTION
  2
ENTITIES
  0
CIRCLE
  5
A08
330
A02
100
AcDbEntity
  8
Sketch
100
AcDbCircle
 10
-43.309414369
 20
-123.965867870
 30
0.000000000
 40
0.400000000
  0
CIRCLE
  5
A09
330
A02
100
AcDbEntity
  8
Sketch
100
AcDbCircle
 10
-40.808002676
 20
-124.406934242
 30
0.000000000
 40
0.400000000
  0
CIRCLE
  5
A0A
330
A02
100
AcDbEntity
  8
Sketch
100
AcDbCircle
 10
-38.306590983
 20
-124.848000613
 30
0.000000000
 40
0.400000000
  0
CIRCLE
  5
A0B
330
A02
100
AcDbEntity
  8
Sketch
100
AcDbCircle
 10
-35.805179291
 20
-125.289066984
 30
0.000000000
 40
0.400000000
  0
CIRCLE
  5
A0C
330
A02
100
AcDbEntity
  8
Sketch
100
AcDbCircle
 10
-33.303767598
 20
-125.730133355
 30
0.000000000
 40
0.400000000
  0
CIRCLE
  5
A0D
330
A02
100
AcDbEntity
  8
Sketch
100
AcDbCircle
 10
-12.494779777
 20
-129.399319349
 30
0.000000000
 40
0.400000000
  0
CIRCLE
  5
A0E
330
A02
100
AcDbEntity
  8
Sketch
100
AcDbCircle
 10
-9.993368084
 20
-129.840385721
 30
0.000000000
 40
0.400000000
  0
CIRCLE
  5
A0F
330
A02
100
AcDbEntity
  8
Sketch
100
AcDbCircle
 10
-4.990544699
 20
-130.722518463
 30
0.000000000
 40
0.400000000
  0
CIRCLE
  5
A10
330
A02
100
AcDbEntity
  8
Sketch
100
AcDbCircle
 10
-7.491956392
 20
-130.281452092
 30
0.000000000
 40
0.400000000
  0
CIRCLE
  5
A11
330
A02
100
AcDbEntity
  8
Sketch
100
AcDbCircle
 10
-2.489133006
 20
-131.163584835
 30
0.000000000
 40
0.400000000
  0
CIRCLE
  5
A12
330
A02
100
AcDbEntity
  8
Sketch
100
AcDbCircle
 10
-83.096361000
 20
-101.677119000
 30
0.000000000
 40
0.400000000
  0
CIRCLE
  5
A13
330
A02
100
AcDbEntity
  8
Sketch
100
AcDbCircle
 10
-80.896656474
 20
-102.947119000
 30
0.000000000
 40
0.400000000
  0
CIRCLE
  5
A14
330
A02
100
AcDbEntity
  8
Sketch
100
AcDbCircle
 10
-78.696951949
 20
-104.217119000
 30
0.000000000
 40
0.400000000
  0
CIRCLE
  5
A15
330
A02
100
AcDbEntity
  8
Sketch
100
AcDbCircle
 10
-76.497247423
 20
-105.487119000
 30
0.000000000
 40
0.400000000
  0
CIRCLE
  5
A16
330
A02
100
AcDbEntity
  8
Sketch
100
AcDbCircle
 10
-74.297542898
 20
-106.757119000
 30
0.000000000
 40
0.400000000
  0
CIRCLE
  5
A17
330
A02
100
AcDbEntity
  8
Sketch
100
AcDbCircle
 10
-55.998425577
 20
-117.322119000
 30
0.000000000
 40
0.400000000
  0
CIRCLE
  5
A18
330
A02
100
AcDbEntity
  8
Sketch
100
AcDbCircle
 10
-53.798721051
 20
-118.592119000
 30
0.000000000
 40
0.400000000
  0
CIRCLE
  5
A19
330
A02
100
AcDbEntity
  8
Sketch
100
AcDbCircle
 10
-49.399312000
 20
-121.132119000
 30
0.000000000
 40
0.400000000
  0
CIRCLE
  5
A1A
330
A02
100
AcDbEntity
  8
Sketch
100
AcDbCircle
 10
-51.599016526
 20
-119.862119000
 30
0.000000000
 40
0.400000000
  0
CIRCLE
  5
A1B
330
A02
100
AcDbEntity
  8
Sketch
100
AcDbCircle
 10
-47.199607474
 20
-122.402119000
 30
0.000000000
 40
0.400000000
  0
CIRCLE
  5
A1C
330
A02
100
AcDbEntity
  8
Sketch
100
AcDbCircle
 10
-112.860660000
 20
-67.124609362
 30
0.000000000
 40
0.400000000
  0
CIRCLE
  5
A1D
330
A02
100
AcDbEntity
  8
Sketch
100
AcDbCircle
 10
-111.227979000
 20
-69.070361852
 30
0.000000000
 40
0.400000000
  0
CIRCLE
  5
A1E
330
A02
100
AcDbEntity
  8
Sketch
100
AcDbCircle
 10
-109.595299000
 20
-71.016115181
 30
0.000000000
 40
0.400000000
  0
CIRCLE
  5
A1F
330
A02
100
AcDbEntity
  8
Sketch
100
AcDbCircle
 10
-107.962618000
 20
-72.961867671
 30
0.000000000
 40
0.400000000
  0
CIRCLE
  5
A20
330
A02
100
AcDbEntity
  8
Sketch
100
AcDbCircle
 10
-106.329938000
 20
-74.907621000
 30
0.000000000
 40
0.400000000
  0
CIRCLE
  5
A21
330
A02
100
AcDbEntity
  8
Sketch
100
AcDbCircle
 10
-92.747836000
 20
-91.094140362
 30
0.000000000
 40
0.400000000
  0
CIRCLE
  5
A22
330
A02
100
AcDbEntity
  8
Sketch
100
AcDbCircle
 10
-91.115155000
 20
-93.039892852
 30
0.000000000
 40
0.400000000
  0
CIRCLE
  5
A23
330
A02
100
AcDbEntity
  8
Sketch
100
AcDbCircle
 10
-87.849794000
 20
-96.931398671
 30
0.000000000
 40
0.400000000
  0
CIRCLE
  5
A24
330
A02
100
AcDbEntity
  8
Sketch
100
AcDbCircle
 10
-89.482475000
 20
-94.985646181
 30
0.000000000
 40
0.400000000
  0
CIRCLE
  5
A25
330
A02
100
AcDbEntity
  8
Sketch
100
AcDbCircle
 10
-86.217114000
 20
-98.877152000
 30
0.000000000
 40
0.400000000
  0
CIRCLE
  5
A26
330
A02
100
AcDbEntity
  8
Sketch
100
AcDbCircle
 10
-129.012298000
 20
-24.475881098
 30
0.000000000
 40
0.400000000
  0
CIRCLE
  5
A27
330
A02
100
AcDbEntity
  8
Sketch
100
AcDbCircle
 10
-128.143567000
 20
-26.862700414
 30
0.000000000
 40
0.400000000
  0
CIRCLE
  5
A28
330
A02
100
AcDbEntity
  8
Sketch
100
AcDbCircle
 10
-127.274836000
 20
-29.249519731
 30
0.000000000
 40
0.400000000
  0
CIRCLE
  5
A29
330
A02
100
AcDbEntity
  8
Sketch
100
AcDbCircle
 10
-126.406104000
 20
-31.636338683
 30
0.000000000
 40
0.400000000
  0
CIRCLE
  5
A2A
330
A02
100
AcDbEntity
  8
Sketch
100
AcDbCircle
 10
-125.537373000
 20
-34.023158000
 30
0.000000000
 40
0.400000000
  0
CIRCLE
  5
A2B
330
A02
100
AcDbEntity
  8
Sketch
100
AcDbCircle
 10
-118.310488000
 20
-53.878863731
 30
0.000000000
 40
0.400000000
  0
CIRCLE
  5
A2C
330
A02
100
AcDbEntity
  8
Sketch
100
AcDbCircle
 10
-117.441756000
 20
-56.265682683
 30
0.000000000
 40
0.400000000
  0
CIRCLE
  5
A2D
330
A02
100
AcDbEntity
  8
Sketch
100
AcDbCircle
 10
-115.704294000
 20
-61.039321317
 30
0.000000000
 40
0.400000000
  0
CIRCLE
  5
A2E
330
A02
100
AcDbEntity
  8
Sketch
100
AcDbCircle
 10
-116.573025000
 20
-58.652502000
 30
0.000000000
 40
0.400000000
  0
CIRCLE
  5
A2F
330
A02
100
AcDbEntity
  8
Sketch
100
AcDbCircle
 10
-114.835563000
 20
-63.426140633
 30
0.000000000
 40
0.400000000
  0
CIRCLE
  5
A30
330
A02
100
AcDbEntity
  8
Sketch
100
AcDbCircle
 10
-129.603149000
 20
21.125000000
 30
0.000000000
 40
0.400000000
  0
CIRCLE
  5
A31
330
A02
100
AcDbEntity
  8
Sketch
100
AcDbCircle
 10
-129.603149000
 20
18.585000000
 30
0.000000000
 40
0.400000000
  0
CIRCLE
  5
A32
330
A02
100
AcDbEntity
  8
Sketch
100
AcDbCircle
 10
-129.603149000
 20
16.045000000
 30
0.000000000
 40
0.400000000
  0
CIRCLE
  5
A33
330
A02
100
AcDbEntity
  8
Sketch
100
AcDbCircle
 10
-129.603149000
 20
13.505000000
 30
0.000000000
 40
0.400000000
  0
CIRCLE
  5
A34
330
A02
100
AcDbEntity
  8
Sketch
100
AcDbCircle
 10
-129.603149000
 20
10.965000000
 30
0.000000000
 40
0.400000000
  0
CIRCLE
  5
A35
330
A02
100
AcDbEntity
  8
Sketch
100
AcDbCircle
 10
-129.603149000
 20
-10.165000000
 30
0.000000000
 40
0.400000000
  0
CIRCLE
  5
A36
330
A02
100
AcDbEntity
  8
Sketch
100
AcDbCircle
 10
-129.603149000
 20
-12.705000000
 30
0.000000000
 40
0.400000000
  0
CIRCLE
  5
A37
330
A02
100
AcDbEntity
  8
Sketch
100
AcDbCircle
 10
-129.603149000
 20
-17.785000000
 30
0.000000000
 40
0.400000000
  0
CIRCLE
  5
A38
330
A02
100
AcDbEntity
  8
Sketch
100
AcDbCircle
 10
-129.603149000
 20
-15.245000000
 30
0.000000000
 40
0.400000000
  0
CIRCLE
  5
A39
330
A02
100
AcDbEntity
  8
Sketch
100
AcDbCircle
 10
-129.603149000
 20
-20.325000000
 30
0.000000000
 40
0.400000000
  0
CIRCLE
  5
A3A
330
A02
100
AcDbEntity
  8
Sketch
100
AcDbCircle
 10
-114.561947000
 20
64.177893633
 30
0.000000000
 40
0.400000000
  0
CIRCLE
  5
A3B
330
A02
100
AcDbEntity
  8
Sketch
100
AcDbCircle
 10
-115.430678000
 20
61.791074317
 30
0.000000000
 40
0.400000000
  0
CIRCLE
  5
A3C
330
A02
100
AcDbEntity
  8
Sketch
100
AcDbCircle
 10
-116.299409000
 20
59.404255000
 30
0.000000000
 40
0.400000000
  0
CIRCLE
  5
A3D
330
A02
100
AcDbEntity
  8
Sketch
100
AcDbCircle
 10
-117.168141000
 20
57.017436047
 30
0.000000000
 40
0.400000000
  0
CIRCLE
  5
A3E
330
A02
100
AcDbEntity
  8
Sketch
100
AcDbCircle
 10
-118.036872000
 20
54.630616731
 30
0.000000000
 40
0.400000000
  0
CIRCLE
  5
A3F
330
A02
100
AcDbEntity
  8
Sketch
100
AcDbCircle
 10
-125.263757000
 20
34.774911269
 30
0.000000000
 40
0.400000000
  0
CIRCLE
  5
A40
330
A02
100
AcDbEntity
  8
Sketch
100
AcDbCircle
 10
-126.132488000
 20
32.388091953
 30
0.000000000
 40
0.400000000
  0
CIRCLE
  5
A41
330
A02
100
AcDbEntity
  8
Sketch
100
AcDbCircle
 10
-127.869951000
 20
27.614453683
 30
0.000000000
 40
0.400000000
  0
CIRCLE
  5
A42
330
A02
100
AcDbEntity
  8
Sketch
100
AcDbCircle
 10
-127.001220000
 20
30.001273000
 30
0.000000000
 40
0.400000000
  0
CIRCLE
  5
A43
330
A02
100
AcDbEntity
  8
Sketch
100
AcDbCircle
 10
-128.738682000
 20
25.227634367
 30
0.000000000
 40
0.400000000
  0
CIRCLE
  5
A44
330
A02
100
AcDbEntity
  8
Sketch
100
AcDbCircle
 10
-85.702884000
 20
99.489986638
 30
0.000000000
 40
0.400000000
  0
CIRCLE
  5
A45
330
A02
100
AcDbEntity
  8
Sketch
100
AcDbCircle
 10
-87.335565000
 20
97.544234148
 30
0.000000000
 40
0.400000000
  0
CIRCLE
  5
A46
330
A02
100
AcDbEntity
  8
Sketch
100
AcDbCircle
 10
-88.968245000
 20
95.598480819
 30
0.000000000
 40
0.400000000
  0
CIRCLE
  5
A47
330
A02
100
AcDbEntity
  8
Sketch
100
AcDbCircle
 10
-90.600926000
 20
93.652728329
 30
0.000000000
 40
0.400000000
  0
CIRCLE
  5
A48
330
A02
100
AcDbEntity
  8
Sketch
100
AcDbCircle
 10
-92.233606000
 20
91.706975000
 30
0.000000000
 40
0.400000000
  0
CIRCLE
  5
A49
330
A02
100
AcDbEntity
  8
Sketch
100
AcDbCircle
 10
-105.815708000
 20
75.520455638
 30
0.000000000
 40
0.400000000
  0
CIRCLE
  5
A4A
330
A02
100
AcDbEntity
  8
Sketch
100
AcDbCircle
 10
-107.448389000
 20
73.574703148
 30
0.000000000
 40
0.400000000
  0
CIRCLE
  5
A4B
330
A02
100
AcDbEntity
  8
Sketch
100
AcDbCircle
 10
-110.713750000
 20
69.683197329
 30
0.000000000
 40
0.400000000
  0
CIRCLE
  5
A4C
330
A02
100
AcDbEntity
  8
Sketch
100
AcDbCircle
 10
-109.081069000
 20
71.628949819
 30
0.000000000
 40
0.400000000
  0
CIRCLE
  5
A4D
330
A02
100
AcDbEntity
  8
Sketch
100
AcDbCircle
 10
-112.346430000
 20
67.737444000
 30
0.000000000
 40
0.400000000
  0
CIRCLE
  5
A4E
330
A02
100
AcDbEntity
  8
Sketch
100
AcDbCircle
 10
-46.506788423
 20
122.802119000
 30
0.000000000
 40
0.400000000
  0
CIRCLE
  5
A4F
330
A02
100
AcDbEntity
  8
Sketch
100
AcDbCircle
 10
-48.706492949
 20
121.532119000
 30
0.000000000
 40
0.400000000
  0
CIRCLE
  5
A50
330
A02
100
AcDbEntity
  8
Sketch
100
AcDbCircle
 10
-50.906197474
 20
120.262119000
 30
0.000000000
 40
0.400000000
  0
CIRCLE
  5
A51
330
A02
100
AcDbEntity
  8
Sketch
100
AcDbCircle
 10
-53.105902000
 20
118.992119000
 30
0.000000000
 40
0.400000000
  0
CIRCLE
  5
A52
330
A02
100
AcDbEntity
  8
Sketch
100
AcDbCircle
 10
-55.305606526
 20
117.722119000
 30
0.000000000
 40
0.400000000
  0
CIRCLE
  5
A53
330
A02
100
AcDbEntity
  8
Sketch
100
AcDbCircle
 10
-73.604723423
 20
107.157119000
 30
0.000000000
 40
0.400000000
  0
CIRCLE
  5
A54
330
A02
100
AcDbEntity
  8
Sketch
100
AcDbCircle
 10
-75.804427949
 20
105.887119000
 30
0.000000000
 40
0.400000000
  0
CIRCLE
  5
A55
330
A02
100
AcDbEntity
  8
Sketch
100
AcDbCircle
 10
-80.203837000
 20
103.347119000
 30
0.000000000
 40
0.400000000
  0
CIRCLE
  5
A56
330
A02
100
AcDbEntity
  8
Sketch
100
AcDbCircle
 10
-78.004132474
 20
104.617119000
 30
0.000000000
 40
0.400000000
  0
CIRCLE
  5
A57
330
A02
100
AcDbEntity
  8
Sketch
100
AcDbCircle
 10
-82.403541526
 20
102.077119000
 30
0.000000000
 40
0.400000000
  0
CIRCLE
  5
A58
330
A02
100
AcDbEntity
  8
Sketch
100
AcDbCircle
 10
-1.701287242
 20
131.302503000
 30
0.000000000
 40
0.400000000
  0
CIRCLE
  5
A59
330
A02
100
AcDbEntity
  8
Sketch
100
AcDbCircle
 10
-4.202699000
 20
130.861437000
 30
0.000000000
 40
0.400000000
  0
CIRCLE
  5
A5A
330
A02
100
AcDbEntity
  8
Sketch
100
AcDbCircle
 10
-6.704110758
 20
130.420371000
 30
0.000000000
 40
0.400000000
  0
CIRCLE
  5
A5B
330
A02
100
AcDbEntity
  8
Sketch
100
AcDbCircle
 10
-9.205522340
 20
129.979304000
 30
0.000000000
 40
0.400000000
  0
CIRCLE
  5
A5C
330
A02
100
AcDbEntity
  8
Sketch
100
AcDbCircle
 10
-11.706934098
 20
129.538238000
 30
0.000000000
 40
0.400000000
  0
CIRCLE
  5
A5D
330
A02
100
AcDbEntity
  8
Sketch
100
AcDbCircle
 10
-32.515922660
 20
125.869052000
 30
0.000000000
 40
0.400000000
  0
CIRCLE
  5
A5E
330
A02
100
AcDbEntity
  8
Sketch
100
AcDbCircle
 10
-35.017334242
 20
125.427985000
 30
0.000000000
 40
0.400000000
  0
CIRCLE
  5
A5F
330
A02
100
AcDbEntity
  8
Sketch
100
AcDbCircle
 10
-40.020157758
 20
124.545853000
 30
0.000000000
 40
0.400000000
  0
CIRCLE
  5
A60
330
A02
100
AcDbEntity
  8
Sketch
100
AcDbCircle
 10
-37.518746000
 20
124.986919000
 30
0.000000000
 40
0.400000000
  0
CIRCLE
  5
A61
330
A02
100
AcDbEntity
  8
Sketch
100
AcDbCircle
 10
-42.521569340
 20
124.104786000
 30
0.000000000
 40
0.400000000
  0
CIRCLE
  5
A62
330
A02
100
AcDbEntity
  8
Sketch
100
AcDbCircle
 10
43.309413340
 20
123.965868000
 30
0.000000000
 40
0.400000000
  0
CIRCLE
  5
A63
330
A02
100
AcDbEntity
  8
Sketch
100
AcDbCircle
 10
40.808001758
 20
124.406935000
 30
0.000000000
 40
0.400000000
  0
CIRCLE
  5
A64
330
A02
100
AcDbEntity
  8
Sketch
100
AcDbCircle
 10
38.306590000
 20
124.848001000
 30
0.000000000
 40
0.400000000
  0
CIRCLE
  5
A65
330
A02
100
AcDbEntity
  8
Sketch
100
AcDbCircle
 10
35.805178242
 20
125.289067000
 30
0.000000000
 40
0.400000000
  0
CIRCLE
  5
A66
330
A02
100
AcDbEntity
  8
Sketch
100
AcDbCircle
 10
33.303766660
 20
125.730134000
 30
0.000000000
 40
0.400000000
  0
CIRCLE
  5
A67
330
A02
100
AcDbEntity
  8
Sketch
100
AcDbCircle
 10
12.494778582
 20
129.399319000
 30
0.000000000
 40
0.400000000
  0
CIRCLE
  5
A68
330
A02
100
AcDbEntity
  8
Sketch
100
AcDbCircle
 10
9.993367000
 20
129.840386000
 30
0.000000000
 40
0.400000000
  0
CIRCLE
  5
A69
330
A02
100
AcDbEntity
  8
Sketch
100
AcDbCircle
 10
4.990543484
 20
130.722518000
 30
0.000000000
 40
0.400000000
  0
CIRCLE
  5
A6A
330
A02
100
AcDbEntity
  8
Sketch
100
AcDbCircle
 10
7.491955242
 20
130.281452000
 30
0.000000000
 40
0.400000000
  0
CIRCLE
  5
A6B
330
A02
100
AcDbEntity
  8
Sketch
100
AcDbCircle
 10
2.489131902
 20
131.163585000
 30
0.000000000
 40
0.400000000
  0
CIRCLE
  5
A6C
330
A02
100
AcDbEntity
  8
Sketch
100
AcDbCircle
 10
83.096360577
 20
101.677120000
 30
0.000000000
 40
0.400000000
  0
CIRCLE
  5
A6D
330
A02
100
AcDbEntity
  8
Sketch
100
AcDbCircle
 10
80.896656051
 20
102.947120000
 30
0.000000000
 40
0.400000000
  0
CIRCLE
  5
A6E
330
A02
100
AcDbEntity
  8
Sketch
100
AcDbCircle
 10
78.696951526
 20
104.217120000
 30
0.000000000
 40
0.400000000
  0
CIRCLE
  5
A6F
330
A02
100
AcDbEntity
  8
Sketch
100
AcDbCircle
 10
76.497247000
 20
105.487120000
 30
0.000000000
 40
0.400000000
  0
CIRCLE
  5
A70
330
A02
100
AcDbEntity
  8
Sketch
100
AcDbCircle
 10
74.297542474
 20
106.757120000
 30
0.000000000
 40
0.400000000
  0
CIRCLE
  5
A71
330
A02
100
AcDbEntity
  8
Sketch
100
AcDbCircle
 10
55.998425000
 20
117.322120000
 30
0.000000000
 40
0.400000000
  0
CIRCLE
  5
A72
330
A02
100
AcDbEntity
  8
Sketch
100
AcDbCircle
 10
53.798720474
 20
118.592120000
 30
0.000000000
 40
0.400000000
  0
CIRCLE
  5
A73
330
A02
100
AcDbEntity
  8
Sketch
100
AcDbCircle
 10
49.399311423
 20
121.132120000
 30
0.000000000
 40
0.400000000
  0
CIRCLE
  5
A74
330
A02
100
AcDbEntity
  8
Sketch
100
AcDbCircle
 10
51.599015949
 20
119.862120000
 30
0.000000000
 40
0.400000000
  0
CIRCLE
  5
A75
330
A02
100
AcDbEntity
  8
Sketch
100
AcDbCircle
 10
47.199606320
 20
122.402119000
 30
0.000000000
 40
0.400000000
  0
CIRCLE
  5
A76
330
A02
100
AcDbEntity
  8
Sketch
100
AcDbCircle
 10
112.860660000
 20
67.124610510
 30
0.000000000
 40
0.400000000
  0
CIRCLE
  5
A77
330
A02
100
AcDbEntity
  8
Sketch
100
AcDbCircle
 10
111.227979000
 20
69.070363000
 30
0.000000000
 40
0.400000000
  0
CIRCLE
  5
A78
330
A02
100
AcDbEntity
  8
Sketch
100
AcDbCircle
 10
109.595298000
 20
71.016115490
 30
0.000000000
 40
0.400000000
  0
CIRCLE
  5
A79
330
A02
100
AcDbEntity
  8
Sketch
100
AcDbCircle
 10
107.962618000
 20
72.961868819
 30
0.000000000
 40
0.400000000
  0
CIRCLE
  5
A7A
330
A02
100
AcDbEntity
  8
Sketch
100
AcDbCircle
 10
106.329937000
 20
74.907621309
 30
0.000000000
 40
0.400000000
  0
CIRCLE
  5
A7B
330
A02
100
AcDbEntity
  8
Sketch
100
AcDbCircle
 10
92.747835000
 20
91.094140671
 30
0.000000000
 40
0.400000000
  0
CIRCLE
  5
A7C
330
A02
100
AcDbEntity
  8
Sketch
100
AcDbCircle
 10
91.115155000
 20
93.039894000
 30
0.000000000
 40
0.400000000
  0
CIRCLE
  5
A7D
330
A02
100
AcDbEntity
  8
Sketch
100
AcDbCircle
 10
87.849793000
 20
96.931398980
 30
0.000000000
 40
0.400000000
  0
CIRCLE
  5
A7E
330
A02
100
AcDbEntity
  8
Sketch
100
AcDbCircle
 10
89.482474000
 20
94.985646490
 30
0.000000000
 40
0.400000000
  0
CIRCLE
  5
A7F
330
A02
100
AcDbEntity
  8
Sketch
100
AcDbCircle
 10
86.217113000
 20
98.877152309
 30
0.000000000
 40
0.400000000
  0
CIRCLE
  5
A80
330
A02
100
AcDbEntity
  8
Sketch
100
AcDbCircle
 10
129.012298000
 20
24.475882000
 30
0.000000000
 40
0.400000000
  0
CIRCLE
  5
A81
330
A02
100
AcDbEntity
  8
Sketch
100
AcDbCircle
 10
128.143567000
 20
26.862701317
 30
0.000000000
 40
0.400000000
  0
CIRCLE
  5
A82
330
A02
100
AcDbEntity
  8
Sketch
100
AcDbCircle
 10
127.274835000
 20
29.249520269
 30
0.000000000
 40
0.400000000
  0
CIRCLE
  5
A83
330
A02
100
AcDbEntity
  8
Sketch
100
AcDbCircle
 10
126.406104000
 20
31.636339586
 30
0.000000000
 40
0.400000000
  0
CIRCLE
  5
A84
330
A02
100
AcDbEntity
  8
Sketch
100
AcDbCircle
 10
125.537373000
 20
34.023158902
 30
0.000000000
 40
0.400000000
  0
CIRCLE
  5
A85
330
A02
100
AcDbEntity
  8
Sketch
100
AcDbCircle
 10
118.310487000
 20
53.878864000
 30
0.000000000
 40
0.400000000
  0
CIRCLE
  5
A86
330
A02
100
AcDbEntity
  8
Sketch
100
AcDbCircle
 10
117.441756000
 20
56.265683317
 30
0.000000000
 40
0.400000000
  0
CIRCLE
  5
A87
330
A02
100
AcDbEntity
  8
Sketch
100
AcDbCircle
 10
115.704294000
 20
61.039321950
 30
0.000000000
 40
0.400000000
  0
CIRCLE
  5
A88
330
A02
100
AcDbEntity
  8
Sketch
100
AcDbCircle
 10
116.573025000
 20
58.652502633
 30
0.000000000
 40
0.400000000
  0
CIRCLE
  5
A89
330
A02
100
AcDbEntity
  8
Sketch
100
AcDbCircle
 10
114.835562000
 20
63.426140902
 30
0.000000000
 40
0.400000000
  0
CIRCLE
  5
A8A
330
A02
100
AcDbEntity
  8
Sketch
100
AcDbCircle
 10
129.603149000
 20
-21.124999000
 30
0.000000000
 40
0.400000000
  0
CIRCLE
  5
A8B
330
A02
100
AcDbEntity
  8
Sketch
100
AcDbCircle
 10
129.603149000
 20
-18.584999000
 30
0.000000000
 40
0.400000000
  0
CIRCLE
  5
A8C
330
A02
100
AcDbEntity
  8
Sketch
100
AcDbCircle
 10
129.603149000
 20
-16.044999000
 30
0.000000000
 40
0.400000000
  0
CIRCLE
  5
A8D
330
A02
100
AcDbEntity
  8
Sketch
100
AcDbCircle
 10
129.603149000
 20
-13.504999000
 30
0.000000000
 40
0.400000000
  0
CIRCLE
  5
A8E
330
A02
100
AcDbEntity
  8
Sketch
100
AcDbCircle
 10
129.603149000
 20
-10.964999000
 30
0.000000000
 40
0.400000000
  0
CIRCLE
  5
A8F
330
A02
100
AcDbEntity
  8
Sketch
100
AcDbCircle
 10
129.603149000
 20
10.165001000
 30
0.000000000
 40
0.400000000
  0
CIRCLE
  5
A90
330
A02
100
AcDbEntity
  8
Sketch
100
AcDbCircle
 10
129.603149000
 20
12.705001000
 30
0.000000000
 40
0.400000000
  0
CIRCLE
  5
A91
330
A02
100
AcDbEntity
  8
Sketch
100
AcDbCircle
 10
129.603149000
 20
17.785001000
 30
0.000000000
 40
0.400000000
  0
CIRCLE
  5
A92
330
A02
100
AcDbEntity
  8
Sketch
100
AcDbCircle
 10
129.603149000
 20
15.245001000
 30
0.000000000
 40
0.400000000
  0
CIRCLE
  5
A93
330
A02
100
AcDbEntity
  8
Sketch
100
AcDbCircle
 10
129.603148000
 20
20.325001000
 30
0.000000000
 40
0.400000000
  0
CIRCLE
  5
A94
330
A02
100
AcDbEntity
  8
Sketch
100
AcDbCircle
 10
114.561948000
 20
-64.177893266
 30
0.000000000
 40
0.400000000
  0
CIRCLE
  5
A95
330
A02
100
AcDbEntity
  8
Sketch
100
AcDbCircle
 10
115.430679000
 20
-61.791073950
 30
0.000000000
 40
0.400000000
  0
CIRCLE
  5
A96
330
A02
100
AcDbEntity
  8
Sketch
100
AcDbCircle
 10
116.299410000
 20
-59.404254633
 30
0.000000000
 40
0.400000000
  0
CIRCLE
  5
A97
330
A02
100
AcDbEntity
  8
Sketch
100
AcDbCircle
 10
117.168141000
 20
-57.017435317
 30
0.000000000
 40
0.400000000
  0
CIRCLE
  5
A98
330
A02
100
AcDbEntity
  8
Sketch
100
AcDbCircle
 10
118.036872000
 20
-54.630616000
 30
0.000000000
 40
0.400000000
  0
CIRCLE
  5
A99
330
A02
100
AcDbEntity
  8
Sketch
100
AcDbCircle
 10
125.263758000
 20
-34.774911266
 30
0.000000000
 40
0.400000000
  0
CIRCLE
  5
A9A
330
A02
100
AcDbEntity
  8
Sketch
100
AcDbCircle
 10
126.132489000
 20
-32.388091950
 30
0.000000000
 40
0.400000000
  0
CIRCLE
  5
A9B
330
A02
100
AcDbEntity
  8
Sketch
100
AcDbCircle
 10
127.869951000
 20
-27.614453317
 30
0.000000000
 40
0.400000000
  0
CIRCLE
  5
A9C
330
A02
100
AcDbEntity
  8
Sketch
100
AcDbCircle
 10
127.001220000
 20
-30.001272633
 30
0.000000000
 40
0.400000000
  0
CIRCLE
  5
A9D
330
A02
100
AcDbEntity
  8
Sketch
100
AcDbCircle
 10
128.738682000
 20
-25.227634000
 30
0.000000000
 40
0.400000000
  0
CIRCLE
  5
A9E
330
A02
100
AcDbEntity
  8
Sketch
100
AcDbCircle
 10
85.702885000
 20
-99.489986000
 30
0.000000000
 40
0.400000000
  0
CIRCLE
  5
A9F
330
A02
100
AcDbEntity
  8
Sketch
100
AcDbCircle
 10
87.335565000
 20
-97.544232671
 30
0.000000000
 40
0.400000000
  0
CIRCLE
  5
AA0
330
A02
100
AcDbEntity
  8
Sketch
100
AcDbCircle
 10
88.968246000
 20
-95.598480181
 30
0.000000000
 40
0.400000000
  0
CIRCLE
  5
AA1
330
A02
100
AcDbEntity
  8
Sketch
100
AcDbCircle
 10
90.600926000
 20
-93.652726852
 30
0.000000000
 40
0.400000000
  0
CIRCLE
  5
AA2
330
A02
100
AcDbEntity
  8
Sketch
100
AcDbCircle
 10
92.233607000
 20
-91.706974362
 30
0.000000000
 40
0.400000000
  0
CIRCLE
  5
AA3
330
A02
100
AcDbEntity
  8
Sketch
100
AcDbCircle
 10
105.815709000
 20
-75.520454819
 30
0.000000000
 40
0.400000000
  0
CIRCLE
  5
AA4
330
A02
100
AcDbEntity
  8
Sketch
100
AcDbCircle
 10
107.448389000
 20
-73.574701490
 30
0.000000000
 40
0.400000000
  0
CIRCLE
  5
AA5
330
A02
100
AcDbEntity
  8
Sketch
100
AcDbCircle
 10
110.713750000
 20
-69.683195671
 30
0.000000000
 40
0.400000000
  0
CIRCLE
  5
AA6
330
A02
100
AcDbEntity
  8
Sketch
100
AcDbCircle
 10
109.081070000
 20
-71.628949000
 30
0.000000000
 40
0.400000000
  0
CIRCLE
  5
AA7
330
A02
100
AcDbEntity
  8
Sketch
100
AcDbCircle
 10
112.346431000
 20
-67.737443181
 30
0.000000000
 40
0.400000000
  0
CIRCLE
  5
AA8
330
A02
100
AcDbEntity
  8
Sketch
100
AcDbCircle
 10
46.506788949
 20
-122.802119000
 30
0.000000000
 40
0.400000000
  0
CIRCLE
  5
AA9
330
A02
100
AcDbEntity
  8
Sketch
100
AcDbCircle
 10
48.706493474
 20
-121.532119000
 30
0.000000000
 40
0.400000000
  0
CIRCLE
  5
AAA
330
A02
100
AcDbEntity
  8
Sketch
100
AcDbCircle
 10
50.906198000
 20
-120.262119000
 30
0.000000000
 40
0.400000000
  0
CIRCLE
  5
AAB
330
A02
100
AcDbEntity
  8
Sketch
100
AcDbCircle
 10
53.105902526
 20
-118.992119000
 30
0.000000000
 40
0.400000000
  0
CIRCLE
  5
AAC
330
A02
100
AcDbEntity
  8
Sketch
100
AcDbCircle
 10
55.305607051
 20
-117.722119000
 30
0.000000000
 40
0.400000000
  0
CIRCLE
  5
AAD
330
A02
100
AcDbEntity
  8
Sketch
100
AcDbCircle
 10
73.604723949
 20
-107.157118000
 30
0.000000000
 40
0.400000000
  0
CIRCLE
  5
AAE
330
A02
100
AcDbEntity
  8
Sketch
100
AcDbCircle
 10
75.804428474
 20
-105.887118000
 30
0.000000000
 40
0.400000000
  0
CIRCLE
  5
AAF
330
A02
100
AcDbEntity
  8
Sketch
100
AcDbCircle
 10
80.203837526
 20
-103.347118000
 30
0.000000000
 40
0.400000000
  0
CIRCLE
  5
AB0
330
A02
100
AcDbEntity
  8
Sketch
100
AcDbCircle
 10
78.004133000
 20
-104.617118000
 30
0.000000000
 40
0.400000000
  0
CIRCLE
  5
AB1
330
A02
100
AcDbEntity
  8
Sketch
100
AcDbCircle
 10
82.403542051
 20
-102.077118000
 30
0.000000000
 40
0.400000000
  0
CIRCLE
  5
AB2
330
A02
100
AcDbEntity
  8
Sketch
100
AcDbCircle
 10
1.701288144
 20
-131.302503000
 30
0.000000000
 40
0.400000000
  0
CIRCLE
  5
AB3
330
A02
100
AcDbEntity
  8
Sketch
100
AcDbCircle
 10
4.202699902
 20
-130.861437000
 30
0.000000000
 40
0.400000000
  0
CIRCLE
  5
AB4
330
A02
100
AcDbEntity
  8
Sketch
100
AcDbCircle
 10
6.704111660
 20
-130.420371000
 30
0.000000000
 40
0.400000000
  0
CIRCLE
  5
AB5
330
A02
100
AcDbEntity
  8
Sketch
100
AcDbCircle
 10
9.205523242
 20
-129.979304000
 30
0.000000000
 40
0.400000000
  0
CIRCLE
  5
AB6
330
A02
100
AcDbEntity
  8
Sketch
100
AcDbCircle
 10
11.706935000
 20
-129.538238000
 30
0.000000000
 40
0.400000000
  0
CIRCLE
  5
AB7
330
A02
100
AcDbEntity
  8
Sketch
100
AcDbCircle
 10
32.515923242
 20
-125.869051000
 30
0.000000000
 40
0.400000000
  0
CIRCLE
  5
AB8
330
A02
100
AcDbEntity
  8
Sketch
100
AcDbCircle
 10
35.017335000
 20
-125.427985000
 30
0.000000000
 40
0.400000000
  0
CIRCLE
  5
AB9
330
A02
100
AcDbEntity
  8
Sketch
100
AcDbCircle
 10
40.020158340
 20
-124.545852000
 30
0.000000000
 40
0.400000000
  0
CIRCLE
  5
ABA
330
A02
100
AcDbEntity
  8
Sketch
100
AcDbCircle
 10
37.518746758
 20
-124.986919000
 30
0.000000000
 40
0.400000000
  0
CIRCLE
  5
ABB
330
A02
100
AcDbEntity
  8
Sketch
100
AcDbCircle
 10
42.521570098
 20
-124.104786000
 30
0.000000000
 40
0.400000000
  0
ENDSEC
  0
SECTION
  2
OBJECTS
  0
DICTIONARY
  5
F000
330
0
100
AcDbDictionary
  3
ACAD_GROUP
350
F001
  0
DICTIONARY
  5
F001
330
F000
100
AcDbDictionary
  0
ENDSEC
  0
EOF