999
FreeCAD v1.1 44987 (Git)
  0
SECTION
  2
HEADER
  9
$ACADVER
  1
AC1014
  9
$ACADMAINTVER
 70
     9
  9
$DWGCODEPAGE
  3
ANSI_1252
  9
$TEXTSTYLE
  7
STANDARD
  9
$DIMSTYLE
  2
STANDARD
  9
$DIMTXSTY
  7
STANDARD
  9
$CMLSTYLE
  2
STANDARD
  9
$LUNITS
 70
2
  9
$INSUNITS
 70
4
  9
$PEXTMAX
 10
50
 20
50
 30
50
  9
$PEXTMIN
 10
0
 20
0
 30
0
  9
$HANDSEED
  5
FFFF
  0
ENDSEC
  0
SECTION
  2
CLASSES
  0
CLASS
  1
ACDBDICTIONARYWDFLT
  2
AcDbDictionaryWithDefault
  3
ObjectDBX Classes
 90
        0
280
     0
281
     0
  0
CLASS
  1
XRECORD
  2
AcDbXrecord
  3
ObjectDBX Classes
 90
        0
280
     0
281
     0
  0
CLASS
  1
LWPOLYLINE
  2
AcDbPolyline
  3
ObjectDBX Classes
 90
        0
280
     0
281
     1
  0
ENDSEC
  0
SECTION
  2
TABLES
  0
TABLE
  2
VPORT
  5
20
330
0
100
AcDbSymbolTable
 70
     1
  0
VPORT
  5
21
330
20
100
AcDbSymbolTableRecord
100
AcDbViewportTableRecord
  2
*ACTIVE
 70
     0
  0
ENDTAB
  0
TABLE
  2
LTYPE
  5
22
330
0
100
AcDbSymbolTable
 70
     1
  0
LTYPE
  5
23
330
21
100
AcDbSymbolTableRecord
100
AcDbLinetypeTableRecord
  2
BYBLOCK
 70
     0
  3

 72
    65
 73
     0
 40
0.0
  0
LTYPE
  5
24
330
21
100
AcDbSymbolTableRecord
100
AcDbLinetypeTableRecord
  2
BYLAYER
 70
     0
  3

 72
    65
 73
     0
 40
0.0
  0
LTYPE
  5
25
330
21
100
AcDbSymbolTableRecord
100
AcDbLinetypeTableRecord
  2
CONTINUOUS
 70
     0
  3
Solid line
 72
    65
 73
     0
 40
0.0
  0
ENDTAB
  0
TABLE
  2
LAYER
  5
ABC
330
0
100
AcDbSymbolTable
 70
3
  0
LAYER
  5
ABD
330
ABC
100
AcDbSymbolTableRecord
100
AcDbLayerTableRecord
  2
0
 70
   0
 62
   7
  6
CONTINUOUS
  0
LAYER
  5
ABE
330
ABC
100
AcDbSymbolTableRecord
100
AcDbLayerTableRecord
  2
none
 70
    0
 62
    7
  6
CONTINUOUS
  0
LAYER
  5
ABF
330
ABC
100
AcDbSymbolTableRecord
100
AcDbLayerTableRecord
  2
Sketch
 70
    0
 62
    7
  6
CONTINUOUS
  0
ENDTAB
  0
TABLE
  2
STYLE
  5
70
330
0
100
AcDbSymbolTable
 70
     2
  0
STYLE
  5
71
330
70
100
AcDbSymbolTableRecord
100
AcDbTextStyleTableRecord
  2
STANDARD
 70
     0
 40
0.0
 41
1.0
 50
0.0
 71
     0
 42
2.5
  3
arial.ttf
  4

  0
STYLE
  5
72
330
70
100
AcDbSymbolTableRecord
100
AcDbTextStyleTableRecord
  2
ANNOTATIVE
 70
     0
 40
0.0
 41
1.0
 50
0.0
 71
     0
 42
2.5
  3
arial.ttf
  4

  0
ENDTAB
  0
TABLE
  2
VIEW
  5
73
330
0
100
AcDbSymbolTable
 70
     0
  0
ENDTAB
  0
TABLE
  2
UCS
  5
74
330
0
100
AcDbSymbolTable
 70
     0
  0
ENDTAB
  0
TABLE
  2
APPID
  5
75
330
0
100
AcDbSymbolTable
 70
     2
  0
APPID
  5
76
330
75
100
AcDbSymbolTableRecord
100
AcDbRegAppTableRecord
  2
ACAD
 70
     0
  0
APPID
  5
77
330
75
100
AcDbSymbolTableRecord
100
AcDbRegAppTableRecord
  2
ACADANNOTATIVE
 70
     0
  0
ENDTAB
  0
TABLE
  2
DIMSTYLE
  5
78
330
0
100
AcDbSymbolTable
 70
     2
  0
DIMSTYLE
105
79
330
78
100
AcDbSymbolTableRecord
100
AcDbDimStyleTableRecord
  2
STANDARD
 70
     0
  3

  4

  5

  6

  7

 40
0.0
 41
2.5
 42
0.625
 43
3.75
 44
1.25
 45
0.0
 46
0.0
 47
0.0
 48
0.0
140
2.5
141
2.5
142
0.0
143
0.03937007874016
144
1.0
145
0.0
146
1.0
147
0.625
 71
     0
 72
     0
 73
     0
 74
     0
 75
     0
 76
     0
 77
     1
 78
     8
170
     0
171
     3
172
     1
173
     0
174
     0
175
     0
176
     0
177
     0
178
     0
270
     2
271
     2
272
     2
273
     2
274
     3
340
71
275
     0
280
     0
281
     0
282
     0
283
     0
284
     8
285
     0
286
     0
287
     3
288
     0
  0
ENDTAB
  0
TABLE
  2
BLOCK_RECORD
  5
A01
330
0
100
AcDbSymbolTable
  70
5
  0
BLOCK_RECORD
  5
A02
330
A01
100
AcDbSymbolTableRecord
100
AcDbBlockTableRecord
  2
*MODEL_SPACE
  0
BLOCK_RECORD
  5
A03
330
A01
100
AcDbSymbolTableRecord
100
AcDbBlockTableRecord
  2
*PAPER_SPACE
  0
ENDTAB
  0
ENDSEC
  0
SECTION
  2
BLOCKS
  0
BLOCK
  5
A04
330
A02
100
AcDbEntity
  8
0
100
AcDbBlockBegin
  2
*MODEL_SPACE
 70
   0
 10
0
 20
0
 30
0
  3
*MODEL_SPACE
  1
 
  0
ENDBLK
  5
A05
330
A02
100
AcDbEntity
  8
0
100
AcDbBlockEnd
  0
BLOCK
  5
A06
330
A03
100
AcDbEntity
 67
1
  8
0
100
AcDbBlockBegin
  2
*PAPER_SPACE
 70
   0
 10
0
 20
0
 30
0
  3
*PAPER_SPACE
  1
 
  0
ENDBLK
  5
A07
330
A03
100
AcDbEntity
 67
    1
  8
0
100
AcDbBlockEnd
  0
ENDSEC
  0
SECTION
  2
ENTITIES
  0
CIRCLE
  5
A08
330
A02
100
AcDbEntity
  8
Sketch
100
AcDbCircle
 10
-43.506375919
 20
-125.082892331
 30
0.000000000
 40
0.400000000
  0
CIRCLE
  5
A09
330
A02
100
AcDbEntity
  8
Sketch
100
AcDbCircle
 10
-41.004964227
 20
-125.523958703
 30
0.000000000
 40
0.400000000
  0
CIRCLE
  5
A0A
330
A02
100
AcDbEntity
  8
Sketch
100
AcDbCircle
 10
-38.503552534
 20
-125.965025074
 30
0.000000000
 40
0.400000000
  0
CIRCLE
  5
A0B
330
A02
100
AcDbEntity
  8
Sketch
100
AcDbCircle
 10
-36.002140841
 20
-126.406091445
 30
0.000000000
 40
0.400000000
  0
CIRCLE
  5
A0C
330
A02
100
AcDbEntity
  8
Sketch
100
AcDbCircle
 10
-33.500729149
 20
-126.847157816
 30
0.000000000
 40
0.400000000
  0
CIRCLE
  5
A0D
330
A02
100
AcDbEntity
  8
Sketch
100
AcDbCircle
 10
-12.691741327
 20
-130.516343811
 30
0.000000000
 40
0.400000000
  0
CIRCLE
  5
A0E
330
A02
100
AcDbEntity
  8
Sketch
100
AcDbCircle
 10
-10.190329635
 20
-130.957410182
 30
0.000000000
 40
0.400000000
  0
CIRCLE
  5
A0F
330
A02
100
AcDbEntity
  8
Sketch
100
AcDbCircle
 10
-5.187506249
 20
-131.839542924
 30
0.000000000
 40
0.400000000
  0
CIRCLE
  5
A10
330
A02
100
AcDbEntity
  8
Sketch
100
AcDbCircle
 10
-7.688917942
 20
-131.398476553
 30
0.000000000
 40
0.400000000
  0
CIRCLE
  5
A11
330
A02
100
AcDbEntity
  8
Sketch
100
AcDbCircle
 10
-2.686094557
 20
-132.280609296
 30
0.000000000
 40
0.400000000
  0
CIRCLE
  5
A12
330
A02
100
AcDbEntity
  8
Sketch
100
AcDbCircle
 10
-83.663489577
 20
-102.659414000
 30
0.000000000
 40
0.400000000
  0
CIRCLE
  5
A13
330
A02
100
AcDbEntity
  8
Sketch
100
AcDbCircle
 10
-81.463785051
 20
-103.929414000
 30
0.000000000
 40
0.400000000
  0
CIRCLE
  5
A14
330
A02
100
AcDbEntity
  8
Sketch
100
AcDbCircle
 10
-79.264080526
 20
-105.199414000
 30
0.000000000
 40
0.400000000
  0
CIRCLE
  5
A15
330
A02
100
AcDbEntity
  8
Sketch
100
AcDbCircle
 10
-77.064376000
 20
-106.469414000
 30
0.000000000
 40
0.400000000
  0
CIRCLE
  5
A16
330
A02
100
AcDbEntity
  8
Sketch
100
AcDbCircle
 10
-74.864671474
 20
-107.739414000
 30
0.000000000
 40
0.400000000
  0
CIRCLE
  5
A17
330
A02
100
AcDbEntity
  8
Sketch
100
AcDbCircle
 10
-56.565554051
 20
-118.304414000
 30
0.000000000
 40
0.400000000
  0
CIRCLE
  5
A18
330
A02
100
AcDbEntity
  8
Sketch
100
AcDbCircle
 10
-54.365849526
 20
-119.574414000
 30
0.000000000
 40
0.400000000
  0
CIRCLE
  5
A19
330
A02
100
AcDbEntity
  8
Sketch
100
AcDbCircle
 10
-49.966440474
 20
-122.114414000
 30
0.000000000
 40
0.400000000
  0
CIRCLE
  5
A1A
330
A02
100
AcDbEntity
  8
Sketch
100
AcDbCircle
 10
-52.166145000
 20
-120.844414000
 30
0.000000000
 40
0.400000000
  0
CIRCLE
  5
A1B
330
A02
100
AcDbEntity
  8
Sketch
100
AcDbCircle
 10
-47.766735949
 20
-123.384414000
 30
0.000000000
 40
0.400000000
  0
CIRCLE
  5
A1C
330
A02
100
AcDbEntity
  8
Sketch
100
AcDbCircle
 10
-113.729551000
 20
-67.853695181
 30
0.000000000
 40
0.400000000
  0
CIRCLE
  5
A1D
330
A02
100
AcDbEntity
  8
Sketch
100
AcDbCircle
 10
-112.096870000
 20
-69.799447671
 30
0.000000000
 40
0.400000000
  0
CIRCLE
  5
A1E
330
A02
100
AcDbEntity
  8
Sketch
100
AcDbCircle
 10
-110.464190000
 20
-71.745201000
 30
0.000000000
 40
0.400000000
  0
CIRCLE
  5
A1F
330
A02
100
AcDbEntity
  8
Sketch
100
AcDbCircle
 10
-108.831509000
 20
-73.690953490
 30
0.000000000
 40
0.400000000
  0
CIRCLE
  5
A20
330
A02
100
AcDbEntity
  8
Sketch
100
AcDbCircle
 10
-107.198829000
 20
-75.636706819
 30
0.000000000
 40
0.400000000
  0
CIRCLE
  5
A21
330
A02
100
AcDbEntity
  8
Sketch
100
AcDbCircle
 10
-93.616727000
 20
-91.823225362
 30
0.000000000
 40
0.400000000
  0
CIRCLE
  5
A22
330
A02
100
AcDbEntity
  8
Sketch
100
AcDbCircle
 10
-91.984046000
 20
-93.768977852
 30
0.000000000
 40
0.400000000
  0
CIRCLE
  5
A23
330
A02
100
AcDbEntity
  8
Sketch
100
AcDbCircle
 10
-88.718685000
 20
-97.660483671
 30
0.000000000
 40
0.400000000
  0
CIRCLE
  5
A24
330
A02
100
AcDbEntity
  8
Sketch
100
AcDbCircle
 10
-90.351366000
 20
-95.714731181
 30
0.000000000
 40
0.400000000
  0
CIRCLE
  5
A25
330
A02
100
AcDbEntity
  8
Sketch
100
AcDbCircle
 10
-87.086005000
 20
-99.606237000
 30
0.000000000
 40
0.400000000
  0
CIRCLE
  5
A26
330
A02
100
AcDbEntity
  8
Sketch
100
AcDbCircle
 10
-130.078150000
 20
-24.863819000
 30
0.000000000
 40
0.400000000
  0
CIRCLE
  5
A27
330
A02
100
AcDbEntity
  8
Sketch
100
AcDbCircle
 10
-129.209419000
 20
-27.250638317
 30
0.000000000
 40
0.400000000
  0
CIRCLE
  5
A28
330
A02
100
AcDbEntity
  8
Sketch
100
AcDbCircle
 10
-128.340688000
 20
-29.637457633
 30
0.000000000
 40
0.400000000
  0
CIRCLE
  5
A29
330
A02
100
AcDbEntity
  8
Sketch
100
AcDbCircle
 10
-127.471957000
 20
-32.024276950
 30
0.000000000
 40
0.400000000
  0
CIRCLE
  5
A2A
330
A02
100
AcDbEntity
  8
Sketch
100
AcDbCircle
 10
-126.603226000
 20
-34.411096266
 30
0.000000000
 40
0.400000000
  0
CIRCLE
  5
A2B
330
A02
100
AcDbEntity
  8
Sketch
100
AcDbCircle
 10
-119.376340000
 20
-54.266801000
 30
0.000000000
 40
0.400000000
  0
CIRCLE
  5
A2C
330
A02
100
AcDbEntity
  8
Sketch
100
AcDbCircle
 10
-118.507609000
 20
-56.653620317
 30
0.000000000
 40
0.400000000
  0
CIRCLE
  5
A2D
330
A02
100
AcDbEntity
  8
Sketch
100
AcDbCircle
 10
-116.770147000
 20
-61.427258950
 30
0.000000000
 40
0.400000000
  0
CIRCLE
  5
A2E
330
A02
100
AcDbEntity
  8
Sketch
100
AcDbCircle
 10
-117.638878000
 20
-59.040439633
 30
0.000000000
 40
0.400000000
  0
CIRCLE
  5
A2F
330
A02
100
AcDbEntity
  8
Sketch
100
AcDbCircle
 10
-115.901415000
 20
-63.814077902
 30
0.000000000
 40
0.400000000
  0
CIRCLE
  5
A30
330
A02
100
AcDbEntity
  8
Sketch
100
AcDbCircle
 10
-130.737405000
 20
21.125000000
 30
0.000000000
 40
0.400000000
  0
CIRCLE
  5
A31
330
A02
100
AcDbEntity
  8
Sketch
100
AcDbCircle
 10
-130.737405000
 20
18.585000000
 30
0.000000000
 40
0.400000000
  0
CIRCLE
  5
A32
330
A02
100
AcDbEntity
  8
Sketch
100
AcDbCircle
 10
-130.737405000
 20
16.045000000
 30
0.000000000
 40
0.400000000
  0
CIRCLE
  5
A33
330
A02
100
AcDbEntity
  8
Sketch
100
AcDbCircle
 10
-130.737405000
 20
13.505000000
 30
0.000000000
 40
0.400000000
  0
CIRCLE
  5
A34
330
A02
100
AcDbEntity
  8
Sketch
100
AcDbCircle
 10
-130.737405000
 20
10.965000000
 30
0.000000000
 40
0.400000000
  0
CIRCLE
  5
A35
330
A02
100
AcDbEntity
  8
Sketch
100
AcDbCircle
 10
-130.737405000
 20
-10.165000000
 30
0.000000000
 40
0.400000000
  0
CIRCLE
  5
A36
330
A02
100
AcDbEntity
  8
Sketch
100
AcDbCircle
 10
-130.737405000
 20
-12.705000000
 30
0.000000000
 40
0.400000000
  0
CIRCLE
  5
A37
330
A02
100
AcDbEntity
  8
Sketch
100
AcDbCircle
 10
-130.737405000
 20
-17.785000000
 30
0.000000000
 40
0.400000000
  0
CIRCLE
  5
A38
330
A02
100
AcDbEntity
  8
Sketch
100
AcDbCircle
 10
-130.737405000
 20
-15.245000000
 30
0.000000000
 40
0.400000000
  0
CIRCLE
  5
A39
330
A02
100
AcDbEntity
  8
Sketch
100
AcDbCircle
 10
-130.737405000
 20
-20.325000000
 30
0.000000000
 40
0.400000000
  0
CIRCLE
  5
A3A
330
A02
100
AcDbEntity
  8
Sketch
100
AcDbCircle
 10
-115.627799000
 20
64.565833317
 30
0.000000000
 40
0.400000000
  0
CIRCLE
  5
A3B
330
A02
100
AcDbEntity
  8
Sketch
100
AcDbCircle
 10
-116.496530000
 20
62.179014000
 30
0.000000000
 40
0.400000000
  0
CIRCLE
  5
A3C
330
A02
100
AcDbEntity
  8
Sketch
100
AcDbCircle
 10
-117.365261000
 20
59.792194683
 30
0.000000000
 40
0.400000000
  0
CIRCLE
  5
A3D
330
A02
100
AcDbEntity
  8
Sketch
100
AcDbCircle
 10
-118.233993000
 20
57.405375731
 30
0.000000000
 40
0.400000000
  0
CIRCLE
  5
A3E
330
A02
100
AcDbEntity
  8
Sketch
100
AcDbCircle
 10
-119.102724000
 20
55.018556414
 30
0.000000000
 40
0.400000000
  0
CIRCLE
  5
A3F
330
A02
100
AcDbEntity
  8
Sketch
100
AcDbCircle
 10
-126.329609000
 20
35.162851000
 30
0.000000000
 40
0.400000000
  0
CIRCLE
  5
A40
330
A02
100
AcDbEntity
  8
Sketch
100
AcDbCircle
 10
-127.198341000
 20
32.776032047
 30
0.000000000
 40
0.400000000
  0
CIRCLE
  5
A41
330
A02
100
AcDbEntity
  8
Sketch
100
AcDbCircle
 10
-128.935803000
 20
28.002393414
 30
0.000000000
 40
0.400000000
  0
CIRCLE
  5
A42
330
A02
100
AcDbEntity
  8
Sketch
100
AcDbCircle
 10
-128.067072000
 20
30.389212731
 30
0.000000000
 40
0.400000000
  0
CIRCLE
  5
A43
330
A02
100
AcDbEntity
  8
Sketch
100
AcDbCircle
 10
-129.804534000
 20
25.615574098
 30
0.000000000
 40
0.400000000
  0
CIRCLE
  5
A44
330
A02
100
AcDbEntity
  8
Sketch
100
AcDbCircle
 10
-86.571774000
 20
100.219073309
 30
0.000000000
 40
0.400000000
  0
CIRCLE
  5
A45
330
A02
100
AcDbEntity
  8
Sketch
100
AcDbCircle
 10
-88.204454000
 20
98.273319980
 30
0.000000000
 40
0.400000000
  0
CIRCLE
  5
A46
330
A02
100
AcDbEntity
  8
Sketch
100
AcDbCircle
 10
-89.837135000
 20
96.327567490
 30
0.000000000
 40
0.400000000
  0
CIRCLE
  5
A47
330
A02
100
AcDbEntity
  8
Sketch
100
AcDbCircle
 10
-91.469816000
 20
94.381815000
 30
0.000000000
 40
0.400000000
  0
CIRCLE
  5
A48
330
A02
100
AcDbEntity
  8
Sketch
100
AcDbCircle
 10
-93.102496000
 20
92.436061671
 30
0.000000000
 40
0.400000000
  0
CIRCLE
  5
A49
330
A02
100
AcDbEntity
  8
Sketch
100
AcDbCircle
 10
-106.684598000
 20
76.249542309
 30
0.000000000
 40
0.400000000
  0
CIRCLE
  5
A4A
330
A02
100
AcDbEntity
  8
Sketch
100
AcDbCircle
 10
-108.317279000
 20
74.303789819
 30
0.000000000
 40
0.400000000
  0
CIRCLE
  5
A4B
330
A02
100
AcDbEntity
  8
Sketch
100
AcDbCircle
 10
-111.582640000
 20
70.412284000
 30
0.000000000
 40
0.400000000
  0
CIRCLE
  5
A4C
330
A02
100
AcDbEntity
  8
Sketch
100
AcDbCircle
 10
-109.949959000
 20
72.358036490
 30
0.000000000
 40
0.400000000
  0
CIRCLE
  5
A4D
330
A02
100
AcDbEntity
  8
Sketch
100
AcDbCircle
 10
-113.215320000
 20
68.466530671
 30
0.000000000
 40
0.400000000
  0
CIRCLE
  5
A4E
330
A02
100
AcDbEntity
  8
Sketch
100
AcDbCircle
 10
-47.073915000
 20
123.784414000
 30
0.000000000
 40
0.400000000
  0
CIRCLE
  5
A4F
330
A02
100
AcDbEntity
  8
Sketch
100
AcDbCircle
 10
-49.273619526
 20
122.514414000
 30
0.000000000
 40
0.400000000
  0
CIRCLE
  5
A50
330
A02
100
AcDbEntity
  8
Sketch
100
AcDbCircle
 10
-51.473324051
 20
121.244414000
 30
0.000000000
 40
0.400000000
  0
CIRCLE
  5
A51
330
A02
100
AcDbEntity
  8
Sketch
100
AcDbCircle
 10
-53.673028577
 20
119.974414000
 30
0.000000000
 40
0.400000000
  0
CIRCLE
  5
A52
330
A02
100
AcDbEntity
  8
Sketch
100
AcDbCircle
 10
-55.872733102
 20
118.704414000
 30
0.000000000
 40
0.400000000
  0
CIRCLE
  5
A53
330
A02
100
AcDbEntity
  8
Sketch
100
AcDbCircle
 10
-74.171849949
 20
108.139414000
 30
0.000000000
 40
0.400000000
  0
CIRCLE
  5
A54
330
A02
100
AcDbEntity
  8
Sketch
100
AcDbCircle
 10
-76.371554474
 20
106.869414000
 30
0.000000000
 40
0.400000000
  0
CIRCLE
  5
A55
330
A02
100
AcDbEntity
  8
Sketch
100
AcDbCircle
 10
-80.770963526
 20
104.329414000
 30
0.000000000
 40
0.400000000
  0
CIRCLE
  5
A56
330
A02
100
AcDbEntity
  8
Sketch
100
AcDbCircle
 10
-78.571259000
 20
105.599414000
 30
0.000000000
 40
0.400000000
  0
CIRCLE
  5
A57
330
A02
100
AcDbEntity
  8
Sketch
100
AcDbCircle
 10
-82.970668051
 20
103.059414000
 30
0.000000000
 40
0.400000000
  0
CIRCLE
  5
A58
330
A02
100
AcDbEntity
  8
Sketch
100
AcDbCircle
 10
-1.898248000
 20
132.419528000
 30
0.000000000
 40
0.400000000
  0
CIRCLE
  5
A59
330
A02
100
AcDbEntity
  8
Sketch
100
AcDbCircle
 10
-4.399659582
 20
131.978461000
 30
0.000000000
 40
0.400000000
  0
CIRCLE
  5
A5A
330
A02
100
AcDbEntity
  8
Sketch
100
AcDbCircle
 10
-6.901071340
 20
131.537395000
 30
0.000000000
 40
0.400000000
  0
CIRCLE
  5
A5B
330
A02
100
AcDbEntity
  8
Sketch
100
AcDbCircle
 10
-9.402483098
 20
131.096329000
 30
0.000000000
 40
0.400000000
  0
CIRCLE
  5
A5C
330
A02
100
AcDbEntity
  8
Sketch
100
AcDbCircle
 10
-11.903894680
 20
130.655262000
 30
0.000000000
 40
0.400000000
  0
CIRCLE
  5
A5D
330
A02
100
AcDbEntity
  8
Sketch
100
AcDbCircle
 10
-32.712882418
 20
126.986077000
 30
0.000000000
 40
0.400000000
  0
CIRCLE
  5
A5E
330
A02
100
AcDbEntity
  8
Sketch
100
AcDbCircle
 10
-35.214294000
 20
126.545010000
 30
0.000000000
 40
0.400000000
  0
CIRCLE
  5
A5F
330
A02
100
AcDbEntity
  8
Sketch
100
AcDbCircle
 10
-40.217117340
 20
125.662877000
 30
0.000000000
 40
0.400000000
  0
CIRCLE
  5
A60
330
A02
100
AcDbEntity
  8
Sketch
100
AcDbCircle
 10
-37.715705758
 20
126.103944000
 30
0.000000000
 40
0.400000000
  0
CIRCLE
  5
A61
330
A02
100
AcDbEntity
  8
Sketch
100
AcDbCircle
 10
-42.718529098
 20
125.221811000
 30
0.000000000
 40
0.400000000
  0
CIRCLE
  5
A62
330
A02
100
AcDbEntity
  8
Sketch
100
AcDbCircle
 10
43.506377098
 20
125.082892000
 30
0.000000000
 40
0.400000000
  0
CIRCLE
  5
A63
330
A02
100
AcDbEntity
  8
Sketch
100
AcDbCircle
 10
41.004965340
 20
125.523958000
 30
0.000000000
 40
0.400000000
  0
CIRCLE
  5
A64
330
A02
100
AcDbEntity
  8
Sketch
100
AcDbCircle
 10
38.503553758
 20
125.965025000
 30
0.000000000
 40
0.400000000
  0
CIRCLE
  5
A65
330
A02
100
AcDbEntity
  8
Sketch
100
AcDbCircle
 10
36.002142000
 20
126.406091000
 30
0.000000000
 40
0.400000000
  0
CIRCLE
  5
A66
330
A02
100
AcDbEntity
  8
Sketch
100
AcDbCircle
 10
33.500730418
 20
126.847158000
 30
0.000000000
 40
0.400000000
  0
CIRCLE
  5
A67
330
A02
100
AcDbEntity
  8
Sketch
100
AcDbCircle
 10
12.691742000
 20
130.516344000
 30
0.000000000
 40
0.400000000
  0
CIRCLE
  5
A68
330
A02
100
AcDbEntity
  8
Sketch
100
AcDbCircle
 10
10.190330242
 20
130.957410000
 30
0.000000000
 40
0.400000000
  0
CIRCLE
  5
A69
330
A02
100
AcDbEntity
  8
Sketch
100
AcDbCircle
 10
5.187506902
 20
131.839543000
 30
0.000000000
 40
0.400000000
  0
CIRCLE
  5
A6A
330
A02
100
AcDbEntity
  8
Sketch
100
AcDbCircle
 10
7.688918660
 20
131.398477000
 30
0.000000000
 40
0.400000000
  0
CIRCLE
  5
A6B
330
A02
100
AcDbEntity
  8
Sketch
100
AcDbCircle
 10
2.686095144
 20
132.280609000
 30
0.000000000
 40
0.400000000
  0
CIRCLE
  5
A6C
330
A02
100
AcDbEntity
  8
Sketch
100
AcDbCircle
 10
83.663490051
 20
102.659413000
 30
0.000000000
 40
0.400000000
  0
CIRCLE
  5
A6D
330
A02
100
AcDbEntity
  8
Sketch
100
AcDbCircle
 10
81.463785526
 20
103.929413000
 30
0.000000000
 40
0.400000000
  0
CIRCLE
  5
A6E
330
A02
100
AcDbEntity
  8
Sketch
100
AcDbCircle
 10
79.264081000
 20
105.199413000
 30
0.000000000
 40
0.400000000
  0
CIRCLE
  5
A6F
330
A02
100
AcDbEntity
  8
Sketch
100
AcDbCircle
 10
77.064376474
 20
106.469413000
 30
0.000000000
 40
0.400000000
  0
CIRCLE
  5
A70
330
A02
100
AcDbEntity
  8
Sketch
100
AcDbCircle
 10
74.864671949
 20
107.739413000
 30
0.000000000
 40
0.400000000
  0
CIRCLE
  5
A71
330
A02
100
AcDbEntity
  8
Sketch
100
AcDbCircle
 10
56.565555000
 20
118.304414000
 30
0.000000000
 40
0.400000000
  0
CIRCLE
  5
A72
330
A02
100
AcDbEntity
  8
Sketch
100
AcDbCircle
 10
54.365850474
 20
119.574414000
 30
0.000000000
 40
0.400000000
  0
CIRCLE
  5
A73
330
A02
100
AcDbEntity
  8
Sketch
100
AcDbCircle
 10
49.966441423
 20
122.114414000
 30
0.000000000
 40
0.400000000
  0
CIRCLE
  5
A74
330
A02
100
AcDbEntity
  8
Sketch
100
AcDbCircle
 10
52.166145949
 20
120.844414000
 30
0.000000000
 40
0.400000000
  0
CIRCLE
  5
A75
330
A02
100
AcDbEntity
  8
Sketch
100
AcDbCircle
 10
47.766736898
 20
123.384414000
 30
0.000000000
 40
0.400000000
  0
CIRCLE
  5
A76
330
A02
100
AcDbEntity
  8
Sketch
100
AcDbCircle
 10
113.729551000
 20
67.853693671
 30
0.000000000
 40
0.400000000
  0
CIRCLE
  5
A77
330
A02
100
AcDbEntity
  8
Sketch
100
AcDbCircle
 10
112.096871000
 20
69.799447000
 30
0.000000000
 40
0.400000000
  0
CIRCLE
  5
A78
330
A02
100
AcDbEntity
  8
Sketch
100
AcDbCircle
 10
110.464190000
 20
71.745199490
 30
0.000000000
 40
0.400000000
  0
CIRCLE
  5
A79
330
A02
100
AcDbEntity
  8
Sketch
100
AcDbCircle
 10
108.831510000
 20
73.690952819
 30
0.000000000
 40
0.400000000
  0
CIRCLE
  5
A7A
330
A02
100
AcDbEntity
  8
Sketch
100
AcDbCircle
 10
107.198829000
 20
75.636705309
 30
0.000000000
 40
0.400000000
  0
CIRCLE
  5
A7B
330
A02
100
AcDbEntity
  8
Sketch
100
AcDbCircle
 10
93.616727000
 20
91.823224671
 30
0.000000000
 40
0.400000000
  0
CIRCLE
  5
A7C
330
A02
100
AcDbEntity
  8
Sketch
100
AcDbCircle
 10
91.984047000
 20
93.768978000
 30
0.000000000
 40
0.400000000
  0
CIRCLE
  5
A7D
330
A02
100
AcDbEntity
  8
Sketch
100
AcDbCircle
 10
88.718686000
 20
97.660483819
 30
0.000000000
 40
0.400000000
  0
CIRCLE
  5
A7E
330
A02
100
AcDbEntity
  8
Sketch
100
AcDbCircle
 10
90.351366000
 20
95.714730490
 30
0.000000000
 40
0.400000000
  0
CIRCLE
  5
A7F
330
A02
100
AcDbEntity
  8
Sketch
100
AcDbCircle
 10
87.086005000
 20
99.606236309
 30
0.000000000
 40
0.400000000
  0
CIRCLE
  5
A80
330
A02
100
AcDbEntity
  8
Sketch
100
AcDbCircle
 10
130.078151000
 20
24.863819047
 30
0.000000000
 40
0.400000000
  0
CIRCLE
  5
A81
330
A02
100
AcDbEntity
  8
Sketch
100
AcDbCircle
 10
129.209419000
 20
27.250638000
 30
0.000000000
 40
0.400000000
  0
CIRCLE
  5
A82
330
A02
100
AcDbEntity
  8
Sketch
100
AcDbCircle
 10
128.340688000
 20
29.637457317
 30
0.000000000
 40
0.400000000
  0
CIRCLE
  5
A83
330
A02
100
AcDbEntity
  8
Sketch
100
AcDbCircle
 10
127.471957000
 20
32.024276633
 30
0.000000000
 40
0.400000000
  0
CIRCLE
  5
A84
330
A02
100
AcDbEntity
  8
Sketch
100
AcDbCircle
 10
126.603226000
 20
34.411095950
 30
0.000000000
 40
0.400000000
  0
CIRCLE
  5
A85
330
A02
100
AcDbEntity
  8
Sketch
100
AcDbCircle
 10
119.376340000
 20
54.266800734
 30
0.000000000
 40
0.400000000
  0
CIRCLE
  5
A86
330
A02
100
AcDbEntity
  8
Sketch
100
AcDbCircle
 10
118.507609000
 20
56.653620050
 30
0.000000000
 40
0.400000000
  0
CIRCLE
  5
A87
330
A02
100
AcDbEntity
  8
Sketch
100
AcDbCircle
 10
116.770147000
 20
61.427258683
 30
0.000000000
 40
0.400000000
  0
CIRCLE
  5
A88
330
A02
100
AcDbEntity
  8
Sketch
100
AcDbCircle
 10
117.638878000
 20
59.040439367
 30
0.000000000
 40
0.400000000
  0
CIRCLE
  5
A89
330
A02
100
AcDbEntity
  8
Sketch
100
AcDbCircle
 10
115.901416000
 20
63.814078000
 30
0.000000000
 40
0.400000000
  0
CIRCLE
  5
A8A
330
A02
100
AcDbEntity
  8
Sketch
100
AcDbCircle
 10
130.737405000
 20
-21.125001000
 30
0.000000000
 40
0.400000000
  0
CIRCLE
  5
A8B
330
A02
100
AcDbEntity
  8
Sketch
100
AcDbCircle
 10
130.737405000
 20
-18.585001000
 30
0.000000000
 40
0.400000000
  0
CIRCLE
  5
A8C
330
A02
100
AcDbEntity
  8
Sketch
100
AcDbCircle
 10
130.737405000
 20
-16.045001000
 30
0.000000000
 40
0.400000000
  0
CIRCLE
  5
A8D
330
A02
100
AcDbEntity
  8
Sketch
100
AcDbCircle
 10
130.737405000
 20
-13.505001000
 30
0.000000000
 40
0.400000000
  0
CIRCLE
  5
A8E
330
A02
100
AcDbEntity
  8
Sketch
100
AcDbCircle
 10
130.737405000
 20
-10.965001000
 30
0.000000000
 40
0.400000000
  0
CIRCLE
  5
A8F
330
A02
100
AcDbEntity
  8
Sketch
100
AcDbCircle
 10
130.737405000
 20
10.164999000
 30
0.000000000
 40
0.400000000
  0
CIRCLE
  5
A90
330
A02
100
AcDbEntity
  8
Sketch
100
AcDbCircle
 10
130.737405000
 20
12.704999000
 30
0.000000000
 40
0.400000000
  0
CIRCLE
  5
A91
330
A02
100
AcDbEntity
  8
Sketch
100
AcDbCircle
 10
130.737405000
 20
17.784999000
 30
0.000000000
 40
0.400000000
  0
CIRCLE
  5
A92
330
A02
100
AcDbEntity
  8
Sketch
100
AcDbCircle
 10
130.737405000
 20
15.244999000
 30
0.000000000
 40
0.400000000
  0
CIRCLE
  5
A93
330
A02
100
AcDbEntity
  8
Sketch
100
AcDbCircle
 10
130.737405000
 20
20.324999000
 30
0.000000000
 40
0.400000000
  0
CIRCLE
  5
A94
330
A02
100
AcDbEntity
  8
Sketch
100
AcDbCircle
 10
115.627799000
 20
-64.565834266
 30
0.000000000
 40
0.400000000
  0
CIRCLE
  5
A95
330
A02
100
AcDbEntity
  8
Sketch
100
AcDbCircle
 10
116.496530000
 20
-62.179014950
 30
0.000000000
 40
0.400000000
  0
CIRCLE
  5
A96
330
A02
100
AcDbEntity
  8
Sketch
100
AcDbCircle
 10
117.365261000
 20
-59.792195633
 30
0.000000000
 40
0.400000000
  0
CIRCLE
  5
A97
330
A02
100
AcDbEntity
  8
Sketch
100
AcDbCircle
 10
118.233992000
 20
-57.405376317
 30
0.000000000
 40
0.400000000
  0
CIRCLE
  5
A98
330
A02
100
AcDbEntity
  8
Sketch
100
AcDbCircle
 10
119.102723000
 20
-55.018557000
 30
0.000000000
 40
0.400000000
  0
CIRCLE
  5
A99
330
A02
100
AcDbEntity
  8
Sketch
100
AcDbCircle
 10
126.329609000
 20
-35.162852317
 30
0.000000000
 40
0.400000000
  0
CIRCLE
  5
A9A
330
A02
100
AcDbEntity
  8
Sketch
100
AcDbCircle
 10
127.198340000
 20
-32.776033000
 30
0.000000000
 40
0.400000000
  0
CIRCLE
  5
A9B
330
A02
100
AcDbEntity
  8
Sketch
100
AcDbCircle
 10
128.935803000
 20
-28.002394731
 30
0.000000000
 40
0.400000000
  0
CIRCLE
  5
A9C
330
A02
100
AcDbEntity
  8
Sketch
100
AcDbCircle
 10
128.067072000
 20
-30.389214047
 30
0.000000000
 40
0.400000000
  0
CIRCLE
  5
A9D
330
A02
100
AcDbEntity
  8
Sketch
100
AcDbCircle
 10
129.804534000
 20
-25.615575414
 30
0.000000000
 40
0.400000000
  0
CIRCLE
  5
A9E
330
A02
100
AcDbEntity
  8
Sketch
100
AcDbCircle
 10
86.571773000
 20
-100.219074000
 30
0.000000000
 40
0.400000000
  0
CIRCLE
  5
A9F
330
A02
100
AcDbEntity
  8
Sketch
100
AcDbCircle
 10
88.204454000
 20
-98.273321510
 30
0.000000000
 40
0.400000000
  0
CIRCLE
  5
AA0
330
A02
100
AcDbEntity
  8
Sketch
100
AcDbCircle
 10
89.837134000
 20
-96.327568181
 30
0.000000000
 40
0.400000000
  0
CIRCLE
  5
AA1
330
A02
100
AcDbEntity
  8
Sketch
100
AcDbCircle
 10
91.469815000
 20
-94.381815691
 30
0.000000000
 40
0.400000000
  0
CIRCLE
  5
AA2
330
A02
100
AcDbEntity
  8
Sketch
100
AcDbCircle
 10
93.102495000
 20
-92.436062362
 30
0.000000000
 40
0.400000000
  0
CIRCLE
  5
AA3
330
A02
100
AcDbEntity
  8
Sketch
100
AcDbCircle
 10
106.684598000
 20
-76.249543638
 30
0.000000000
 40
0.400000000
  0
CIRCLE
  5
AA4
330
A02
100
AcDbEntity
  8
Sketch
100
AcDbCircle
 10
108.317278000
 20
-74.303790309
 30
0.000000000
 40
0.400000000
  0
CIRCLE
  5
AA5
330
A02
100
AcDbEntity
  8
Sketch
100
AcDbCircle
 10
111.582639000
 20
-70.412284490
 30
0.000000000
 40
0.400000000
  0
CIRCLE
  5
AA6
330
A02
100
AcDbEntity
  8
Sketch
100
AcDbCircle
 10
109.949959000
 20
-72.358037819
 30
0.000000000
 40
0.400000000
  0
CIRCLE
  5
AA7
330
A02
100
AcDbEntity
  8
Sketch
100
AcDbCircle
 10
113.215320000
 20
-68.466532000
 30
0.000000000
 40
0.400000000
  0
CIRCLE
  5
AA8
330
A02
100
AcDbEntity
  8
Sketch
100
AcDbCircle
 10
47.073913949
 20
-123.784415000
 30
0.000000000
 40
0.400000000
  0
CIRCLE
  5
AA9
330
A02
100
AcDbEntity
  8
Sketch
100
AcDbCircle
 10
49.273618474
 20
-122.514415000
 30
0.000000000
 40
0.400000000
  0
CIRCLE
  5
AAA
330
A02
100
AcDbEntity
  8
Sketch
100
AcDbCircle
 10
51.473323000
 20
-121.244415000
 30
0.000000000
 40
0.400000000
  0
CIRCLE
  5
AAB
330
A02
100
AcDbEntity
  8
Sketch
100
AcDbCircle
 10
53.673027526
 20
-119.974415000
 30
0.000000000
 40
0.400000000
  0
CIRCLE
  5
AAC
330
A02
100
AcDbEntity
  8
Sketch
100
AcDbCircle
 10
55.872732051
 20
-118.704415000
 30
0.000000000
 40
0.400000000
  0
CIRCLE
  5
AAD
330
A02
100
AcDbEntity
  8
Sketch
100
AcDbCircle
 10
74.171849000
 20
-108.139415000
 30
0.000000000
 40
0.400000000
  0
CIRCLE
  5
AAE
330
A02
100
AcDbEntity
  8
Sketch
100
AcDbCircle
 10
76.371553526
 20
-106.869415000
 30
0.000000000
 40
0.400000000
  0
CIRCLE
  5
AAF
330
A02
100
AcDbEntity
  8
Sketch
100
AcDbCircle
 10
80.770962577
 20
-104.329415000
 30
0.000000000
 40
0.400000000
  0
CIRCLE
  5
AB0
330
A02
100
AcDbEntity
  8
Sketch
100
AcDbCircle
 10
78.571258051
 20
-105.599415000
 30
0.000000000
 40
0.400000000
  0
CIRCLE
  5
AB1
330
A02
100
AcDbEntity
  8
Sketch
100
AcDbCircle
 10
82.970667102
 20
-103.059415000
 30
0.000000000
 40
0.400000000
  0
CIRCLE
  5
AB2
330
A02
100
AcDbEntity
  8
Sketch
100
AcDbCircle
 10
1.898246660
 20
-132.419528000
 30
0.000000000
 40
0.400000000
  0
CIRCLE
  5
AB3
330
A02
100
AcDbEntity
  8
Sketch
100
AcDbCircle
 10
4.399658418
 20
-131.978462000
 30
0.000000000
 40
0.400000000
  0
CIRCLE
  5
AB4
330
A02
100
AcDbEntity
  8
Sketch
100
AcDbCircle
 10
6.901070000
 20
-131.537395000
 30
0.000000000
 40
0.400000000
  0
CIRCLE
  5
AB5
330
A02
100
AcDbEntity
  8
Sketch
100
AcDbCircle
 10
9.402481758
 20
-131.096329000
 30
0.000000000
 40
0.400000000
  0
CIRCLE
  5
AB6
330
A02
100
AcDbEntity
  8
Sketch
100
AcDbCircle
 10
11.903893516
 20
-130.655263000
 30
0.000000000
 40
0.400000000
  0
CIRCLE
  5
AB7
330
A02
100
AcDbEntity
  8
Sketch
100
AcDbCircle
 10
32.712881000
 20
-126.986077000
 30
0.000000000
 40
0.400000000
  0
CIRCLE
  5
AB8
330
A02
100
AcDbEntity
  8
Sketch
100
AcDbCircle
 10
35.214292582
 20
-126.545010000
 30
0.000000000
 40
0.400000000
  0
CIRCLE
  5
AB9
330
A02
100
AcDbEntity
  8
Sketch
100
AcDbCircle
 10
40.217116098
 20
-125.662878000
 30
0.000000000
 40
0.400000000
  0
CIRCLE
  5
ABA
330
A02
100
AcDbEntity
  8
Sketch
100
AcDbCircle
 10
37.715704340
 20
-126.103944000
 30
0.000000000
 40
0.400000000
  0
CIRCLE
  5
ABB
330
A02
100
AcDbEntity
  8
Sketch
100
AcDbCircle
 10
42.718527680
 20
-125.221811000
 30
0.000000000
 40
0.400000000
  0
ENDSEC
  0
SECTION
  2
OBJECTS
  0
DICTIONARY
  5
F000
330
0
100
AcDbDictionary
  3
ACAD_GROUP
350
F001
  0
DICTIONARY
  5
F001
330
F000
100
AcDbDictionary
  0
ENDSEC
  0
EOF