999
FreeCAD v1.1 44987 (Git)
  0
SECTION
  2
HEADER
  9
$ACADVER
  1
AC1014
  9
$ACADMAINTVER
 70
     9
  9
$DWGCODEPAGE
  3
ANSI_1252
  9
$TEXTSTYLE
  7
STANDARD
  9
$DIMSTYLE
  2
STANDARD
  9
$DIMTXSTY
  7
STANDARD
  9
$CMLSTYLE
  2
STANDARD
  9
$LUNITS
 70
2
  9
$INSUNITS
 70
4
  9
$PEXTMAX
 10
50
 20
50
 30
50
  9
$PEXTMIN
 10
0
 20
0
 30
0
  9
$HANDSEED
  5
FFFF
  0
ENDSEC
  0
SECTION
  2
CLASSES
  0
CLASS
  1
ACDBDICTIONARYWDFLT
  2
AcDbDictionaryWithDefault
  3
ObjectDBX Classes
 90
        0
280
     0
281
     0
  0
CLASS
  1
XRECORD
  2
AcDbXrecord
  3
ObjectDBX Classes
 90
        0
280
     0
281
     0
  0
CLASS
  1
LWPOLYLINE
  2
AcDbPolyline
  3
ObjectDBX Classes
 90
        0
280
     0
281
     1
  0
ENDSEC
  0
SECTION
  2
TABLES
  0
TABLE
  2
VPORT
  5
20
330
0
100
AcDbSymbolTable
 70
     1
  0
VPORT
  5
21
330
20
100
AcDbSymbolTableRecord
100
AcDbViewportTableRecord
  2
*ACTIVE
 70
     0
  0
ENDTAB
  0
TABLE
  2
LTYPE
  5
22
330
0
100
AcDbSymbolTable
 70
     1
  0
LTYPE
  5
23
330
21
100
AcDbSymbolTableRecord
100
AcDbLinetypeTableRecord
  2
BYBLOCK
 70
     0
  3

 72
    65
 73
     0
 40
0.0
  0
LTYPE
  5
24
330
21
100
AcDbSymbolTableRecord
100
AcDbLinetypeTableRecord
  2
BYLAYER
 70
     0
  3

 72
    65
 73
     0
 40
0.0
  0
LTYPE
  5
25
330
21
100
AcDbSymbolTableRecord
100
AcDbLinetypeTableRecord
  2
CONTINUOUS
 70
     0
  3
Solid line
 72
    65
 73
     0
 40
0.0
  0
ENDTAB
  0
TABLE
  2
LAYER
  5
ABC
330
0
100
AcDbSymbolTable
 70
3
  0
LAYER
  5
ABD
330
ABC
100
AcDbSymbolTableRecord
100
AcDbLayerTableRecord
  2
0
 70
   0
 62
   7
  6
CONTINUOUS
  0
LAYER
  5
ABE
330
ABC
100
AcDbSymbolTableRecord
100
AcDbLayerTableRecord
  2
none
 70
    0
 62
    7
  6
CONTINUOUS
  0
LAYER
  5
ABF
330
ABC
100
AcDbSymbolTableRecord
100
AcDbLayerTableRecord
  2
Sketch
 70
    0
 62
    7
  6
CONTINUOUS
  0
ENDTAB
  0
TABLE
  2
STYLE
  5
70
330
0
100
AcDbSymbolTable
 70
     2
  0
STYLE
  5
71
330
70
100
AcDbSymbolTableRecord
100
AcDbTextStyleTableRecord
  2
STANDARD
 70
     0
 40
0.0
 41
1.0
 50
0.0
 71
     0
 42
2.5
  3
arial.ttf
  4

  0
STYLE
  5
72
330
70
100
AcDbSymbolTableRecord
100
AcDbTextStyleTableRecord
  2
ANNOTATIVE
 70
     0
 40
0.0
 41
1.0
 50
0.0
 71
     0
 42
2.5
  3
arial.ttf
  4

  0
ENDTAB
  0
TABLE
  2
VIEW
  5
73
330
0
100
AcDbSymbolTable
 70
     0
  0
ENDTAB
  0
TABLE
  2
UCS
  5
74
330
0
100
AcDbSymbolTable
 70
     0
  0
ENDTAB
  0
TABLE
  2
APPID
  5
75
330
0
100
AcDbSymbolTable
 70
     2
  0
APPID
  5
76
330
75
100
AcDbSymbolTableRecord
100
AcDbRegAppTableRecord
  2
ACAD
 70
     0
  0
APPID
  5
77
330
75
100
AcDbSymbolTableRecord
100
AcDbRegAppTableRecord
  2
ACADANNOTATIVE
 70
     0
  0
ENDTAB
  0
TABLE
  2
DIMSTYLE
  5
78
330
0
100
AcDbSymbolTable
 70
     2
  0
DIMSTYLE
105
79
330
78
100
AcDbSymbolTableRecord
100
AcDbDimStyleTableRecord
  2
STANDARD
 70
     0
  3

  4

  5

  6

  7

 40
0.0
 41
2.5
 42
0.625
 43
3.75
 44
1.25
 45
0.0
 46
0.0
 47
0.0
 48
0.0
140
2.5
141
2.5
142
0.0
143
0.03937007874016
144
1.0
145
0.0
146
1.0
147
0.625
 71
     0
 72
     0
 73
     0
 74
     0
 75
     0
 76
     0
 77
     1
 78
     8
170
     0
171
     3
172
     1
173
     0
174
     0
175
     0
176
     0
177
     0
178
     0
270
     2
271
     2
272
     2
273
     2
274
     3
340
71
275
     0
280
     0
281
     0
282
     0
283
     0
284
     8
285
     0
286
     0
287
     3
288
     0
  0
ENDTAB
  0
TABLE
  2
BLOCK_RECORD
  5
A01
330
0
100
AcDbSymbolTable
  70
5
  0
BLOCK_RECORD
  5
A02
330
A01
100
AcDbSymbolTableRecord
100
AcDbBlockTableRecord
  2
*MODEL_SPACE
  0
BLOCK_RECORD
  5
A03
330
A01
100
AcDbSymbolTableRecord
100
AcDbBlockTableRecord
  2
*PAPER_SPACE
  0
ENDTAB
  0
ENDSEC
  0
SECTION
  2
BLOCKS
  0
BLOCK
  5
A04
330
A02
100
AcDbEntity
  8
0
100
AcDbBlockBegin
  2
*MODEL_SPACE
 70
   0
 10
0
 20
0
 30
0
  3
*MODEL_SPACE
  1
 
  0
ENDBLK
  5
A05
330
A02
100
AcDbEntity
  8
0
100
AcDbBlockEnd
  0
BLOCK
  5
A06
330
A03
100
AcDbEntity
 67
1
  8
0
100
AcDbBlockBegin
  2
*PAPER_SPACE
 70
   0
 10
0
 20
0
 30
0
  3
*PAPER_SPACE
  1
 
  0
ENDBLK
  5
A07
330
A03
100
AcDbEntity
 67
    1
  8
0
100
AcDbBlockEnd
  0
ENDSEC
  0
SECTION
  2
ENTITIES
  0
CIRCLE
  5
A08
330
A02
100
AcDbEntity
  8
Sketch
100
AcDbCircle
 10
-43.358654756
 20
-124.245123986
 30
0.000000000
 40
0.400000000
  0
CIRCLE
  5
A09
330
A02
100
AcDbEntity
  8
Sketch
100
AcDbCircle
 10
-40.857243064
 20
-124.686190357
 30
0.000000000
 40
0.400000000
  0
CIRCLE
  5
A0A
330
A02
100
AcDbEntity
  8
Sketch
100
AcDbCircle
 10
-38.355831371
 20
-125.127256728
 30
0.000000000
 40
0.400000000
  0
CIRCLE
  5
A0B
330
A02
100
AcDbEntity
  8
Sketch
100
AcDbCircle
 10
-35.854419678
 20
-125.568323099
 30
0.000000000
 40
0.400000000
  0
CIRCLE
  5
A0C
330
A02
100
AcDbEntity
  8
Sketch
100
AcDbCircle
 10
-33.353007986
 20
-126.009389471
 30
0.000000000
 40
0.400000000
  0
CIRCLE
  5
A0D
330
A02
100
AcDbEntity
  8
Sketch
100
AcDbCircle
 10
-12.544020164
 20
-129.678575465
 30
0.000000000
 40
0.400000000
  0
CIRCLE
  5
A0E
330
A02
100
AcDbEntity
  8
Sketch
100
AcDbCircle
 10
-10.042608472
 20
-130.119641836
 30
0.000000000
 40
0.400000000
  0
CIRCLE
  5
A0F
330
A02
100
AcDbEntity
  8
Sketch
100
AcDbCircle
 10
-5.039785087
 20
-131.001774579
 30
0.000000000
 40
0.400000000
  0
CIRCLE
  5
A10
330
A02
100
AcDbEntity
  8
Sketch
100
AcDbCircle
 10
-7.541196779
 20
-130.560708207
 30
0.000000000
 40
0.400000000
  0
CIRCLE
  5
A11
330
A02
100
AcDbEntity
  8
Sketch
100
AcDbCircle
 10
-2.538373394
 20
-131.442840950
 30
0.000000000
 40
0.400000000
  0
CIRCLE
  5
A12
330
A02
100
AcDbEntity
  8
Sketch
100
AcDbCircle
 10
-83.238142577
 20
-101.922693000
 30
0.000000000
 40
0.400000000
  0
CIRCLE
  5
A13
330
A02
100
AcDbEntity
  8
Sketch
100
AcDbCircle
 10
-81.038438051
 20
-103.192693000
 30
0.000000000
 40
0.400000000
  0
CIRCLE
  5
A14
330
A02
100
AcDbEntity
  8
Sketch
100
AcDbCircle
 10
-78.838733526
 20
-104.462693000
 30
0.000000000
 40
0.400000000
  0
CIRCLE
  5
A15
330
A02
100
AcDbEntity
  8
Sketch
100
AcDbCircle
 10
-76.639029000
 20
-105.732693000
 30
0.000000000
 40
0.400000000
  0
CIRCLE
  5
A16
330
A02
100
AcDbEntity
  8
Sketch
100
AcDbCircle
 10
-74.439324474
 20
-107.002693000
 30
0.000000000
 40
0.400000000
  0
CIRCLE
  5
A17
330
A02
100
AcDbEntity
  8
Sketch
100
AcDbCircle
 10
-56.140208051
 20
-117.567693000
 30
0.000000000
 40
0.400000000
  0
CIRCLE
  5
A18
330
A02
100
AcDbEntity
  8
Sketch
100
AcDbCircle
 10
-53.940503526
 20
-118.837693000
 30
0.000000000
 40
0.400000000
  0
CIRCLE
  5
A19
330
A02
100
AcDbEntity
  8
Sketch
100
AcDbCircle
 10
-49.541094474
 20
-121.377693000
 30
0.000000000
 40
0.400000000
  0
CIRCLE
  5
A1A
330
A02
100
AcDbEntity
  8
Sketch
100
AcDbCircle
 10
-51.740799000
 20
-120.107693000
 30
0.000000000
 40
0.400000000
  0
CIRCLE
  5
A1B
330
A02
100
AcDbEntity
  8
Sketch
100
AcDbCircle
 10
-47.341389949
 20
-122.647693000
 30
0.000000000
 40
0.400000000
  0
CIRCLE
  5
A1C
330
A02
100
AcDbEntity
  8
Sketch
100
AcDbCircle
 10
-113.077883000
 20
-67.306881510
 30
0.000000000
 40
0.400000000
  0
CIRCLE
  5
A1D
330
A02
100
AcDbEntity
  8
Sketch
100
AcDbCircle
 10
-111.445202000
 20
-69.252634000
 30
0.000000000
 40
0.400000000
  0
CIRCLE
  5
A1E
330
A02
100
AcDbEntity
  8
Sketch
100
AcDbCircle
 10
-109.812522000
 20
-71.198387329
 30
0.000000000
 40
0.400000000
  0
CIRCLE
  5
A1F
330
A02
100
AcDbEntity
  8
Sketch
100
AcDbCircle
 10
-108.179841000
 20
-73.144139819
 30
0.000000000
 40
0.400000000
  0
CIRCLE
  5
A20
330
A02
100
AcDbEntity
  8
Sketch
100
AcDbCircle
 10
-106.547161000
 20
-75.089893148
 30
0.000000000
 40
0.400000000
  0
CIRCLE
  5
A21
330
A02
100
AcDbEntity
  8
Sketch
100
AcDbCircle
 10
-92.965058000
 20
-91.276411362
 30
0.000000000
 40
0.400000000
  0
CIRCLE
  5
A22
330
A02
100
AcDbEntity
  8
Sketch
100
AcDbCircle
 10
-91.332378000
 20
-93.222164691
 30
0.000000000
 40
0.400000000
  0
CIRCLE
  5
A23
330
A02
100
AcDbEntity
  8
Sketch
100
AcDbCircle
 10
-88.067017000
 20
-97.113670510
 30
0.000000000
 40
0.400000000
  0
CIRCLE
  5
A24
330
A02
100
AcDbEntity
  8
Sketch
100
AcDbCircle
 10
-89.699697000
 20
-95.167917181
 30
0.000000000
 40
0.400000000
  0
CIRCLE
  5
A25
330
A02
100
AcDbEntity
  8
Sketch
100
AcDbCircle
 10
-86.434336000
 20
-99.059423000
 30
0.000000000
 40
0.400000000
  0
CIRCLE
  5
A26
330
A02
100
AcDbEntity
  8
Sketch
100
AcDbCircle
 10
-129.278761000
 20
-24.572865367
 30
0.000000000
 40
0.400000000
  0
CIRCLE
  5
A27
330
A02
100
AcDbEntity
  8
Sketch
100
AcDbCircle
 10
-128.410030000
 20
-26.959684683
 30
0.000000000
 40
0.400000000
  0
CIRCLE
  5
A28
330
A02
100
AcDbEntity
  8
Sketch
100
AcDbCircle
 10
-127.541299000
 20
-29.346504000
 30
0.000000000
 40
0.400000000
  0
CIRCLE
  5
A29
330
A02
100
AcDbEntity
  8
Sketch
100
AcDbCircle
 10
-126.672568000
 20
-31.733323317
 30
0.000000000
 40
0.400000000
  0
CIRCLE
  5
A2A
330
A02
100
AcDbEntity
  8
Sketch
100
AcDbCircle
 10
-125.803836000
 20
-34.120142269
 30
0.000000000
 40
0.400000000
  0
CIRCLE
  5
A2B
330
A02
100
AcDbEntity
  8
Sketch
100
AcDbCircle
 10
-118.576951000
 20
-53.975847414
 30
0.000000000
 40
0.400000000
  0
CIRCLE
  5
A2C
330
A02
100
AcDbEntity
  8
Sketch
100
AcDbCircle
 10
-117.708220000
 20
-56.362666731
 30
0.000000000
 40
0.400000000
  0
CIRCLE
  5
A2D
330
A02
100
AcDbEntity
  8
Sketch
100
AcDbCircle
 10
-115.970757000
 20
-61.136305000
 30
0.000000000
 40
0.400000000
  0
CIRCLE
  5
A2E
330
A02
100
AcDbEntity
  8
Sketch
100
AcDbCircle
 10
-116.839488000
 20
-58.749485683
 30
0.000000000
 40
0.400000000
  0
CIRCLE
  5
A2F
330
A02
100
AcDbEntity
  8
Sketch
100
AcDbCircle
 10
-115.102026000
 20
-63.523124317
 30
0.000000000
 40
0.400000000
  0
CIRCLE
  5
A30
330
A02
100
AcDbEntity
  8
Sketch
100
AcDbCircle
 10
-129.886713000
 20
21.125000000
 30
0.000000000
 40
0.400000000
  0
CIRCLE
  5
A31
330
A02
100
AcDbEntity
  8
Sketch
100
AcDbCircle
 10
-129.886713000
 20
18.585000000
 30
0.000000000
 40
0.400000000
  0
CIRCLE
  5
A32
330
A02
100
AcDbEntity
  8
Sketch
100
AcDbCircle
 10
-129.886713000
 20
16.045000000
 30
0.000000000
 40
0.400000000
  0
CIRCLE
  5
A33
330
A02
100
AcDbEntity
  8
Sketch
100
AcDbCircle
 10
-129.886713000
 20
13.505000000
 30
0.000000000
 40
0.400000000
  0
CIRCLE
  5
A34
330
A02
100
AcDbEntity
  8
Sketch
100
AcDbCircle
 10
-129.886713000
 20
10.965000000
 30
0.000000000
 40
0.400000000
  0
CIRCLE
  5
A35
330
A02
100
AcDbEntity
  8
Sketch
100
AcDbCircle
 10
-129.886713000
 20
-10.165000000
 30
0.000000000
 40
0.400000000
  0
CIRCLE
  5
A36
330
A02
100
AcDbEntity
  8
Sketch
100
AcDbCircle
 10
-129.886713000
 20
-12.705000000
 30
0.000000000
 40
0.400000000
  0
CIRCLE
  5
A37
330
A02
100
AcDbEntity
  8
Sketch
100
AcDbCircle
 10
-129.886713000
 20
-17.785000000
 30
0.000000000
 40
0.400000000
  0
CIRCLE
  5
A38
330
A02
100
AcDbEntity
  8
Sketch
100
AcDbCircle
 10
-129.886713000
 20
-15.245000000
 30
0.000000000
 40
0.400000000
  0
CIRCLE
  5
A39
330
A02
100
AcDbEntity
  8
Sketch
100
AcDbCircle
 10
-129.886713000
 20
-20.325000000
 30
0.000000000
 40
0.400000000
  0
CIRCLE
  5
A3A
330
A02
100
AcDbEntity
  8
Sketch
100
AcDbCircle
 10
-114.828410000
 20
64.274878633
 30
0.000000000
 40
0.400000000
  0
CIRCLE
  5
A3B
330
A02
100
AcDbEntity
  8
Sketch
100
AcDbCircle
 10
-115.697141000
 20
61.888059317
 30
0.000000000
 40
0.400000000
  0
CIRCLE
  5
A3C
330
A02
100
AcDbEntity
  8
Sketch
100
AcDbCircle
 10
-116.565872000
 20
59.501240000
 30
0.000000000
 40
0.400000000
  0
CIRCLE
  5
A3D
330
A02
100
AcDbEntity
  8
Sketch
100
AcDbCircle
 10
-117.434603000
 20
57.114420683
 30
0.000000000
 40
0.400000000
  0
CIRCLE
  5
A3E
330
A02
100
AcDbEntity
  8
Sketch
100
AcDbCircle
 10
-118.303335000
 20
54.727601731
 30
0.000000000
 40
0.400000000
  0
CIRCLE
  5
A3F
330
A02
100
AcDbEntity
  8
Sketch
100
AcDbCircle
 10
-125.530220000
 20
34.871896586
 30
0.000000000
 40
0.400000000
  0
CIRCLE
  5
A40
330
A02
100
AcDbEntity
  8
Sketch
100
AcDbCircle
 10
-126.398951000
 20
32.485077269
 30
0.000000000
 40
0.400000000
  0
CIRCLE
  5
A41
330
A02
100
AcDbEntity
  8
Sketch
100
AcDbCircle
 10
-128.136414000
 20
27.711439000
 30
0.000000000
 40
0.400000000
  0
CIRCLE
  5
A42
330
A02
100
AcDbEntity
  8
Sketch
100
AcDbCircle
 10
-127.267683000
 20
30.098258317
 30
0.000000000
 40
0.400000000
  0
CIRCLE
  5
A43
330
A02
100
AcDbEntity
  8
Sketch
100
AcDbCircle
 10
-129.005145000
 20
25.324619683
 30
0.000000000
 40
0.400000000
  0
CIRCLE
  5
A44
330
A02
100
AcDbEntity
  8
Sketch
100
AcDbCircle
 10
-85.920106000
 20
99.672258490
 30
0.000000000
 40
0.400000000
  0
CIRCLE
  5
A45
330
A02
100
AcDbEntity
  8
Sketch
100
AcDbCircle
 10
-87.552787000
 20
97.726506000
 30
0.000000000
 40
0.400000000
  0
CIRCLE
  5
A46
330
A02
100
AcDbEntity
  8
Sketch
100
AcDbCircle
 10
-89.185467000
 20
95.780752671
 30
0.000000000
 40
0.400000000
  0
CIRCLE
  5
A47
330
A02
100
AcDbEntity
  8
Sketch
100
AcDbCircle
 10
-90.818148000
 20
93.835000181
 30
0.000000000
 40
0.400000000
  0
CIRCLE
  5
A48
330
A02
100
AcDbEntity
  8
Sketch
100
AcDbCircle
 10
-92.450828000
 20
91.889246852
 30
0.000000000
 40
0.400000000
  0
CIRCLE
  5
A49
330
A02
100
AcDbEntity
  8
Sketch
100
AcDbCircle
 10
-106.032931000
 20
75.702728000
 30
0.000000000
 40
0.400000000
  0
CIRCLE
  5
A4A
330
A02
100
AcDbEntity
  8
Sketch
100
AcDbCircle
 10
-107.665611000
 20
73.756974671
 30
0.000000000
 40
0.400000000
  0
CIRCLE
  5
A4B
330
A02
100
AcDbEntity
  8
Sketch
100
AcDbCircle
 10
-110.930972000
 20
69.865468852
 30
0.000000000
 40
0.400000000
  0
CIRCLE
  5
A4C
330
A02
100
AcDbEntity
  8
Sketch
100
AcDbCircle
 10
-109.298292000
 20
71.811222181
 30
0.000000000
 40
0.400000000
  0
CIRCLE
  5
A4D
330
A02
100
AcDbEntity
  8
Sketch
100
AcDbCircle
 10
-112.563653000
 20
67.919716362
 30
0.000000000
 40
0.400000000
  0
CIRCLE
  5
A4E
330
A02
100
AcDbEntity
  8
Sketch
100
AcDbCircle
 10
-46.648569898
 20
123.047693000
 30
0.000000000
 40
0.400000000
  0
CIRCLE
  5
A4F
330
A02
100
AcDbEntity
  8
Sketch
100
AcDbCircle
 10
-48.848274423
 20
121.777693000
 30
0.000000000
 40
0.400000000
  0
CIRCLE
  5
A50
330
A02
100
AcDbEntity
  8
Sketch
100
AcDbCircle
 10
-51.047978949
 20
120.507693000
 30
0.000000000
 40
0.400000000
  0
CIRCLE
  5
A51
330
A02
100
AcDbEntity
  8
Sketch
100
AcDbCircle
 10
-53.247683474
 20
119.237693000
 30
0.000000000
 40
0.400000000
  0
CIRCLE
  5
A52
330
A02
100
AcDbEntity
  8
Sketch
100
AcDbCircle
 10
-55.447388000
 20
117.967693000
 30
0.000000000
 40
0.400000000
  0
CIRCLE
  5
A53
330
A02
100
AcDbEntity
  8
Sketch
100
AcDbCircle
 10
-73.746504423
 20
107.402693000
 30
0.000000000
 40
0.400000000
  0
CIRCLE
  5
A54
330
A02
100
AcDbEntity
  8
Sketch
100
AcDbCircle
 10
-75.946208949
 20
106.132693000
 30
0.000000000
 40
0.400000000
  0
CIRCLE
  5
A55
330
A02
100
AcDbEntity
  8
Sketch
100
AcDbCircle
 10
-80.345618000
 20
103.592693000
 30
0.000000000
 40
0.400000000
  0
CIRCLE
  5
A56
330
A02
100
AcDbEntity
  8
Sketch
100
AcDbCircle
 10
-78.145913474
 20
104.862693000
 30
0.000000000
 40
0.400000000
  0
CIRCLE
  5
A57
330
A02
100
AcDbEntity
  8
Sketch
100
AcDbCircle
 10
-82.545322526
 20
102.322693000
 30
0.000000000
 40
0.400000000
  0
CIRCLE
  5
A58
330
A02
100
AcDbEntity
  8
Sketch
100
AcDbCircle
 10
-1.750527000
 20
131.581759000
 30
0.000000000
 40
0.400000000
  0
CIRCLE
  5
A59
330
A02
100
AcDbEntity
  8
Sketch
100
AcDbCircle
 10
-4.251938758
 20
131.140693000
 30
0.000000000
 40
0.400000000
  0
CIRCLE
  5
A5A
330
A02
100
AcDbEntity
  8
Sketch
100
AcDbCircle
 10
-6.753350516
 20
130.699627000
 30
0.000000000
 40
0.400000000
  0
CIRCLE
  5
A5B
330
A02
100
AcDbEntity
  8
Sketch
100
AcDbCircle
 10
-9.254762098
 20
130.258560000
 30
0.000000000
 40
0.400000000
  0
CIRCLE
  5
A5C
330
A02
100
AcDbEntity
  8
Sketch
100
AcDbCircle
 10
-11.756173856
 20
129.817494000
 30
0.000000000
 40
0.400000000
  0
CIRCLE
  5
A5D
330
A02
100
AcDbEntity
  8
Sketch
100
AcDbCircle
 10
-32.565162144
 20
126.148308000
 30
0.000000000
 40
0.400000000
  0
CIRCLE
  5
A5E
330
A02
100
AcDbEntity
  8
Sketch
100
AcDbCircle
 10
-35.066573902
 20
125.707242000
 30
0.000000000
 40
0.400000000
  0
CIRCLE
  5
A5F
330
A02
100
AcDbEntity
  8
Sketch
100
AcDbCircle
 10
-40.069397242
 20
124.825109000
 30
0.000000000
 40
0.400000000
  0
CIRCLE
  5
A60
330
A02
100
AcDbEntity
  8
Sketch
100
AcDbCircle
 10
-37.567985484
 20
125.266175000
 30
0.000000000
 40
0.400000000
  0
CIRCLE
  5
A61
330
A02
100
AcDbEntity
  8
Sketch
100
AcDbCircle
 10
-42.570809000
 20
124.384043000
 30
0.000000000
 40
0.400000000
  0
CIRCLE
  5
A62
330
A02
100
AcDbEntity
  8
Sketch
100
AcDbCircle
 10
43.358654340
 20
124.245124000
 30
0.000000000
 40
0.400000000
  0
CIRCLE
  5
A63
330
A02
100
AcDbEntity
  8
Sketch
100
AcDbCircle
 10
40.857242582
 20
124.686190000
 30
0.000000000
 40
0.400000000
  0
CIRCLE
  5
A64
330
A02
100
AcDbEntity
  8
Sketch
100
AcDbCircle
 10
38.355831000
 20
125.127257000
 30
0.000000000
 40
0.400000000
  0
CIRCLE
  5
A65
330
A02
100
AcDbEntity
  8
Sketch
100
AcDbCircle
 10
35.854419242
 20
125.568323000
 30
0.000000000
 40
0.400000000
  0
CIRCLE
  5
A66
330
A02
100
AcDbEntity
  8
Sketch
100
AcDbCircle
 10
33.353007484
 20
126.009389000
 30
0.000000000
 40
0.400000000
  0
CIRCLE
  5
A67
330
A02
100
AcDbEntity
  8
Sketch
100
AcDbCircle
 10
12.544019582
 20
129.678575000
 30
0.000000000
 40
0.400000000
  0
CIRCLE
  5
A68
330
A02
100
AcDbEntity
  8
Sketch
100
AcDbCircle
 10
10.042608000
 20
130.119642000
 30
0.000000000
 40
0.400000000
  0
CIRCLE
  5
A69
330
A02
100
AcDbEntity
  8
Sketch
100
AcDbCircle
 10
5.039784660
 20
131.001775000
 30
0.000000000
 40
0.400000000
  0
CIRCLE
  5
A6A
330
A02
100
AcDbEntity
  8
Sketch
100
AcDbCircle
 10
7.541196242
 20
130.560708000
 30
0.000000000
 40
0.400000000
  0
CIRCLE
  5
A6B
330
A02
100
AcDbEntity
  8
Sketch
100
AcDbCircle
 10
2.538372902
 20
131.442841000
 30
0.000000000
 40
0.400000000
  0
CIRCLE
  5
A6C
330
A02
100
AcDbEntity
  8
Sketch
100
AcDbCircle
 10
83.238142577
 20
101.922693000
 30
0.000000000
 40
0.400000000
  0
CIRCLE
  5
A6D
330
A02
100
AcDbEntity
  8
Sketch
100
AcDbCircle
 10
81.038438051
 20
103.192693000
 30
0.000000000
 40
0.400000000
  0
CIRCLE
  5
A6E
330
A02
100
AcDbEntity
  8
Sketch
100
AcDbCircle
 10
78.838733526
 20
104.462693000
 30
0.000000000
 40
0.400000000
  0
CIRCLE
  5
A6F
330
A02
100
AcDbEntity
  8
Sketch
100
AcDbCircle
 10
76.639029000
 20
105.732693000
 30
0.000000000
 40
0.400000000
  0
CIRCLE
  5
A70
330
A02
100
AcDbEntity
  8
Sketch
100
AcDbCircle
 10
74.439324474
 20
107.002693000
 30
0.000000000
 40
0.400000000
  0
CIRCLE
  5
A71
330
A02
100
AcDbEntity
  8
Sketch
100
AcDbCircle
 10
56.140208000
 20
117.567693000
 30
0.000000000
 40
0.400000000
  0
CIRCLE
  5
A72
330
A02
100
AcDbEntity
  8
Sketch
100
AcDbCircle
 10
53.940503474
 20
118.837693000
 30
0.000000000
 40
0.400000000
  0
CIRCLE
  5
A73
330
A02
100
AcDbEntity
  8
Sketch
100
AcDbCircle
 10
49.541094423
 20
121.377693000
 30
0.000000000
 40
0.400000000
  0
CIRCLE
  5
A74
330
A02
100
AcDbEntity
  8
Sketch
100
AcDbCircle
 10
51.740798949
 20
120.107693000
 30
0.000000000
 40
0.400000000
  0
CIRCLE
  5
A75
330
A02
100
AcDbEntity
  8
Sketch
100
AcDbCircle
 10
47.341389898
 20
122.647693000
 30
0.000000000
 40
0.400000000
  0
CIRCLE
  5
A76
330
A02
100
AcDbEntity
  8
Sketch
100
AcDbCircle
 10
113.077883000
 20
67.306881000
 30
0.000000000
 40
0.400000000
  0
CIRCLE
  5
A77
330
A02
100
AcDbEntity
  8
Sketch
100
AcDbCircle
 10
111.445202000
 20
69.252633490
 30
0.000000000
 40
0.400000000
  0
CIRCLE
  5
A78
330
A02
100
AcDbEntity
  8
Sketch
100
AcDbCircle
 10
109.812522000
 20
71.198386819
 30
0.000000000
 40
0.400000000
  0
CIRCLE
  5
A79
330
A02
100
AcDbEntity
  8
Sketch
100
AcDbCircle
 10
108.179841000
 20
73.144139309
 30
0.000000000
 40
0.400000000
  0
CIRCLE
  5
A7A
330
A02
100
AcDbEntity
  8
Sketch
100
AcDbCircle
 10
106.547161000
 20
75.089892638
 30
0.000000000
 40
0.400000000
  0
CIRCLE
  5
A7B
330
A02
100
AcDbEntity
  8
Sketch
100
AcDbCircle
 10
92.965058000
 20
91.276411362
 30
0.000000000
 40
0.400000000
  0
CIRCLE
  5
A7C
330
A02
100
AcDbEntity
  8
Sketch
100
AcDbCircle
 10
91.332378000
 20
93.222164691
 30
0.000000000
 40
0.400000000
  0
CIRCLE
  5
A7D
330
A02
100
AcDbEntity
  8
Sketch
100
AcDbCircle
 10
88.067017000
 20
97.113670510
 30
0.000000000
 40
0.400000000
  0
CIRCLE
  5
A7E
330
A02
100
AcDbEntity
  8
Sketch
100
AcDbCircle
 10
89.699697000
 20
95.167917181
 30
0.000000000
 40
0.400000000
  0
CIRCLE
  5
A7F
330
A02
100
AcDbEntity
  8
Sketch
100
AcDbCircle
 10
86.434336000
 20
99.059423000
 30
0.000000000
 40
0.400000000
  0
CIRCLE
  5
A80
330
A02
100
AcDbEntity
  8
Sketch
100
AcDbCircle
 10
129.278761000
 20
24.572866000
 30
0.000000000
 40
0.400000000
  0
CIRCLE
  5
A81
330
A02
100
AcDbEntity
  8
Sketch
100
AcDbCircle
 10
128.410030000
 20
26.959685317
 30
0.000000000
 40
0.400000000
  0
CIRCLE
  5
A82
330
A02
100
AcDbEntity
  8
Sketch
100
AcDbCircle
 10
127.541299000
 20
29.346504633
 30
0.000000000
 40
0.400000000
  0
CIRCLE
  5
A83
330
A02
100
AcDbEntity
  8
Sketch
100
AcDbCircle
 10
126.672568000
 20
31.733323950
 30
0.000000000
 40
0.400000000
  0
CIRCLE
  5
A84
330
A02
100
AcDbEntity
  8
Sketch
100
AcDbCircle
 10
125.803836000
 20
34.120142902
 30
0.000000000
 40
0.400000000
  0
CIRCLE
  5
A85
330
A02
100
AcDbEntity
  8
Sketch
100
AcDbCircle
 10
118.576951000
 20
53.975848098
 30
0.000000000
 40
0.400000000
  0
CIRCLE
  5
A86
330
A02
100
AcDbEntity
  8
Sketch
100
AcDbCircle
 10
117.708220000
 20
56.362667414
 30
0.000000000
 40
0.400000000
  0
CIRCLE
  5
A87
330
A02
100
AcDbEntity
  8
Sketch
100
AcDbCircle
 10
115.970757000
 20
61.136305683
 30
0.000000000
 40
0.400000000
  0
CIRCLE
  5
A88
330
A02
100
AcDbEntity
  8
Sketch
100
AcDbCircle
 10
116.839488000
 20
58.749486367
 30
0.000000000
 40
0.400000000
  0
CIRCLE
  5
A89
330
A02
100
AcDbEntity
  8
Sketch
100
AcDbCircle
 10
115.102026000
 20
63.523125000
 30
0.000000000
 40
0.400000000
  0
CIRCLE
  5
A8A
330
A02
100
AcDbEntity
  8
Sketch
100
AcDbCircle
 10
129.886713000
 20
-21.125000000
 30
0.000000000
 40
0.400000000
  0
CIRCLE
  5
A8B
330
A02
100
AcDbEntity
  8
Sketch
100
AcDbCircle
 10
129.886713000
 20
-18.585000000
 30
0.000000000
 40
0.400000000
  0
CIRCLE
  5
A8C
330
A02
100
AcDbEntity
  8
Sketch
100
AcDbCircle
 10
129.886713000
 20
-16.045000000
 30
0.000000000
 40
0.400000000
  0
CIRCLE
  5
A8D
330
A02
100
AcDbEntity
  8
Sketch
100
AcDbCircle
 10
129.886713000
 20
-13.505000000
 30
0.000000000
 40
0.400000000
  0
CIRCLE
  5
A8E
330
A02
100
AcDbEntity
  8
Sketch
100
AcDbCircle
 10
129.886713000
 20
-10.965000000
 30
0.000000000
 40
0.400000000
  0
CIRCLE
  5
A8F
330
A02
100
AcDbEntity
  8
Sketch
100
AcDbCircle
 10
129.886713000
 20
10.165000000
 30
0.000000000
 40
0.400000000
  0
CIRCLE
  5
A90
330
A02
100
AcDbEntity
  8
Sketch
100
AcDbCircle
 10
129.886713000
 20
12.705000000
 30
0.000000000
 40
0.400000000
  0
CIRCLE
  5
A91
330
A02
100
AcDbEntity
  8
Sketch
100
AcDbCircle
 10
129.886713000
 20
17.785000000
 30
0.000000000
 40
0.400000000
  0
CIRCLE
  5
A92
330
A02
100
AcDbEntity
  8
Sketch
100
AcDbCircle
 10
129.886713000
 20
15.245000000
 30
0.000000000
 40
0.400000000
  0
CIRCLE
  5
A93
330
A02
100
AcDbEntity
  8
Sketch
100
AcDbCircle
 10
129.886713000
 20
20.325000000
 30
0.000000000
 40
0.400000000
  0
CIRCLE
  5
A94
330
A02
100
AcDbEntity
  8
Sketch
100
AcDbCircle
 10
114.828410000
 20
-64.274878633
 30
0.000000000
 40
0.400000000
  0
CIRCLE
  5
A95
330
A02
100
AcDbEntity
  8
Sketch
100
AcDbCircle
 10
115.697141000
 20
-61.888059317
 30
0.000000000
 40
0.400000000
  0
CIRCLE
  5
A96
330
A02
100
AcDbEntity
  8
Sketch
100
AcDbCircle
 10
116.565872000
 20
-59.501240000
 30
0.000000000
 40
0.400000000
  0
CIRCLE
  5
A97
330
A02
100
AcDbEntity
  8
Sketch
100
AcDbCircle
 10
117.434604000
 20
-57.114421047
 30
0.000000000
 40
0.400000000
  0
CIRCLE
  5
A98
330
A02
100
AcDbEntity
  8
Sketch
100
AcDbCircle
 10
118.303335000
 20
-54.727601731
 30
0.000000000
 40
0.400000000
  0
CIRCLE
  5
A99
330
A02
100
AcDbEntity
  8
Sketch
100
AcDbCircle
 10
125.530220000
 20
-34.871896902
 30
0.000000000
 40
0.400000000
  0
CIRCLE
  5
A9A
330
A02
100
AcDbEntity
  8
Sketch
100
AcDbCircle
 10
126.398951000
 20
-32.485077586
 30
0.000000000
 40
0.400000000
  0
CIRCLE
  5
A9B
330
A02
100
AcDbEntity
  8
Sketch
100
AcDbCircle
 10
128.136414000
 20
-27.711439317
 30
0.000000000
 40
0.400000000
  0
CIRCLE
  5
A9C
330
A02
100
AcDbEntity
  8
Sketch
100
AcDbCircle
 10
127.267683000
 20
-30.098258633
 30
0.000000000
 40
0.400000000
  0
CIRCLE
  5
A9D
330
A02
100
AcDbEntity
  8
Sketch
100
AcDbCircle
 10
129.005145000
 20
-25.324620000
 30
0.000000000
 40
0.400000000
  0
CIRCLE
  5
A9E
330
A02
100
AcDbEntity
  8
Sketch
100
AcDbCircle
 10
85.920106000
 20
-99.672258000
 30
0.000000000
 40
0.400000000
  0
CIRCLE
  5
A9F
330
A02
100
AcDbEntity
  8
Sketch
100
AcDbCircle
 10
87.552787000
 20
-97.726505510
 30
0.000000000
 40
0.400000000
  0
CIRCLE
  5
AA0
330
A02
100
AcDbEntity
  8
Sketch
100
AcDbCircle
 10
89.185467000
 20
-95.780752181
 30
0.000000000
 40
0.400000000
  0
CIRCLE
  5
AA1
330
A02
100
AcDbEntity
  8
Sketch
100
AcDbCircle
 10
90.818148000
 20
-93.834999691
 30
0.000000000
 40
0.400000000
  0
CIRCLE
  5
AA2
330
A02
100
AcDbEntity
  8
Sketch
100
AcDbCircle
 10
92.450828000
 20
-91.889246362
 30
0.000000000
 40
0.400000000
  0
CIRCLE
  5
AA3
330
A02
100
AcDbEntity
  8
Sketch
100
AcDbCircle
 10
106.032931000
 20
-75.702728329
 30
0.000000000
 40
0.400000000
  0
CIRCLE
  5
AA4
330
A02
100
AcDbEntity
  8
Sketch
100
AcDbCircle
 10
107.665611000
 20
-73.756975000
 30
0.000000000
 40
0.400000000
  0
CIRCLE
  5
AA5
330
A02
100
AcDbEntity
  8
Sketch
100
AcDbCircle
 10
110.930972000
 20
-69.865469181
 30
0.000000000
 40
0.400000000
  0
CIRCLE
  5
AA6
330
A02
100
AcDbEntity
  8
Sketch
100
AcDbCircle
 10
109.298292000
 20
-71.811222510
 30
0.000000000
 40
0.400000000
  0
CIRCLE
  5
AA7
330
A02
100
AcDbEntity
  8
Sketch
100
AcDbCircle
 10
112.563653000
 20
-67.919716691
 30
0.000000000
 40
0.400000000
  0
CIRCLE
  5
AA8
330
A02
100
AcDbEntity
  8
Sketch
100
AcDbCircle
 10
46.648569949
 20
-123.047693000
 30
0.000000000
 40
0.400000000
  0
CIRCLE
  5
AA9
330
A02
100
AcDbEntity
  8
Sketch
100
AcDbCircle
 10
48.848274474
 20
-121.777693000
 30
0.000000000
 40
0.400000000
  0
CIRCLE
  5
AAA
330
A02
100
AcDbEntity
  8
Sketch
100
AcDbCircle
 10
51.047979000
 20
-120.507693000
 30
0.000000000
 40
0.400000000
  0
CIRCLE
  5
AAB
330
A02
100
AcDbEntity
  8
Sketch
100
AcDbCircle
 10
53.247683526
 20
-119.237693000
 30
0.000000000
 40
0.400000000
  0
CIRCLE
  5
AAC
330
A02
100
AcDbEntity
  8
Sketch
100
AcDbCircle
 10
55.447388051
 20
-117.967693000
 30
0.000000000
 40
0.400000000
  0
CIRCLE
  5
AAD
330
A02
100
AcDbEntity
  8
Sketch
100
AcDbCircle
 10
73.746504474
 20
-107.402693000
 30
0.000000000
 40
0.400000000
  0
CIRCLE
  5
AAE
330
A02
100
AcDbEntity
  8
Sketch
100
AcDbCircle
 10
75.946209000
 20
-106.132693000
 30
0.000000000
 40
0.400000000
  0
CIRCLE
  5
AAF
330
A02
100
AcDbEntity
  8
Sketch
100
AcDbCircle
 10
80.345618051
 20
-103.592693000
 30
0.000000000
 40
0.400000000
  0
CIRCLE
  5
AB0
330
A02
100
AcDbEntity
  8
Sketch
100
AcDbCircle
 10
78.145913526
 20
-104.862693000
 30
0.000000000
 40
0.400000000
  0
CIRCLE
  5
AB1
330
A02
100
AcDbEntity
  8
Sketch
100
AcDbCircle
 10
82.545322577
 20
-102.322693000
 30
0.000000000
 40
0.400000000
  0
CIRCLE
  5
AB2
330
A02
100
AcDbEntity
  8
Sketch
100
AcDbCircle
 10
1.750527242
 20
-131.581759000
 30
0.000000000
 40
0.400000000
  0
CIRCLE
  5
AB3
330
A02
100
AcDbEntity
  8
Sketch
100
AcDbCircle
 10
4.251939000
 20
-131.140693000
 30
0.000000000
 40
0.400000000
  0
CIRCLE
  5
AB4
330
A02
100
AcDbEntity
  8
Sketch
100
AcDbCircle
 10
6.753350758
 20
-130.699627000
 30
0.000000000
 40
0.400000000
  0
CIRCLE
  5
AB5
330
A02
100
AcDbEntity
  8
Sketch
100
AcDbCircle
 10
9.254762340
 20
-130.258560000
 30
0.000000000
 40
0.400000000
  0
CIRCLE
  5
AB6
330
A02
100
AcDbEntity
  8
Sketch
100
AcDbCircle
 10
11.756174098
 20
-129.817494000
 30
0.000000000
 40
0.400000000
  0
CIRCLE
  5
AB7
330
A02
100
AcDbEntity
  8
Sketch
100
AcDbCircle
 10
32.565162000
 20
-126.148308000
 30
0.000000000
 40
0.400000000
  0
CIRCLE
  5
AB8
330
A02
100
AcDbEntity
  8
Sketch
100
AcDbCircle
 10
35.066573758
 20
-125.707242000
 30
0.000000000
 40
0.400000000
  0
CIRCLE
  5
AB9
330
A02
100
AcDbEntity
  8
Sketch
100
AcDbCircle
 10
40.069397098
 20
-124.825109000
 30
0.000000000
 40
0.400000000
  0
CIRCLE
  5
ABA
330
A02
100
AcDbEntity
  8
Sketch
100
AcDbCircle
 10
37.567985340
 20
-125.266175000
 30
0.000000000
 40
0.400000000
  0
CIRCLE
  5
ABB
330
A02
100
AcDbEntity
  8
Sketch
100
AcDbCircle
 10
42.570808680
 20
-124.384042000
 30
0.000000000
 40
0.400000000
  0
ENDSEC
  0
SECTION
  2
OBJECTS
  0
DICTIONARY
  5
F000
330
0
100
AcDbDictionary
  3
ACAD_GROUP
350
F001
  0
DICTIONARY
  5
F001
330
F000
100
AcDbDictionary
  0
ENDSEC
  0
EOF