999
FreeCAD v1.1 44987 (Git)
  0
SECTION
  2
HEADER
  9
$ACADVER
  1
AC1014
  9
$ACADMAINTVER
 70
     9
  9
$DWGCODEPAGE
  3
ANSI_1252
  9
$TEXTSTYLE
  7
STANDARD
  9
$DIMSTYLE
  2
STANDARD
  9
$DIMTXSTY
  7
STANDARD
  9
$CMLSTYLE
  2
STANDARD
  9
$LUNITS
 70
2
  9
$INSUNITS
 70
4
  9
$PEXTMAX
 10
50
 20
50
 30
50
  9
$PEXTMIN
 10
0
 20
0
 30
0
  9
$HANDSEED
  5
FFFF
  0
ENDSEC
  0
SECTION
  2
CLASSES
  0
CLASS
  1
ACDBDICTIONARYWDFLT
  2
AcDbDictionaryWithDefault
  3
ObjectDBX Classes
 90
        0
280
     0
281
     0
  0
CLASS
  1
XRECORD
  2
AcDbXrecord
  3
ObjectDBX Classes
 90
        0
280
     0
281
     0
  0
CLASS
  1
LWPOLYLINE
  2
AcDbPolyline
  3
ObjectDBX Classes
 90
        0
280
     0
281
     1
  0
ENDSEC
  0
SECTION
  2
TABLES
  0
TABLE
  2
VPORT
  5
20
330
0
100
AcDbSymbolTable
 70
     1
  0
VPORT
  5
21
330
20
100
AcDbSymbolTableRecord
100
AcDbViewportTableRecord
  2
*ACTIVE
 70
     0
  0
ENDTAB
  0
TABLE
  2
LTYPE
  5
22
330
0
100
AcDbSymbolTable
 70
     1
  0
LTYPE
  5
23
330
21
100
AcDbSymbolTableRecord
100
AcDbLinetypeTableRecord
  2
BYBLOCK
 70
     0
  3

 72
    65
 73
     0
 40
0.0
  0
LTYPE
  5
24
330
21
100
AcDbSymbolTableRecord
100
AcDbLinetypeTableRecord
  2
BYLAYER
 70
     0
  3

 72
    65
 73
     0
 40
0.0
  0
LTYPE
  5
25
330
21
100
AcDbSymbolTableRecord
100
AcDbLinetypeTableRecord
  2
CONTINUOUS
 70
     0
  3
Solid line
 72
    65
 73
     0
 40
0.0
  0
ENDTAB
  0
TABLE
  2
LAYER
  5
ABC
330
0
100
AcDbSymbolTable
 70
3
  0
LAYER
  5
ABD
330
ABC
100
AcDbSymbolTableRecord
100
AcDbLayerTableRecord
  2
0
 70
   0
 62
   7
  6
CONTINUOUS
  0
LAYER
  5
ABE
330
ABC
100
AcDbSymbolTableRecord
100
AcDbLayerTableRecord
  2
none
 70
    0
 62
    7
  6
CONTINUOUS
  0
LAYER
  5
ABF
330
ABC
100
AcDbSymbolTableRecord
100
AcDbLayerTableRecord
  2
Sketch
 70
    0
 62
    7
  6
CONTINUOUS
  0
ENDTAB
  0
TABLE
  2
STYLE
  5
70
330
0
100
AcDbSymbolTable
 70
     2
  0
STYLE
  5
71
330
70
100
AcDbSymbolTableRecord
100
AcDbTextStyleTableRecord
  2
STANDARD
 70
     0
 40
0.0
 41
1.0
 50
0.0
 71
     0
 42
2.5
  3
arial.ttf
  4

  0
STYLE
  5
72
330
70
100
AcDbSymbolTableRecord
100
AcDbTextStyleTableRecord
  2
ANNOTATIVE
 70
     0
 40
0.0
 41
1.0
 50
0.0
 71
     0
 42
2.5
  3
arial.ttf
  4

  0
ENDTAB
  0
TABLE
  2
VIEW
  5
73
330
0
100
AcDbSymbolTable
 70
     0
  0
ENDTAB
  0
TABLE
  2
UCS
  5
74
330
0
100
AcDbSymbolTable
 70
     0
  0
ENDTAB
  0
TABLE
  2
APPID
  5
75
330
0
100
AcDbSymbolTable
 70
     2
  0
APPID
  5
76
330
75
100
AcDbSymbolTableRecord
100
AcDbRegAppTableRecord
  2
ACAD
 70
     0
  0
APPID
  5
77
330
75
100
AcDbSymbolTableRecord
100
AcDbRegAppTableRecord
  2
ACADANNOTATIVE
 70
     0
  0
ENDTAB
  0
TABLE
  2
DIMSTYLE
  5
78
330
0
100
AcDbSymbolTable
 70
     2
  0
DIMSTYLE
105
79
330
78
100
AcDbSymbolTableRecord
100
AcDbDimStyleTableRecord
  2
STANDARD
 70
     0
  3

  4

  5

  6

  7

 40
0.0
 41
2.5
 42
0.625
 43
3.75
 44
1.25
 45
0.0
 46
0.0
 47
0.0
 48
0.0
140
2.5
141
2.5
142
0.0
143
0.03937007874016
144
1.0
145
0.0
146
1.0
147
0.625
 71
     0
 72
     0
 73
     0
 74
     0
 75
     0
 76
     0
 77
     1
 78
     8
170
     0
171
     3
172
     1
173
     0
174
     0
175
     0
176
     0
177
     0
178
     0
270
     2
271
     2
272
     2
273
     2
274
     3
340
71
275
     0
280
     0
281
     0
282
     0
283
     0
284
     8
285
     0
286
     0
287
     3
288
     0
  0
ENDTAB
  0
TABLE
  2
BLOCK_RECORD
  5
A01
330
0
100
AcDbSymbolTable
  70
5
  0
BLOCK_RECORD
  5
A02
330
A01
100
AcDbSymbolTableRecord
100
AcDbBlockTableRecord
  2
*MODEL_SPACE
  0
BLOCK_RECORD
  5
A03
330
A01
100
AcDbSymbolTableRecord
100
AcDbBlockTableRecord
  2
*PAPER_SPACE
  0
ENDTAB
  0
ENDSEC
  0
SECTION
  2
BLOCKS
  0
BLOCK
  5
A04
330
A02
100
AcDbEntity
  8
0
100
AcDbBlockBegin
  2
*MODEL_SPACE
 70
   0
 10
0
 20
0
 30
0
  3
*MODEL_SPACE
  1
 
  0
ENDBLK
  5
A05
330
A02
100
AcDbEntity
  8
0
100
AcDbBlockEnd
  0
BLOCK
  5
A06
330
A03
100
AcDbEntity
 67
1
  8
0
100
AcDbBlockBegin
  2
*PAPER_SPACE
 70
   0
 10
0
 20
0
 30
0
  3
*PAPER_SPACE
  1
 
  0
ENDBLK
  5
A07
330
A03
100
AcDbEntity
 67
    1
  8
0
100
AcDbBlockEnd
  0
ENDSEC
  0
SECTION
  2
ENTITIES
  0
CIRCLE
  5
A08
330
A02
100
AcDbEntity
  8
Sketch
100
AcDbCircle
 10
-43.457135532
 20
-124.803636216
 30
0.000000000
 40
0.400000000
  0
CIRCLE
  5
A09
330
A02
100
AcDbEntity
  8
Sketch
100
AcDbCircle
 10
-40.955723839
 20
-125.244702587
 30
0.000000000
 40
0.400000000
  0
CIRCLE
  5
A0A
330
A02
100
AcDbEntity
  8
Sketch
100
AcDbCircle
 10
-38.454312146
 20
-125.685768959
 30
0.000000000
 40
0.400000000
  0
CIRCLE
  5
A0B
330
A02
100
AcDbEntity
  8
Sketch
100
AcDbCircle
 10
-35.952900454
 20
-126.126835330
 30
0.000000000
 40
0.400000000
  0
CIRCLE
  5
A0C
330
A02
100
AcDbEntity
  8
Sketch
100
AcDbCircle
 10
-33.451488761
 20
-126.567901701
 30
0.000000000
 40
0.400000000
  0
CIRCLE
  5
A0D
330
A02
100
AcDbEntity
  8
Sketch
100
AcDbCircle
 10
-12.642500940
 20
-130.237087695
 30
0.000000000
 40
0.400000000
  0
CIRCLE
  5
A0E
330
A02
100
AcDbEntity
  8
Sketch
100
AcDbCircle
 10
-10.141089247
 20
-130.678154067
 30
0.000000000
 40
0.400000000
  0
CIRCLE
  5
A0F
330
A02
100
AcDbEntity
  8
Sketch
100
AcDbCircle
 10
-5.138265862
 20
-131.560286809
 30
0.000000000
 40
0.400000000
  0
CIRCLE
  5
A10
330
A02
100
AcDbEntity
  8
Sketch
100
AcDbCircle
 10
-7.639677554
 20
-131.119220438
 30
0.000000000
 40
0.400000000
  0
CIRCLE
  5
A11
330
A02
100
AcDbEntity
  8
Sketch
100
AcDbCircle
 10
-2.636854169
 20
-132.001353180
 30
0.000000000
 40
0.400000000
  0
CIRCLE
  5
A12
330
A02
100
AcDbEntity
  8
Sketch
100
AcDbCircle
 10
-83.521707526
 20
-102.413840000
 30
0.000000000
 40
0.400000000
  0
CIRCLE
  5
A13
330
A02
100
AcDbEntity
  8
Sketch
100
AcDbCircle
 10
-81.322003000
 20
-103.683840000
 30
0.000000000
 40
0.400000000
  0
CIRCLE
  5
A14
330
A02
100
AcDbEntity
  8
Sketch
100
AcDbCircle
 10
-79.122298474
 20
-104.953840000
 30
0.000000000
 40
0.400000000
  0
CIRCLE
  5
A15
330
A02
100
AcDbEntity
  8
Sketch
100
AcDbCircle
 10
-76.922593949
 20
-106.223840000
 30
0.000000000
 40
0.400000000
  0
CIRCLE
  5
A16
330
A02
100
AcDbEntity
  8
Sketch
100
AcDbCircle
 10
-74.722889423
 20
-107.493840000
 30
0.000000000
 40
0.400000000
  0
CIRCLE
  5
A17
330
A02
100
AcDbEntity
  8
Sketch
100
AcDbCircle
 10
-56.423772526
 20
-118.058840000
 30
0.000000000
 40
0.400000000
  0
CIRCLE
  5
A18
330
A02
100
AcDbEntity
  8
Sketch
100
AcDbCircle
 10
-54.224068000
 20
-119.328840000
 30
0.000000000
 40
0.400000000
  0
CIRCLE
  5
A19
330
A02
100
AcDbEntity
  8
Sketch
100
AcDbCircle
 10
-49.824658949
 20
-121.868840000
 30
0.000000000
 40
0.400000000
  0
CIRCLE
  5
A1A
330
A02
100
AcDbEntity
  8
Sketch
100
AcDbCircle
 10
-52.024363474
 20
-120.598840000
 30
0.000000000
 40
0.400000000
  0
CIRCLE
  5
A1B
330
A02
100
AcDbEntity
  8
Sketch
100
AcDbCircle
 10
-47.624954423
 20
-123.138840000
 30
0.000000000
 40
0.400000000
  0
CIRCLE
  5
A1C
330
A02
100
AcDbEntity
  8
Sketch
100
AcDbCircle
 10
-113.512328000
 20
-67.671422852
 30
0.000000000
 40
0.400000000
  0
CIRCLE
  5
A1D
330
A02
100
AcDbEntity
  8
Sketch
100
AcDbCircle
 10
-111.879648000
 20
-69.617176181
 30
0.000000000
 40
0.400000000
  0
CIRCLE
  5
A1E
330
A02
100
AcDbEntity
  8
Sketch
100
AcDbCircle
 10
-110.246967000
 20
-71.562928671
 30
0.000000000
 40
0.400000000
  0
CIRCLE
  5
A1F
330
A02
100
AcDbEntity
  8
Sketch
100
AcDbCircle
 10
-108.614287000
 20
-73.508682000
 30
0.000000000
 40
0.400000000
  0
CIRCLE
  5
A20
330
A02
100
AcDbEntity
  8
Sketch
100
AcDbCircle
 10
-106.981606000
 20
-75.454434490
 30
0.000000000
 40
0.400000000
  0
CIRCLE
  5
A21
330
A02
100
AcDbEntity
  8
Sketch
100
AcDbCircle
 10
-93.399504000
 20
-91.640954510
 30
0.000000000
 40
0.400000000
  0
CIRCLE
  5
A22
330
A02
100
AcDbEntity
  8
Sketch
100
AcDbCircle
 10
-91.766823000
 20
-93.586707000
 30
0.000000000
 40
0.400000000
  0
CIRCLE
  5
A23
330
A02
100
AcDbEntity
  8
Sketch
100
AcDbCircle
 10
-88.501462000
 20
-97.478212819
 30
0.000000000
 40
0.400000000
  0
CIRCLE
  5
A24
330
A02
100
AcDbEntity
  8
Sketch
100
AcDbCircle
 10
-90.134143000
 20
-95.532460329
 30
0.000000000
 40
0.400000000
  0
CIRCLE
  5
A25
330
A02
100
AcDbEntity
  8
Sketch
100
AcDbCircle
 10
-86.868782000
 20
-99.423966148
 30
0.000000000
 40
0.400000000
  0
CIRCLE
  5
A26
330
A02
100
AcDbEntity
  8
Sketch
100
AcDbCircle
 10
-129.811687000
 20
-24.766834734
 30
0.000000000
 40
0.400000000
  0
CIRCLE
  5
A27
330
A02
100
AcDbEntity
  8
Sketch
100
AcDbCircle
 10
-128.942956000
 20
-27.153654050
 30
0.000000000
 40
0.400000000
  0
CIRCLE
  5
A28
330
A02
100
AcDbEntity
  8
Sketch
100
AcDbCircle
 10
-128.074225000
 20
-29.540473367
 30
0.000000000
 40
0.400000000
  0
CIRCLE
  5
A29
330
A02
100
AcDbEntity
  8
Sketch
100
AcDbCircle
 10
-127.205494000
 20
-31.927292683
 30
0.000000000
 40
0.400000000
  0
CIRCLE
  5
A2A
330
A02
100
AcDbEntity
  8
Sketch
100
AcDbCircle
 10
-126.336763000
 20
-34.314112000
 30
0.000000000
 40
0.400000000
  0
CIRCLE
  5
A2B
330
A02
100
AcDbEntity
  8
Sketch
100
AcDbCircle
 10
-119.109877000
 20
-54.169817000
 30
0.000000000
 40
0.400000000
  0
CIRCLE
  5
A2C
330
A02
100
AcDbEntity
  8
Sketch
100
AcDbCircle
 10
-118.241146000
 20
-56.556636317
 30
0.000000000
 40
0.400000000
  0
CIRCLE
  5
A2D
330
A02
100
AcDbEntity
  8
Sketch
100
AcDbCircle
 10
-116.503683000
 20
-61.330274586
 30
0.000000000
 40
0.400000000
  0
CIRCLE
  5
A2E
330
A02
100
AcDbEntity
  8
Sketch
100
AcDbCircle
 10
-117.372415000
 20
-58.943455633
 30
0.000000000
 40
0.400000000
  0
CIRCLE
  5
A2F
330
A02
100
AcDbEntity
  8
Sketch
100
AcDbCircle
 10
-115.634952000
 20
-63.717093902
 30
0.000000000
 40
0.400000000
  0
CIRCLE
  5
A30
330
A02
100
AcDbEntity
  8
Sketch
100
AcDbCircle
 10
-130.453841000
 20
21.125000000
 30
0.000000000
 40
0.400000000
  0
CIRCLE
  5
A31
330
A02
100
AcDbEntity
  8
Sketch
100
AcDbCircle
 10
-130.453841000
 20
18.585000000
 30
0.000000000
 40
0.400000000
  0
CIRCLE
  5
A32
330
A02
100
AcDbEntity
  8
Sketch
100
AcDbCircle
 10
-130.453841000
 20
16.045000000
 30
0.000000000
 40
0.400000000
  0
CIRCLE
  5
A33
330
A02
100
AcDbEntity
  8
Sketch
100
AcDbCircle
 10
-130.453841000
 20
13.505000000
 30
0.000000000
 40
0.400000000
  0
CIRCLE
  5
A34
330
A02
100
AcDbEntity
  8
Sketch
100
AcDbCircle
 10
-130.453841000
 20
10.965000000
 30
0.000000000
 40
0.400000000
  0
CIRCLE
  5
A35
330
A02
100
AcDbEntity
  8
Sketch
100
AcDbCircle
 10
-130.453841000
 20
-10.165000000
 30
0.000000000
 40
0.400000000
  0
CIRCLE
  5
A36
330
A02
100
AcDbEntity
  8
Sketch
100
AcDbCircle
 10
-130.453841000
 20
-12.705000000
 30
0.000000000
 40
0.400000000
  0
CIRCLE
  5
A37
330
A02
100
AcDbEntity
  8
Sketch
100
AcDbCircle
 10
-130.453841000
 20
-17.785000000
 30
0.000000000
 40
0.400000000
  0
CIRCLE
  5
A38
330
A02
100
AcDbEntity
  8
Sketch
100
AcDbCircle
 10
-130.453841000
 20
-15.245000000
 30
0.000000000
 40
0.400000000
  0
CIRCLE
  5
A39
330
A02
100
AcDbEntity
  8
Sketch
100
AcDbCircle
 10
-130.453841000
 20
-20.325000000
 30
0.000000000
 40
0.400000000
  0
CIRCLE
  5
A3A
330
A02
100
AcDbEntity
  8
Sketch
100
AcDbCircle
 10
-115.361336000
 20
64.468848317
 30
0.000000000
 40
0.400000000
  0
CIRCLE
  5
A3B
330
A02
100
AcDbEntity
  8
Sketch
100
AcDbCircle
 10
-116.230067000
 20
62.082029000
 30
0.000000000
 40
0.400000000
  0
CIRCLE
  5
A3C
330
A02
100
AcDbEntity
  8
Sketch
100
AcDbCircle
 10
-117.098798000
 20
59.695209683
 30
0.000000000
 40
0.400000000
  0
CIRCLE
  5
A3D
330
A02
100
AcDbEntity
  8
Sketch
100
AcDbCircle
 10
-117.967530000
 20
57.308390731
 30
0.000000000
 40
0.400000000
  0
CIRCLE
  5
A3E
330
A02
100
AcDbEntity
  8
Sketch
100
AcDbCircle
 10
-118.836261000
 20
54.921571414
 30
0.000000000
 40
0.400000000
  0
CIRCLE
  5
A3F
330
A02
100
AcDbEntity
  8
Sketch
100
AcDbCircle
 10
-126.063146000
 20
35.065865902
 30
0.000000000
 40
0.400000000
  0
CIRCLE
  5
A40
330
A02
100
AcDbEntity
  8
Sketch
100
AcDbCircle
 10
-126.931878000
 20
32.679046950
 30
0.000000000
 40
0.400000000
  0
CIRCLE
  5
A41
330
A02
100
AcDbEntity
  8
Sketch
100
AcDbCircle
 10
-128.669340000
 20
27.905408317
 30
0.000000000
 40
0.400000000
  0
CIRCLE
  5
A42
330
A02
100
AcDbEntity
  8
Sketch
100
AcDbCircle
 10
-127.800609000
 20
30.292227633
 30
0.000000000
 40
0.400000000
  0
CIRCLE
  5
A43
330
A02
100
AcDbEntity
  8
Sketch
100
AcDbCircle
 10
-129.538071000
 20
25.518589000
 30
0.000000000
 40
0.400000000
  0
CIRCLE
  5
A44
330
A02
100
AcDbEntity
  8
Sketch
100
AcDbCircle
 10
-86.354552000
 20
100.036801638
 30
0.000000000
 40
0.400000000
  0
CIRCLE
  5
A45
330
A02
100
AcDbEntity
  8
Sketch
100
AcDbCircle
 10
-87.987232000
 20
98.091048309
 30
0.000000000
 40
0.400000000
  0
CIRCLE
  5
A46
330
A02
100
AcDbEntity
  8
Sketch
100
AcDbCircle
 10
-89.619913000
 20
96.145295819
 30
0.000000000
 40
0.400000000
  0
CIRCLE
  5
A47
330
A02
100
AcDbEntity
  8
Sketch
100
AcDbCircle
 10
-91.252593000
 20
94.199542490
 30
0.000000000
 40
0.400000000
  0
CIRCLE
  5
A48
330
A02
100
AcDbEntity
  8
Sketch
100
AcDbCircle
 10
-92.885274000
 20
92.253790000
 30
0.000000000
 40
0.400000000
  0
CIRCLE
  5
A49
330
A02
100
AcDbEntity
  8
Sketch
100
AcDbCircle
 10
-106.467376000
 20
76.067271329
 30
0.000000000
 40
0.400000000
  0
CIRCLE
  5
A4A
330
A02
100
AcDbEntity
  8
Sketch
100
AcDbCircle
 10
-108.100056000
 20
74.121518000
 30
0.000000000
 40
0.400000000
  0
CIRCLE
  5
A4B
330
A02
100
AcDbEntity
  8
Sketch
100
AcDbCircle
 10
-111.365418000
 20
70.230013020
 30
0.000000000
 40
0.400000000
  0
CIRCLE
  5
A4C
330
A02
100
AcDbEntity
  8
Sketch
100
AcDbCircle
 10
-109.732737000
 20
72.175765510
 30
0.000000000
 40
0.400000000
  0
CIRCLE
  5
A4D
330
A02
100
AcDbEntity
  8
Sketch
100
AcDbCircle
 10
-112.998098000
 20
68.284259691
 30
0.000000000
 40
0.400000000
  0
CIRCLE
  5
A4E
330
A02
100
AcDbEntity
  8
Sketch
100
AcDbCircle
 10
-46.932134000
 20
123.538840000
 30
0.000000000
 40
0.400000000
  0
CIRCLE
  5
A4F
330
A02
100
AcDbEntity
  8
Sketch
100
AcDbCircle
 10
-49.131838526
 20
122.268840000
 30
0.000000000
 40
0.400000000
  0
CIRCLE
  5
A50
330
A02
100
AcDbEntity
  8
Sketch
100
AcDbCircle
 10
-51.331543051
 20
120.998840000
 30
0.000000000
 40
0.400000000
  0
CIRCLE
  5
A51
330
A02
100
AcDbEntity
  8
Sketch
100
AcDbCircle
 10
-53.531247577
 20
119.728840000
 30
0.000000000
 40
0.400000000
  0
CIRCLE
  5
A52
330
A02
100
AcDbEntity
  8
Sketch
100
AcDbCircle
 10
-55.730952102
 20
118.458840000
 30
0.000000000
 40
0.400000000
  0
CIRCLE
  5
A53
330
A02
100
AcDbEntity
  8
Sketch
100
AcDbCircle
 10
-74.030068423
 20
107.893840000
 30
0.000000000
 40
0.400000000
  0
CIRCLE
  5
A54
330
A02
100
AcDbEntity
  8
Sketch
100
AcDbCircle
 10
-76.229772949
 20
106.623840000
 30
0.000000000
 40
0.400000000
  0
CIRCLE
  5
A55
330
A02
100
AcDbEntity
  8
Sketch
100
AcDbCircle
 10
-80.629182000
 20
104.083840000
 30
0.000000000
 40
0.400000000
  0
CIRCLE
  5
A56
330
A02
100
AcDbEntity
  8
Sketch
100
AcDbCircle
 10
-78.429477474
 20
105.353840000
 30
0.000000000
 40
0.400000000
  0
CIRCLE
  5
A57
330
A02
100
AcDbEntity
  8
Sketch
100
AcDbCircle
 10
-82.828886526
 20
102.813840000
 30
0.000000000
 40
0.400000000
  0
CIRCLE
  5
A58
330
A02
100
AcDbEntity
  8
Sketch
100
AcDbCircle
 10
-1.849008320
 20
132.140272000
 30
0.000000000
 40
0.400000000
  0
CIRCLE
  5
A59
330
A02
100
AcDbEntity
  8
Sketch
100
AcDbCircle
 10
-4.350419902
 20
131.699205000
 30
0.000000000
 40
0.400000000
  0
CIRCLE
  5
A5A
330
A02
100
AcDbEntity
  8
Sketch
100
AcDbCircle
 10
-6.851831660
 20
131.258139000
 30
0.000000000
 40
0.400000000
  0
CIRCLE
  5
A5B
330
A02
100
AcDbEntity
  8
Sketch
100
AcDbCircle
 10
-9.353243418
 20
130.817073000
 30
0.000000000
 40
0.400000000
  0
CIRCLE
  5
A5C
330
A02
100
AcDbEntity
  8
Sketch
100
AcDbCircle
 10
-11.854655000
 20
130.376006000
 30
0.000000000
 40
0.400000000
  0
CIRCLE
  5
A5D
330
A02
100
AcDbEntity
  8
Sketch
100
AcDbCircle
 10
-32.663642144
 20
126.706820000
 30
0.000000000
 40
0.400000000
  0
CIRCLE
  5
A5E
330
A02
100
AcDbEntity
  8
Sketch
100
AcDbCircle
 10
-35.165053902
 20
126.265754000
 30
0.000000000
 40
0.400000000
  0
CIRCLE
  5
A5F
330
A02
100
AcDbEntity
  8
Sketch
100
AcDbCircle
 10
-40.167877242
 20
125.383621000
 30
0.000000000
 40
0.400000000
  0
CIRCLE
  5
A60
330
A02
100
AcDbEntity
  8
Sketch
100
AcDbCircle
 10
-37.666465660
 20
125.824688000
 30
0.000000000
 40
0.400000000
  0
CIRCLE
  5
A61
330
A02
100
AcDbEntity
  8
Sketch
100
AcDbCircle
 10
-42.669289000
 20
124.942555000
 30
0.000000000
 40
0.400000000
  0
CIRCLE
  5
A62
330
A02
100
AcDbEntity
  8
Sketch
100
AcDbCircle
 10
43.457135582
 20
124.803636000
 30
0.000000000
 40
0.400000000
  0
CIRCLE
  5
A63
330
A02
100
AcDbEntity
  8
Sketch
100
AcDbCircle
 10
40.955724000
 20
125.244703000
 30
0.000000000
 40
0.400000000
  0
CIRCLE
  5
A64
330
A02
100
AcDbEntity
  8
Sketch
100
AcDbCircle
 10
38.454312242
 20
125.685769000
 30
0.000000000
 40
0.400000000
  0
CIRCLE
  5
A65
330
A02
100
AcDbEntity
  8
Sketch
100
AcDbCircle
 10
35.952900484
 20
126.126835000
 30
0.000000000
 40
0.400000000
  0
CIRCLE
  5
A66
330
A02
100
AcDbEntity
  8
Sketch
100
AcDbCircle
 10
33.451488902
 20
126.567902000
 30
0.000000000
 40
0.400000000
  0
CIRCLE
  5
A67
330
A02
100
AcDbEntity
  8
Sketch
100
AcDbCircle
 10
12.642500758
 20
130.237088000
 30
0.000000000
 40
0.400000000
  0
CIRCLE
  5
A68
330
A02
100
AcDbEntity
  8
Sketch
100
AcDbCircle
 10
10.141089000
 20
130.678154000
 30
0.000000000
 40
0.400000000
  0
CIRCLE
  5
A69
330
A02
100
AcDbEntity
  8
Sketch
100
AcDbCircle
 10
5.138265660
 20
131.560287000
 30
0.000000000
 40
0.400000000
  0
CIRCLE
  5
A6A
330
A02
100
AcDbEntity
  8
Sketch
100
AcDbCircle
 10
7.639677242
 20
131.119220000
 30
0.000000000
 40
0.400000000
  0
CIRCLE
  5
A6B
330
A02
100
AcDbEntity
  8
Sketch
100
AcDbCircle
 10
2.636853902
 20
132.001353000
 30
0.000000000
 40
0.400000000
  0
CIRCLE
  5
A6C
330
A02
100
AcDbEntity
  8
Sketch
100
AcDbCircle
 10
83.521707102
 20
102.413840000
 30
0.000000000
 40
0.400000000
  0
CIRCLE
  5
A6D
330
A02
100
AcDbEntity
  8
Sketch
100
AcDbCircle
 10
81.322002577
 20
103.683840000
 30
0.000000000
 40
0.400000000
  0
CIRCLE
  5
A6E
330
A02
100
AcDbEntity
  8
Sketch
100
AcDbCircle
 10
79.122298051
 20
104.953840000
 30
0.000000000
 40
0.400000000
  0
CIRCLE
  5
A6F
330
A02
100
AcDbEntity
  8
Sketch
100
AcDbCircle
 10
76.922593526
 20
106.223840000
 30
0.000000000
 40
0.400000000
  0
CIRCLE
  5
A70
330
A02
100
AcDbEntity
  8
Sketch
100
AcDbCircle
 10
74.722889000
 20
107.493840000
 30
0.000000000
 40
0.400000000
  0
CIRCLE
  5
A71
330
A02
100
AcDbEntity
  8
Sketch
100
AcDbCircle
 10
56.423772526
 20
118.058840000
 30
0.000000000
 40
0.400000000
  0
CIRCLE
  5
A72
330
A02
100
AcDbEntity
  8
Sketch
100
AcDbCircle
 10
54.224068000
 20
119.328840000
 30
0.000000000
 40
0.400000000
  0
CIRCLE
  5
A73
330
A02
100
AcDbEntity
  8
Sketch
100
AcDbCircle
 10
49.824658949
 20
121.868840000
 30
0.000000000
 40
0.400000000
  0
CIRCLE
  5
A74
330
A02
100
AcDbEntity
  8
Sketch
100
AcDbCircle
 10
52.024363474
 20
120.598840000
 30
0.000000000
 40
0.400000000
  0
CIRCLE
  5
A75
330
A02
100
AcDbEntity
  8
Sketch
100
AcDbCircle
 10
47.624954423
 20
123.138840000
 30
0.000000000
 40
0.400000000
  0
CIRCLE
  5
A76
330
A02
100
AcDbEntity
  8
Sketch
100
AcDbCircle
 10
113.512328000
 20
67.671423181
 30
0.000000000
 40
0.400000000
  0
CIRCLE
  5
A77
330
A02
100
AcDbEntity
  8
Sketch
100
AcDbCircle
 10
111.879648000
 20
69.617176510
 30
0.000000000
 40
0.400000000
  0
CIRCLE
  5
A78
330
A02
100
AcDbEntity
  8
Sketch
100
AcDbCircle
 10
110.246967000
 20
71.562929000
 30
0.000000000
 40
0.400000000
  0
CIRCLE
  5
A79
330
A02
100
AcDbEntity
  8
Sketch
100
AcDbCircle
 10
108.614287000
 20
73.508682329
 30
0.000000000
 40
0.400000000
  0
CIRCLE
  5
A7A
330
A02
100
AcDbEntity
  8
Sketch
100
AcDbCircle
 10
106.981606000
 20
75.454434819
 30
0.000000000
 40
0.400000000
  0
CIRCLE
  5
A7B
330
A02
100
AcDbEntity
  8
Sketch
100
AcDbCircle
 10
93.399504000
 20
91.640954000
 30
0.000000000
 40
0.400000000
  0
CIRCLE
  5
A7C
330
A02
100
AcDbEntity
  8
Sketch
100
AcDbCircle
 10
91.766823000
 20
93.586706490
 30
0.000000000
 40
0.400000000
  0
CIRCLE
  5
A7D
330
A02
100
AcDbEntity
  8
Sketch
100
AcDbCircle
 10
88.501462000
 20
97.478212309
 30
0.000000000
 40
0.400000000
  0
CIRCLE
  5
A7E
330
A02
100
AcDbEntity
  8
Sketch
100
AcDbCircle
 10
90.134143000
 20
95.532459819
 30
0.000000000
 40
0.400000000
  0
CIRCLE
  5
A7F
330
A02
100
AcDbEntity
  8
Sketch
100
AcDbCircle
 10
86.868782000
 20
99.423965638
 30
0.000000000
 40
0.400000000
  0
CIRCLE
  5
A80
330
A02
100
AcDbEntity
  8
Sketch
100
AcDbCircle
 10
129.811687000
 20
24.766834683
 30
0.000000000
 40
0.400000000
  0
CIRCLE
  5
A81
330
A02
100
AcDbEntity
  8
Sketch
100
AcDbCircle
 10
128.942956000
 20
27.153654000
 30
0.000000000
 40
0.400000000
  0
CIRCLE
  5
A82
330
A02
100
AcDbEntity
  8
Sketch
100
AcDbCircle
 10
128.074225000
 20
29.540473317
 30
0.000000000
 40
0.400000000
  0
CIRCLE
  5
A83
330
A02
100
AcDbEntity
  8
Sketch
100
AcDbCircle
 10
127.205494000
 20
31.927292633
 30
0.000000000
 40
0.400000000
  0
CIRCLE
  5
A84
330
A02
100
AcDbEntity
  8
Sketch
100
AcDbCircle
 10
126.336763000
 20
34.314111950
 30
0.000000000
 40
0.400000000
  0
CIRCLE
  5
A85
330
A02
100
AcDbEntity
  8
Sketch
100
AcDbCircle
 10
119.109877000
 20
54.169817414
 30
0.000000000
 40
0.400000000
  0
CIRCLE
  5
A86
330
A02
100
AcDbEntity
  8
Sketch
100
AcDbCircle
 10
118.241146000
 20
56.556636731
 30
0.000000000
 40
0.400000000
  0
CIRCLE
  5
A87
330
A02
100
AcDbEntity
  8
Sketch
100
AcDbCircle
 10
116.503683000
 20
61.330275000
 30
0.000000000
 40
0.400000000
  0
CIRCLE
  5
A88
330
A02
100
AcDbEntity
  8
Sketch
100
AcDbCircle
 10
117.372415000
 20
58.943456047
 30
0.000000000
 40
0.400000000
  0
CIRCLE
  5
A89
330
A02
100
AcDbEntity
  8
Sketch
100
AcDbCircle
 10
115.634952000
 20
63.717094317
 30
0.000000000
 40
0.400000000
  0
CIRCLE
  5
A8A
330
A02
100
AcDbEntity
  8
Sketch
100
AcDbCircle
 10
130.453841000
 20
-21.125000000
 30
0.000000000
 40
0.400000000
  0
CIRCLE
  5
A8B
330
A02
100
AcDbEntity
  8
Sketch
100
AcDbCircle
 10
130.453841000
 20
-18.585000000
 30
0.000000000
 40
0.400000000
  0
CIRCLE
  5
A8C
330
A02
100
AcDbEntity
  8
Sketch
100
AcDbCircle
 10
130.453841000
 20
-16.045000000
 30
0.000000000
 40
0.400000000
  0
CIRCLE
  5
A8D
330
A02
100
AcDbEntity
  8
Sketch
100
AcDbCircle
 10
130.453841000
 20
-13.505000000
 30
0.000000000
 40
0.400000000
  0
CIRCLE
  5
A8E
330
A02
100
AcDbEntity
  8
Sketch
100
AcDbCircle
 10
130.453841000
 20
-10.965000000
 30
0.000000000
 40
0.400000000
  0
CIRCLE
  5
A8F
330
A02
100
AcDbEntity
  8
Sketch
100
AcDbCircle
 10
130.453841000
 20
10.165000000
 30
0.000000000
 40
0.400000000
  0
CIRCLE
  5
A90
330
A02
100
AcDbEntity
  8
Sketch
100
AcDbCircle
 10
130.453841000
 20
12.705000000
 30
0.000000000
 40
0.400000000
  0
CIRCLE
  5
A91
330
A02
100
AcDbEntity
  8
Sketch
100
AcDbCircle
 10
130.453841000
 20
17.785000000
 30
0.000000000
 40
0.400000000
  0
CIRCLE
  5
A92
330
A02
100
AcDbEntity
  8
Sketch
100
AcDbCircle
 10
130.453841000
 20
15.245000000
 30
0.000000000
 40
0.400000000
  0
CIRCLE
  5
A93
330
A02
100
AcDbEntity
  8
Sketch
100
AcDbCircle
 10
130.453841000
 20
20.325000000
 30
0.000000000
 40
0.400000000
  0
CIRCLE
  5
A94
330
A02
100
AcDbEntity
  8
Sketch
100
AcDbCircle
 10
115.361336000
 20
-64.468848000
 30
0.000000000
 40
0.400000000
  0
CIRCLE
  5
A95
330
A02
100
AcDbEntity
  8
Sketch
100
AcDbCircle
 10
116.230067000
 20
-62.082028683
 30
0.000000000
 40
0.400000000
  0
CIRCLE
  5
A96
330
A02
100
AcDbEntity
  8
Sketch
100
AcDbCircle
 10
117.098798000
 20
-59.695209367
 30
0.000000000
 40
0.400000000
  0
CIRCLE
  5
A97
330
A02
100
AcDbEntity
  8
Sketch
100
AcDbCircle
 10
117.967530000
 20
-57.308390414
 30
0.000000000
 40
0.400000000
  0
CIRCLE
  5
A98
330
A02
100
AcDbEntity
  8
Sketch
100
AcDbCircle
 10
118.836261000
 20
-54.921571098
 30
0.000000000
 40
0.400000000
  0
CIRCLE
  5
A99
330
A02
100
AcDbEntity
  8
Sketch
100
AcDbCircle
 10
126.063146000
 20
-35.065865269
 30
0.000000000
 40
0.400000000
  0
CIRCLE
  5
A9A
330
A02
100
AcDbEntity
  8
Sketch
100
AcDbCircle
 10
126.931878000
 20
-32.679046317
 30
0.000000000
 40
0.400000000
  0
CIRCLE
  5
A9B
330
A02
100
AcDbEntity
  8
Sketch
100
AcDbCircle
 10
128.669340000
 20
-27.905407683
 30
0.000000000
 40
0.400000000
  0
CIRCLE
  5
A9C
330
A02
100
AcDbEntity
  8
Sketch
100
AcDbCircle
 10
127.800609000
 20
-30.292227000
 30
0.000000000
 40
0.400000000
  0
CIRCLE
  5
A9D
330
A02
100
AcDbEntity
  8
Sketch
100
AcDbCircle
 10
129.538071000
 20
-25.518588367
 30
0.000000000
 40
0.400000000
  0
CIRCLE
  5
A9E
330
A02
100
AcDbEntity
  8
Sketch
100
AcDbCircle
 10
86.354552000
 20
-100.036802148
 30
0.000000000
 40
0.400000000
  0
CIRCLE
  5
A9F
330
A02
100
AcDbEntity
  8
Sketch
100
AcDbCircle
 10
87.987232000
 20
-98.091048819
 30
0.000000000
 40
0.400000000
  0
CIRCLE
  5
AA0
330
A02
100
AcDbEntity
  8
Sketch
100
AcDbCircle
 10
89.619913000
 20
-96.145296329
 30
0.000000000
 40
0.400000000
  0
CIRCLE
  5
AA1
330
A02
100
AcDbEntity
  8
Sketch
100
AcDbCircle
 10
91.252593000
 20
-94.199543000
 30
0.000000000
 40
0.400000000
  0
CIRCLE
  5
AA2
330
A02
100
AcDbEntity
  8
Sketch
100
AcDbCircle
 10
92.885274000
 20
-92.253790510
 30
0.000000000
 40
0.400000000
  0
CIRCLE
  5
AA3
330
A02
100
AcDbEntity
  8
Sketch
100
AcDbCircle
 10
106.467376000
 20
-76.067271000
 30
0.000000000
 40
0.400000000
  0
CIRCLE
  5
AA4
330
A02
100
AcDbEntity
  8
Sketch
100
AcDbCircle
 10
108.100056000
 20
-74.121517671
 30
0.000000000
 40
0.400000000
  0
CIRCLE
  5
AA5
330
A02
100
AcDbEntity
  8
Sketch
100
AcDbCircle
 10
111.365418000
 20
-70.230012691
 30
0.000000000
 40
0.400000000
  0
CIRCLE
  5
AA6
330
A02
100
AcDbEntity
  8
Sketch
100
AcDbCircle
 10
109.732737000
 20
-72.175765181
 30
0.000000000
 40
0.400000000
  0
CIRCLE
  5
AA7
330
A02
100
AcDbEntity
  8
Sketch
100
AcDbCircle
 10
112.998098000
 20
-68.284259362
 30
0.000000000
 40
0.400000000
  0
CIRCLE
  5
AA8
330
A02
100
AcDbEntity
  8
Sketch
100
AcDbCircle
 10
46.932133898
 20
-123.538840000
 30
0.000000000
 40
0.400000000
  0
CIRCLE
  5
AA9
330
A02
100
AcDbEntity
  8
Sketch
100
AcDbCircle
 10
49.131838423
 20
-122.268840000
 30
0.000000000
 40
0.400000000
  0
CIRCLE
  5
AAA
330
A02
100
AcDbEntity
  8
Sketch
100
AcDbCircle
 10
51.331542949
 20
-120.998840000
 30
0.000000000
 40
0.400000000
  0
CIRCLE
  5
AAB
330
A02
100
AcDbEntity
  8
Sketch
100
AcDbCircle
 10
53.531247474
 20
-119.728840000
 30
0.000000000
 40
0.400000000
  0
CIRCLE
  5
AAC
330
A02
100
AcDbEntity
  8
Sketch
100
AcDbCircle
 10
55.730952000
 20
-118.458840000
 30
0.000000000
 40
0.400000000
  0
CIRCLE
  5
AAD
330
A02
100
AcDbEntity
  8
Sketch
100
AcDbCircle
 10
74.030068474
 20
-107.893840000
 30
0.000000000
 40
0.400000000
  0
CIRCLE
  5
AAE
330
A02
100
AcDbEntity
  8
Sketch
100
AcDbCircle
 10
76.229773000
 20
-106.623840000
 30
0.000000000
 40
0.400000000
  0
CIRCLE
  5
AAF
330
A02
100
AcDbEntity
  8
Sketch
100
AcDbCircle
 10
80.629182051
 20
-104.083840000
 30
0.000000000
 40
0.400000000
  0
CIRCLE
  5
AB0
330
A02
100
AcDbEntity
  8
Sketch
100
AcDbCircle
 10
78.429477526
 20
-105.353840000
 30
0.000000000
 40
0.400000000
  0
CIRCLE
  5
AB1
330
A02
100
AcDbEntity
  8
Sketch
100
AcDbCircle
 10
82.828886577
 20
-102.813840000
 30
0.000000000
 40
0.400000000
  0
CIRCLE
  5
AB2
330
A02
100
AcDbEntity
  8
Sketch
100
AcDbCircle
 10
1.849007660
 20
-132.140272000
 30
0.000000000
 40
0.400000000
  0
CIRCLE
  5
AB3
330
A02
100
AcDbEntity
  8
Sketch
100
AcDbCircle
 10
4.350419242
 20
-131.699205000
 30
0.000000000
 40
0.400000000
  0
CIRCLE
  5
AB4
330
A02
100
AcDbEntity
  8
Sketch
100
AcDbCircle
 10
6.851831000
 20
-131.258139000
 30
0.000000000
 40
0.400000000
  0
CIRCLE
  5
AB5
330
A02
100
AcDbEntity
  8
Sketch
100
AcDbCircle
 10
9.353242758
 20
-130.817073000
 30
0.000000000
 40
0.400000000
  0
CIRCLE
  5
AB6
330
A02
100
AcDbEntity
  8
Sketch
100
AcDbCircle
 10
11.854654340
 20
-130.376006000
 30
0.000000000
 40
0.400000000
  0
CIRCLE
  5
AB7
330
A02
100
AcDbEntity
  8
Sketch
100
AcDbCircle
 10
32.663642242
 20
-126.706820000
 30
0.000000000
 40
0.400000000
  0
CIRCLE
  5
AB8
330
A02
100
AcDbEntity
  8
Sketch
100
AcDbCircle
 10
35.165054000
 20
-126.265754000
 30
0.000000000
 40
0.400000000
  0
CIRCLE
  5
AB9
330
A02
100
AcDbEntity
  8
Sketch
100
AcDbCircle
 10
40.167877340
 20
-125.383621000
 30
0.000000000
 40
0.400000000
  0
CIRCLE
  5
ABA
330
A02
100
AcDbEntity
  8
Sketch
100
AcDbCircle
 10
37.666465758
 20
-125.824688000
 30
0.000000000
 40
0.400000000
  0
CIRCLE
  5
ABB
330
A02
100
AcDbEntity
  8
Sketch
100
AcDbCircle
 10
42.669289098
 20
-124.942555000
 30
0.000000000
 40
0.400000000
  0
ENDSEC
  0
SECTION
  2
OBJECTS
  0
DICTIONARY
  5
F000
330
0
100
AcDbDictionary
  3
ACAD_GROUP
350
F001
  0
DICTIONARY
  5
F001
330
F000
100
AcDbDictionary
  0
ENDSEC
  0
EOF