999
FreeCAD v1.1 44987 (Git)
  0
SECTION
  2
HEADER
  9
$ACADVER
  1
AC1014
  9
$ACADMAINTVER
 70
     9
  9
$DWGCODEPAGE
  3
ANSI_1252
  9
$TEXTSTYLE
  7
STANDARD
  9
$DIMSTYLE
  2
STANDARD
  9
$DIMTXSTY
  7
STANDARD
  9
$CMLSTYLE
  2
STANDARD
  9
$LUNITS
 70
2
  9
$INSUNITS
 70
4
  9
$PEXTMAX
 10
50
 20
50
 30
50
  9
$PEXTMIN
 10
0
 20
0
 30
0
  9
$HANDSEED
  5
FFFF
  0
ENDSEC
  0
SECTION
  2
CLASSES
  0
CLASS
  1
ACDBDICTIONARYWDFLT
  2
AcDbDictionaryWithDefault
  3
ObjectDBX Classes
 90
        0
280
     0
281
     0
  0
CLASS
  1
XRECORD
  2
AcDbXrecord
  3
ObjectDBX Classes
 90
        0
280
     0
281
     0
  0
CLASS
  1
LWPOLYLINE
  2
AcDbPolyline
  3
ObjectDBX Classes
 90
        0
280
     0
281
     1
  0
ENDSEC
  0
SECTION
  2
TABLES
  0
TABLE
  2
VPORT
  5
20
330
0
100
AcDbSymbolTable
 70
     1
  0
VPORT
  5
21
330
20
100
AcDbSymbolTableRecord
100
AcDbViewportTableRecord
  2
*ACTIVE
 70
     0
  0
ENDTAB
  0
TABLE
  2
LTYPE
  5
22
330
0
100
AcDbSymbolTable
 70
     1
  0
LTYPE
  5
23
330
21
100
AcDbSymbolTableRecord
100
AcDbLinetypeTableRecord
  2
BYBLOCK
 70
     0
  3

 72
    65
 73
     0
 40
0.0
  0
LTYPE
  5
24
330
21
100
AcDbSymbolTableRecord
100
AcDbLinetypeTableRecord
  2
BYLAYER
 70
     0
  3

 72
    65
 73
     0
 40
0.0
  0
LTYPE
  5
25
330
21
100
AcDbSymbolTableRecord
100
AcDbLinetypeTableRecord
  2
CONTINUOUS
 70
     0
  3
Solid line
 72
    65
 73
     0
 40
0.0
  0
ENDTAB
  0
TABLE
  2
LAYER
  5
ABC
330
0
100
AcDbSymbolTable
 70
3
  0
LAYER
  5
ABD
330
ABC
100
AcDbSymbolTableRecord
100
AcDbLayerTableRecord
  2
0
 70
   0
 62
   7
  6
CONTINUOUS
  0
LAYER
  5
ABE
330
ABC
100
AcDbSymbolTableRecord
100
AcDbLayerTableRecord
  2
none
 70
    0
 62
    7
  6
CONTINUOUS
  0
LAYER
  5
ABF
330
ABC
100
AcDbSymbolTableRecord
100
AcDbLayerTableRecord
  2
Sketch
 70
    0
 62
    7
  6
CONTINUOUS
  0
ENDTAB
  0
TABLE
  2
STYLE
  5
70
330
0
100
AcDbSymbolTable
 70
     2
  0
STYLE
  5
71
330
70
100
AcDbSymbolTableRecord
100
AcDbTextStyleTableRecord
  2
STANDARD
 70
     0
 40
0.0
 41
1.0
 50
0.0
 71
     0
 42
2.5
  3
arial.ttf
  4

  0
STYLE
  5
72
330
70
100
AcDbSymbolTableRecord
100
AcDbTextStyleTableRecord
  2
ANNOTATIVE
 70
     0
 40
0.0
 41
1.0
 50
0.0
 71
     0
 42
2.5
  3
arial.ttf
  4

  0
ENDTAB
  0
TABLE
  2
VIEW
  5
73
330
0
100
AcDbSymbolTable
 70
     0
  0
ENDTAB
  0
TABLE
  2
UCS
  5
74
330
0
100
AcDbSymbolTable
 70
     0
  0
ENDTAB
  0
TABLE
  2
APPID
  5
75
330
0
100
AcDbSymbolTable
 70
     2
  0
APPID
  5
76
330
75
100
AcDbSymbolTableRecord
100
AcDbRegAppTableRecord
  2
ACAD
 70
     0
  0
APPID
  5
77
330
75
100
AcDbSymbolTableRecord
100
AcDbRegAppTableRecord
  2
ACADANNOTATIVE
 70
     0
  0
ENDTAB
  0
TABLE
  2
DIMSTYLE
  5
78
330
0
100
AcDbSymbolTable
 70
     2
  0
DIMSTYLE
105
79
330
78
100
AcDbSymbolTableRecord
100
AcDbDimStyleTableRecord
  2
STANDARD
 70
     0
  3

  4

  5

  6

  7

 40
0.0
 41
2.5
 42
0.625
 43
3.75
 44
1.25
 45
0.0
 46
0.0
 47
0.0
 48
0.0
140
2.5
141
2.5
142
0.0
143
0.03937007874016
144
1.0
145
0.0
146
1.0
147
0.625
 71
     0
 72
     0
 73
     0
 74
     0
 75
     0
 76
     0
 77
     1
 78
     8
170
     0
171
     3
172
     1
173
     0
174
     0
175
     0
176
     0
177
     0
178
     0
270
     2
271
     2
272
     2
273
     2
274
     3
340
71
275
     0
280
     0
281
     0
282
     0
283
     0
284
     8
285
     0
286
     0
287
     3
288
     0
  0
ENDTAB
  0
TABLE
  2
BLOCK_RECORD
  5
A01
330
0
100
AcDbSymbolTable
  70
5
  0
BLOCK_RECORD
  5
A02
330
A01
100
AcDbSymbolTableRecord
100
AcDbBlockTableRecord
  2
*MODEL_SPACE
  0
BLOCK_RECORD
  5
A03
330
A01
100
AcDbSymbolTableRecord
100
AcDbBlockTableRecord
  2
*PAPER_SPACE
  0
ENDTAB
  0
ENDSEC
  0
SECTION
  2
BLOCKS
  0
BLOCK
  5
A04
330
A02
100
AcDbEntity
  8
0
100
AcDbBlockBegin
  2
*MODEL_SPACE
 70
   0
 10
0
 20
0
 30
0
  3
*MODEL_SPACE
  1
 
  0
ENDBLK
  5
A05
330
A02
100
AcDbEntity
  8
0
100
AcDbBlockEnd
  0
BLOCK
  5
A06
330
A03
100
AcDbEntity
 67
1
  8
0
100
AcDbBlockBegin
  2
*PAPER_SPACE
 70
   0
 10
0
 20
0
 30
0
  3
*PAPER_SPACE
  1
 
  0
ENDBLK
  5
A07
330
A03
100
AcDbEntity
 67
    1
  8
0
100
AcDbBlockEnd
  0
ENDSEC
  0
SECTION
  2
ENTITIES
  0
CIRCLE
  5
A08
330
A02
100
AcDbEntity
  8
Sketch
100
AcDbCircle
 10
-43.407895144
 20
-124.524380101
 30
0.000000000
 40
0.400000000
  0
CIRCLE
  5
A09
330
A02
100
AcDbEntity
  8
Sketch
100
AcDbCircle
 10
-40.906483451
 20
-124.965446472
 30
0.000000000
 40
0.400000000
  0
CIRCLE
  5
A0A
330
A02
100
AcDbEntity
  8
Sketch
100
AcDbCircle
 10
-38.405071759
 20
-125.406512843
 30
0.000000000
 40
0.400000000
  0
CIRCLE
  5
A0B
330
A02
100
AcDbEntity
  8
Sketch
100
AcDbCircle
 10
-35.903660066
 20
-125.847579215
 30
0.000000000
 40
0.400000000
  0
CIRCLE
  5
A0C
330
A02
100
AcDbEntity
  8
Sketch
100
AcDbCircle
 10
-33.402248373
 20
-126.288645586
 30
0.000000000
 40
0.400000000
  0
CIRCLE
  5
A0D
330
A02
100
AcDbEntity
  8
Sketch
100
AcDbCircle
 10
-12.593260552
 20
-129.957831580
 30
0.000000000
 40
0.400000000
  0
CIRCLE
  5
A0E
330
A02
100
AcDbEntity
  8
Sketch
100
AcDbCircle
 10
-10.091848859
 20
-130.398897951
 30
0.000000000
 40
0.400000000
  0
CIRCLE
  5
A0F
330
A02
100
AcDbEntity
  8
Sketch
100
AcDbCircle
 10
-5.089025474
 20
-131.281030694
 30
0.000000000
 40
0.400000000
  0
CIRCLE
  5
A10
330
A02
100
AcDbEntity
  8
Sketch
100
AcDbCircle
 10
-7.590437167
 20
-130.839964323
 30
0.000000000
 40
0.400000000
  0
CIRCLE
  5
A11
330
A02
100
AcDbEntity
  8
Sketch
100
AcDbCircle
 10
-2.587613782
 20
-131.722097065
 30
0.000000000
 40
0.400000000
  0
CIRCLE
  5
A12
330
A02
100
AcDbEntity
  8
Sketch
100
AcDbCircle
 10
-83.379924577
 20
-102.168267000
 30
0.000000000
 40
0.400000000
  0
CIRCLE
  5
A13
330
A02
100
AcDbEntity
  8
Sketch
100
AcDbCircle
 10
-81.180220051
 20
-103.438267000
 30
0.000000000
 40
0.400000000
  0
CIRCLE
  5
A14
330
A02
100
AcDbEntity
  8
Sketch
100
AcDbCircle
 10
-78.980515526
 20
-104.708267000
 30
0.000000000
 40
0.400000000
  0
CIRCLE
  5
A15
330
A02
100
AcDbEntity
  8
Sketch
100
AcDbCircle
 10
-76.780811000
 20
-105.978267000
 30
0.000000000
 40
0.400000000
  0
CIRCLE
  5
A16
330
A02
100
AcDbEntity
  8
Sketch
100
AcDbCircle
 10
-74.581106474
 20
-107.248267000
 30
0.000000000
 40
0.400000000
  0
CIRCLE
  5
A17
330
A02
100
AcDbEntity
  8
Sketch
100
AcDbCircle
 10
-56.281990526
 20
-117.813267000
 30
0.000000000
 40
0.400000000
  0
CIRCLE
  5
A18
330
A02
100
AcDbEntity
  8
Sketch
100
AcDbCircle
 10
-54.082286000
 20
-119.083267000
 30
0.000000000
 40
0.400000000
  0
CIRCLE
  5
A19
330
A02
100
AcDbEntity
  8
Sketch
100
AcDbCircle
 10
-49.682876949
 20
-121.623267000
 30
0.000000000
 40
0.400000000
  0
CIRCLE
  5
A1A
330
A02
100
AcDbEntity
  8
Sketch
100
AcDbCircle
 10
-51.882581474
 20
-120.353267000
 30
0.000000000
 40
0.400000000
  0
CIRCLE
  5
A1B
330
A02
100
AcDbEntity
  8
Sketch
100
AcDbCircle
 10
-47.483172423
 20
-122.893267000
 30
0.000000000
 40
0.400000000
  0
CIRCLE
  5
A1C
330
A02
100
AcDbEntity
  8
Sketch
100
AcDbCircle
 10
-113.295105000
 20
-67.489152181
 30
0.000000000
 40
0.400000000
  0
CIRCLE
  5
A1D
330
A02
100
AcDbEntity
  8
Sketch
100
AcDbCircle
 10
-111.662425000
 20
-69.434905510
 30
0.000000000
 40
0.400000000
  0
CIRCLE
  5
A1E
330
A02
100
AcDbEntity
  8
Sketch
100
AcDbCircle
 10
-110.029744000
 20
-71.380658000
 30
0.000000000
 40
0.400000000
  0
CIRCLE
  5
A1F
330
A02
100
AcDbEntity
  8
Sketch
100
AcDbCircle
 10
-108.397064000
 20
-73.326411329
 30
0.000000000
 40
0.400000000
  0
CIRCLE
  5
A20
330
A02
100
AcDbEntity
  8
Sketch
100
AcDbCircle
 10
-106.764383000
 20
-75.272163819
 30
0.000000000
 40
0.400000000
  0
CIRCLE
  5
A21
330
A02
100
AcDbEntity
  8
Sketch
100
AcDbCircle
 10
-93.182281000
 20
-91.458683000
 30
0.000000000
 40
0.400000000
  0
CIRCLE
  5
A22
330
A02
100
AcDbEntity
  8
Sketch
100
AcDbCircle
 10
-91.549601000
 20
-93.404436329
 30
0.000000000
 40
0.400000000
  0
CIRCLE
  5
A23
330
A02
100
AcDbEntity
  8
Sketch
100
AcDbCircle
 10
-88.284239000
 20
-97.295941309
 30
0.000000000
 40
0.400000000
  0
CIRCLE
  5
A24
330
A02
100
AcDbEntity
  8
Sketch
100
AcDbCircle
 10
-89.916920000
 20
-95.350188819
 30
0.000000000
 40
0.400000000
  0
CIRCLE
  5
A25
330
A02
100
AcDbEntity
  8
Sketch
100
AcDbCircle
 10
-86.651559000
 20
-99.241694638
 30
0.000000000
 40
0.400000000
  0
CIRCLE
  5
A26
330
A02
100
AcDbEntity
  8
Sketch
100
AcDbCircle
 10
-129.545224000
 20
-24.669850050
 30
0.000000000
 40
0.400000000
  0
CIRCLE
  5
A27
330
A02
100
AcDbEntity
  8
Sketch
100
AcDbCircle
 10
-128.676493000
 20
-27.056669367
 30
0.000000000
 40
0.400000000
  0
CIRCLE
  5
A28
330
A02
100
AcDbEntity
  8
Sketch
100
AcDbCircle
 10
-127.807762000
 20
-29.443488683
 30
0.000000000
 40
0.400000000
  0
CIRCLE
  5
A29
330
A02
100
AcDbEntity
  8
Sketch
100
AcDbCircle
 10
-126.939031000
 20
-31.830308000
 30
0.000000000
 40
0.400000000
  0
CIRCLE
  5
A2A
330
A02
100
AcDbEntity
  8
Sketch
100
AcDbCircle
 10
-126.070299000
 20
-34.217126953
 30
0.000000000
 40
0.400000000
  0
CIRCLE
  5
A2B
330
A02
100
AcDbEntity
  8
Sketch
100
AcDbCircle
 10
-118.843414000
 20
-54.072832000
 30
0.000000000
 40
0.400000000
  0
CIRCLE
  5
A2C
330
A02
100
AcDbEntity
  8
Sketch
100
AcDbCircle
 10
-117.974683000
 20
-56.459651317
 30
0.000000000
 40
0.400000000
  0
CIRCLE
  5
A2D
330
A02
100
AcDbEntity
  8
Sketch
100
AcDbCircle
 10
-116.237220000
 20
-61.233289586
 30
0.000000000
 40
0.400000000
  0
CIRCLE
  5
A2E
330
A02
100
AcDbEntity
  8
Sketch
100
AcDbCircle
 10
-117.105951000
 20
-58.846470269
 30
0.000000000
 40
0.400000000
  0
CIRCLE
  5
A2F
330
A02
100
AcDbEntity
  8
Sketch
100
AcDbCircle
 10
-115.368489000
 20
-63.620108902
 30
0.000000000
 40
0.400000000
  0
CIRCLE
  5
A30
330
A02
100
AcDbEntity
  8
Sketch
100
AcDbCircle
 10
-130.170277000
 20
21.125000000
 30
0.000000000
 40
0.400000000
  0
CIRCLE
  5
A31
330
A02
100
AcDbEntity
  8
Sketch
100
AcDbCircle
 10
-130.170277000
 20
18.585000000
 30
0.000000000
 40
0.400000000
  0
CIRCLE
  5
A32
330
A02
100
AcDbEntity
  8
Sketch
100
AcDbCircle
 10
-130.170277000
 20
16.045000000
 30
0.000000000
 40
0.400000000
  0
CIRCLE
  5
A33
330
A02
100
AcDbEntity
  8
Sketch
100
AcDbCircle
 10
-130.170277000
 20
13.505000000
 30
0.000000000
 40
0.400000000
  0
CIRCLE
  5
A34
330
A02
100
AcDbEntity
  8
Sketch
100
AcDbCircle
 10
-130.170277000
 20
10.965000000
 30
0.000000000
 40
0.400000000
  0
CIRCLE
  5
A35
330
A02
100
AcDbEntity
  8
Sketch
100
AcDbCircle
 10
-130.170277000
 20
-10.165000000
 30
0.000000000
 40
0.400000000
  0
CIRCLE
  5
A36
330
A02
100
AcDbEntity
  8
Sketch
100
AcDbCircle
 10
-130.170277000
 20
-12.705000000
 30
0.000000000
 40
0.400000000
  0
CIRCLE
  5
A37
330
A02
100
AcDbEntity
  8
Sketch
100
AcDbCircle
 10
-130.170277000
 20
-17.785000000
 30
0.000000000
 40
0.400000000
  0
CIRCLE
  5
A38
330
A02
100
AcDbEntity
  8
Sketch
100
AcDbCircle
 10
-130.170277000
 20
-15.245000000
 30
0.000000000
 40
0.400000000
  0
CIRCLE
  5
A39
330
A02
100
AcDbEntity
  8
Sketch
100
AcDbCircle
 10
-130.170277000
 20
-20.325000000
 30
0.000000000
 40
0.400000000
  0
CIRCLE
  5
A3A
330
A02
100
AcDbEntity
  8
Sketch
100
AcDbCircle
 10
-115.094873000
 20
64.371863317
 30
0.000000000
 40
0.400000000
  0
CIRCLE
  5
A3B
330
A02
100
AcDbEntity
  8
Sketch
100
AcDbCircle
 10
-115.963604000
 20
61.985044000
 30
0.000000000
 40
0.400000000
  0
CIRCLE
  5
A3C
330
A02
100
AcDbEntity
  8
Sketch
100
AcDbCircle
 10
-116.832336000
 20
59.598225047
 30
0.000000000
 40
0.400000000
  0
CIRCLE
  5
A3D
330
A02
100
AcDbEntity
  8
Sketch
100
AcDbCircle
 10
-117.701067000
 20
57.211405731
 30
0.000000000
 40
0.400000000
  0
CIRCLE
  5
A3E
330
A02
100
AcDbEntity
  8
Sketch
100
AcDbCircle
 10
-118.569798000
 20
54.824586414
 30
0.000000000
 40
0.400000000
  0
CIRCLE
  5
A3F
330
A02
100
AcDbEntity
  8
Sketch
100
AcDbCircle
 10
-125.796683000
 20
34.968880269
 30
0.000000000
 40
0.400000000
  0
CIRCLE
  5
A40
330
A02
100
AcDbEntity
  8
Sketch
100
AcDbCircle
 10
-126.665415000
 20
32.582061317
 30
0.000000000
 40
0.400000000
  0
CIRCLE
  5
A41
330
A02
100
AcDbEntity
  8
Sketch
100
AcDbCircle
 10
-128.402877000
 20
27.808422683
 30
0.000000000
 40
0.400000000
  0
CIRCLE
  5
A42
330
A02
100
AcDbEntity
  8
Sketch
100
AcDbCircle
 10
-127.534146000
 20
30.195242000
 30
0.000000000
 40
0.400000000
  0
CIRCLE
  5
A43
330
A02
100
AcDbEntity
  8
Sketch
100
AcDbCircle
 10
-129.271608000
 20
25.421603367
 30
0.000000000
 40
0.400000000
  0
CIRCLE
  5
A44
330
A02
100
AcDbEntity
  8
Sketch
100
AcDbCircle
 10
-86.137329000
 20
99.854529819
 30
0.000000000
 40
0.400000000
  0
CIRCLE
  5
A45
330
A02
100
AcDbEntity
  8
Sketch
100
AcDbCircle
 10
-87.770010000
 20
97.908777329
 30
0.000000000
 40
0.400000000
  0
CIRCLE
  5
A46
330
A02
100
AcDbEntity
  8
Sketch
100
AcDbCircle
 10
-89.402690000
 20
95.963024000
 30
0.000000000
 40
0.400000000
  0
CIRCLE
  5
A47
330
A02
100
AcDbEntity
  8
Sketch
100
AcDbCircle
 10
-91.035371000
 20
94.017271510
 30
0.000000000
 40
0.400000000
  0
CIRCLE
  5
A48
330
A02
100
AcDbEntity
  8
Sketch
100
AcDbCircle
 10
-92.668051000
 20
92.071518181
 30
0.000000000
 40
0.400000000
  0
CIRCLE
  5
A49
330
A02
100
AcDbEntity
  8
Sketch
100
AcDbCircle
 10
-106.250154000
 20
75.884999000
 30
0.000000000
 40
0.400000000
  0
CIRCLE
  5
A4A
330
A02
100
AcDbEntity
  8
Sketch
100
AcDbCircle
 10
-107.882834000
 20
73.939245671
 30
0.000000000
 40
0.400000000
  0
CIRCLE
  5
A4B
330
A02
100
AcDbEntity
  8
Sketch
100
AcDbCircle
 10
-111.148195000
 20
70.047739852
 30
0.000000000
 40
0.400000000
  0
CIRCLE
  5
A4C
330
A02
100
AcDbEntity
  8
Sketch
100
AcDbCircle
 10
-109.515515000
 20
71.993493181
 30
0.000000000
 40
0.400000000
  0
CIRCLE
  5
A4D
330
A02
100
AcDbEntity
  8
Sketch
100
AcDbCircle
 10
-112.780876000
 20
68.101987362
 30
0.000000000
 40
0.400000000
  0
CIRCLE
  5
A4E
330
A02
100
AcDbEntity
  8
Sketch
100
AcDbCircle
 10
-46.790352423
 20
123.293266000
 30
0.000000000
 40
0.400000000
  0
CIRCLE
  5
A4F
330
A02
100
AcDbEntity
  8
Sketch
100
AcDbCircle
 10
-48.990056949
 20
122.023266000
 30
0.000000000
 40
0.400000000
  0
CIRCLE
  5
A50
330
A02
100
AcDbEntity
  8
Sketch
100
AcDbCircle
 10
-51.189761474
 20
120.753266000
 30
0.000000000
 40
0.400000000
  0
CIRCLE
  5
A51
330
A02
100
AcDbEntity
  8
Sketch
100
AcDbCircle
 10
-53.389466000
 20
119.483266000
 30
0.000000000
 40
0.400000000
  0
CIRCLE
  5
A52
330
A02
100
AcDbEntity
  8
Sketch
100
AcDbCircle
 10
-55.589170526
 20
118.213266000
 30
0.000000000
 40
0.400000000
  0
CIRCLE
  5
A53
330
A02
100
AcDbEntity
  8
Sketch
100
AcDbCircle
 10
-73.888286949
 20
107.648266000
 30
0.000000000
 40
0.400000000
  0
CIRCLE
  5
A54
330
A02
100
AcDbEntity
  8
Sketch
100
AcDbCircle
 10
-76.087991474
 20
106.378266000
 30
0.000000000
 40
0.400000000
  0
CIRCLE
  5
A55
330
A02
100
AcDbEntity
  8
Sketch
100
AcDbCircle
 10
-80.487400526
 20
103.838266000
 30
0.000000000
 40
0.400000000
  0
CIRCLE
  5
A56
330
A02
100
AcDbEntity
  8
Sketch
100
AcDbCircle
 10
-78.287696000
 20
105.108266000
 30
0.000000000
 40
0.400000000
  0
CIRCLE
  5
A57
330
A02
100
AcDbEntity
  8
Sketch
100
AcDbCircle
 10
-82.687105051
 20
102.568266000
 30
0.000000000
 40
0.400000000
  0
CIRCLE
  5
A58
330
A02
100
AcDbEntity
  8
Sketch
100
AcDbCircle
 10
-1.799768000
 20
131.861016000
 30
0.000000000
 40
0.400000000
  0
CIRCLE
  5
A59
330
A02
100
AcDbEntity
  8
Sketch
100
AcDbCircle
 10
-4.301179582
 20
131.419949000
 30
0.000000000
 40
0.400000000
  0
CIRCLE
  5
A5A
330
A02
100
AcDbEntity
  8
Sketch
100
AcDbCircle
 10
-6.802591340
 20
130.978883000
 30
0.000000000
 40
0.400000000
  0
CIRCLE
  5
A5B
330
A02
100
AcDbEntity
  8
Sketch
100
AcDbCircle
 10
-9.304002922
 20
130.537816000
 30
0.000000000
 40
0.400000000
  0
CIRCLE
  5
A5C
330
A02
100
AcDbEntity
  8
Sketch
100
AcDbCircle
 10
-11.805414680
 20
130.096750000
 30
0.000000000
 40
0.400000000
  0
CIRCLE
  5
A5D
330
A02
100
AcDbEntity
  8
Sketch
100
AcDbCircle
 10
-32.614402902
 20
126.427564000
 30
0.000000000
 40
0.400000000
  0
CIRCLE
  5
A5E
330
A02
100
AcDbEntity
  8
Sketch
100
AcDbCircle
 10
-35.115814660
 20
125.986498000
 30
0.000000000
 40
0.400000000
  0
CIRCLE
  5
A5F
330
A02
100
AcDbEntity
  8
Sketch
100
AcDbCircle
 10
-40.118638000
 20
125.104365000
 30
0.000000000
 40
0.400000000
  0
CIRCLE
  5
A60
330
A02
100
AcDbEntity
  8
Sketch
100
AcDbCircle
 10
-37.617226242
 20
125.545431000
 30
0.000000000
 40
0.400000000
  0
CIRCLE
  5
A61
330
A02
100
AcDbEntity
  8
Sketch
100
AcDbCircle
 10
-42.620049582
 20
124.663298000
 30
0.000000000
 40
0.400000000
  0
CIRCLE
  5
A62
330
A02
100
AcDbEntity
  8
Sketch
100
AcDbCircle
 10
43.407894000
 20
124.524380000
 30
0.000000000
 40
0.400000000
  0
CIRCLE
  5
A63
330
A02
100
AcDbEntity
  8
Sketch
100
AcDbCircle
 10
40.906482418
 20
124.965447000
 30
0.000000000
 40
0.400000000
  0
CIRCLE
  5
A64
330
A02
100
AcDbEntity
  8
Sketch
100
AcDbCircle
 10
38.405070660
 20
125.406513000
 30
0.000000000
 40
0.400000000
  0
CIRCLE
  5
A65
330
A02
100
AcDbEntity
  8
Sketch
100
AcDbCircle
 10
35.903658902
 20
125.847579000
 30
0.000000000
 40
0.400000000
  0
CIRCLE
  5
A66
330
A02
100
AcDbEntity
  8
Sketch
100
AcDbCircle
 10
33.402247320
 20
126.288646000
 30
0.000000000
 40
0.400000000
  0
CIRCLE
  5
A67
330
A02
100
AcDbEntity
  8
Sketch
100
AcDbCircle
 10
12.593259516
 20
129.957832000
 30
0.000000000
 40
0.400000000
  0
CIRCLE
  5
A68
330
A02
100
AcDbEntity
  8
Sketch
100
AcDbCircle
 10
10.091847758
 20
130.398898000
 30
0.000000000
 40
0.400000000
  0
CIRCLE
  5
A69
330
A02
100
AcDbEntity
  8
Sketch
100
AcDbCircle
 10
5.089024418
 20
131.281031000
 30
0.000000000
 40
0.400000000
  0
CIRCLE
  5
A6A
330
A02
100
AcDbEntity
  8
Sketch
100
AcDbCircle
 10
7.590436000
 20
130.839964000
 30
0.000000000
 40
0.400000000
  0
CIRCLE
  5
A6B
330
A02
100
AcDbEntity
  8
Sketch
100
AcDbCircle
 10
2.587612660
 20
131.722097000
 30
0.000000000
 40
0.400000000
  0
CIRCLE
  5
A6C
330
A02
100
AcDbEntity
  8
Sketch
100
AcDbCircle
 10
83.379924102
 20
102.168267000
 30
0.000000000
 40
0.400000000
  0
CIRCLE
  5
A6D
330
A02
100
AcDbEntity
  8
Sketch
100
AcDbCircle
 10
81.180219577
 20
103.438267000
 30
0.000000000
 40
0.400000000
  0
CIRCLE
  5
A6E
330
A02
100
AcDbEntity
  8
Sketch
100
AcDbCircle
 10
78.980515051
 20
104.708267000
 30
0.000000000
 40
0.400000000
  0
CIRCLE
  5
A6F
330
A02
100
AcDbEntity
  8
Sketch
100
AcDbCircle
 10
76.780810526
 20
105.978267000
 30
0.000000000
 40
0.400000000
  0
CIRCLE
  5
A70
330
A02
100
AcDbEntity
  8
Sketch
100
AcDbCircle
 10
74.581106000
 20
107.248267000
 30
0.000000000
 40
0.400000000
  0
CIRCLE
  5
A71
330
A02
100
AcDbEntity
  8
Sketch
100
AcDbCircle
 10
56.281989051
 20
117.813267000
 30
0.000000000
 40
0.400000000
  0
CIRCLE
  5
A72
330
A02
100
AcDbEntity
  8
Sketch
100
AcDbCircle
 10
54.082284526
 20
119.083267000
 30
0.000000000
 40
0.400000000
  0
CIRCLE
  5
A73
330
A02
100
AcDbEntity
  8
Sketch
100
AcDbCircle
 10
49.682875474
 20
121.623267000
 30
0.000000000
 40
0.400000000
  0
CIRCLE
  5
A74
330
A02
100
AcDbEntity
  8
Sketch
100
AcDbCircle
 10
51.882580000
 20
120.353267000
 30
0.000000000
 40
0.400000000
  0
CIRCLE
  5
A75
330
A02
100
AcDbEntity
  8
Sketch
100
AcDbCircle
 10
47.483170949
 20
122.893267000
 30
0.000000000
 40
0.400000000
  0
CIRCLE
  5
A76
330
A02
100
AcDbEntity
  8
Sketch
100
AcDbCircle
 10
113.295105000
 20
67.489153362
 30
0.000000000
 40
0.400000000
  0
CIRCLE
  5
A77
330
A02
100
AcDbEntity
  8
Sketch
100
AcDbCircle
 10
111.662425000
 20
69.434906691
 30
0.000000000
 40
0.400000000
  0
CIRCLE
  5
A78
330
A02
100
AcDbEntity
  8
Sketch
100
AcDbCircle
 10
110.029744000
 20
71.380659181
 30
0.000000000
 40
0.400000000
  0
CIRCLE
  5
A79
330
A02
100
AcDbEntity
  8
Sketch
100
AcDbCircle
 10
108.397063000
 20
73.326411671
 30
0.000000000
 40
0.400000000
  0
CIRCLE
  5
A7A
330
A02
100
AcDbEntity
  8
Sketch
100
AcDbCircle
 10
106.764383000
 20
75.272165000
 30
0.000000000
 40
0.400000000
  0
CIRCLE
  5
A7B
330
A02
100
AcDbEntity
  8
Sketch
100
AcDbCircle
 10
93.182281000
 20
91.458684020
 30
0.000000000
 40
0.400000000
  0
CIRCLE
  5
A7C
330
A02
100
AcDbEntity
  8
Sketch
100
AcDbCircle
 10
91.549600000
 20
93.404436510
 30
0.000000000
 40
0.400000000
  0
CIRCLE
  5
A7D
330
A02
100
AcDbEntity
  8
Sketch
100
AcDbCircle
 10
88.284239000
 20
97.295942329
 30
0.000000000
 40
0.400000000
  0
CIRCLE
  5
A7E
330
A02
100
AcDbEntity
  8
Sketch
100
AcDbCircle
 10
89.916919000
 20
95.350189000
 30
0.000000000
 40
0.400000000
  0
CIRCLE
  5
A7F
330
A02
100
AcDbEntity
  8
Sketch
100
AcDbCircle
 10
86.651558000
 20
99.241694819
 30
0.000000000
 40
0.400000000
  0
CIRCLE
  5
A80
330
A02
100
AcDbEntity
  8
Sketch
100
AcDbCircle
 10
129.545224000
 20
24.669850683
 30
0.000000000
 40
0.400000000
  0
CIRCLE
  5
A81
330
A02
100
AcDbEntity
  8
Sketch
100
AcDbCircle
 10
128.676493000
 20
27.056670000
 30
0.000000000
 40
0.400000000
  0
CIRCLE
  5
A82
330
A02
100
AcDbEntity
  8
Sketch
100
AcDbCircle
 10
127.807762000
 20
29.443489317
 30
0.000000000
 40
0.400000000
  0
CIRCLE
  5
A83
330
A02
100
AcDbEntity
  8
Sketch
100
AcDbCircle
 10
126.939030000
 20
31.830308269
 30
0.000000000
 40
0.400000000
  0
CIRCLE
  5
A84
330
A02
100
AcDbEntity
  8
Sketch
100
AcDbCircle
 10
126.070299000
 20
34.217127586
 30
0.000000000
 40
0.400000000
  0
CIRCLE
  5
A85
330
A02
100
AcDbEntity
  8
Sketch
100
AcDbCircle
 10
118.843413000
 20
54.072833050
 30
0.000000000
 40
0.400000000
  0
CIRCLE
  5
A86
330
A02
100
AcDbEntity
  8
Sketch
100
AcDbCircle
 10
117.974682000
 20
56.459652367
 30
0.000000000
 40
0.400000000
  0
CIRCLE
  5
A87
330
A02
100
AcDbEntity
  8
Sketch
100
AcDbCircle
 10
116.237220000
 20
61.233291000
 30
0.000000000
 40
0.400000000
  0
CIRCLE
  5
A88
330
A02
100
AcDbEntity
  8
Sketch
100
AcDbCircle
 10
117.105951000
 20
58.846471683
 30
0.000000000
 40
0.400000000
  0
CIRCLE
  5
A89
330
A02
100
AcDbEntity
  8
Sketch
100
AcDbCircle
 10
115.368489000
 20
63.620110317
 30
0.000000000
 40
0.400000000
  0
CIRCLE
  5
A8A
330
A02
100
AcDbEntity
  8
Sketch
100
AcDbCircle
 10
130.170277000
 20
-21.124999000
 30
0.000000000
 40
0.400000000
  0
CIRCLE
  5
A8B
330
A02
100
AcDbEntity
  8
Sketch
100
AcDbCircle
 10
130.170277000
 20
-18.584999000
 30
0.000000000
 40
0.400000000
  0
CIRCLE
  5
A8C
330
A02
100
AcDbEntity
  8
Sketch
100
AcDbCircle
 10
130.170277000
 20
-16.044999000
 30
0.000000000
 40
0.400000000
  0
CIRCLE
  5
A8D
330
A02
100
AcDbEntity
  8
Sketch
100
AcDbCircle
 10
130.170277000
 20
-13.504999000
 30
0.000000000
 40
0.400000000
  0
CIRCLE
  5
A8E
330
A02
100
AcDbEntity
  8
Sketch
100
AcDbCircle
 10
130.170277000
 20
-10.964999000
 30
0.000000000
 40
0.400000000
  0
CIRCLE
  5
A8F
330
A02
100
AcDbEntity
  8
Sketch
100
AcDbCircle
 10
130.170277000
 20
10.165001000
 30
0.000000000
 40
0.400000000
  0
CIRCLE
  5
A90
330
A02
100
AcDbEntity
  8
Sketch
100
AcDbCircle
 10
130.170277000
 20
12.705001000
 30
0.000000000
 40
0.400000000
  0
CIRCLE
  5
A91
330
A02
100
AcDbEntity
  8
Sketch
100
AcDbCircle
 10
130.170277000
 20
17.785001000
 30
0.000000000
 40
0.400000000
  0
CIRCLE
  5
A92
330
A02
100
AcDbEntity
  8
Sketch
100
AcDbCircle
 10
130.170277000
 20
15.245001000
 30
0.000000000
 40
0.400000000
  0
CIRCLE
  5
A93
330
A02
100
AcDbEntity
  8
Sketch
100
AcDbCircle
 10
130.170277000
 20
20.325001000
 30
0.000000000
 40
0.400000000
  0
CIRCLE
  5
A94
330
A02
100
AcDbEntity
  8
Sketch
100
AcDbCircle
 10
115.094874000
 20
-64.371862950
 30
0.000000000
 40
0.400000000
  0
CIRCLE
  5
A95
330
A02
100
AcDbEntity
  8
Sketch
100
AcDbCircle
 10
115.963605000
 20
-61.985043633
 30
0.000000000
 40
0.400000000
  0
CIRCLE
  5
A96
330
A02
100
AcDbEntity
  8
Sketch
100
AcDbCircle
 10
116.832336000
 20
-59.598224317
 30
0.000000000
 40
0.400000000
  0
CIRCLE
  5
A97
330
A02
100
AcDbEntity
  8
Sketch
100
AcDbCircle
 10
117.701067000
 20
-57.211405000
 30
0.000000000
 40
0.400000000
  0
CIRCLE
  5
A98
330
A02
100
AcDbEntity
  8
Sketch
100
AcDbCircle
 10
118.569798000
 20
-54.824585683
 30
0.000000000
 40
0.400000000
  0
CIRCLE
  5
A99
330
A02
100
AcDbEntity
  8
Sketch
100
AcDbCircle
 10
125.796684000
 20
-34.968879950
 30
0.000000000
 40
0.400000000
  0
CIRCLE
  5
A9A
330
A02
100
AcDbEntity
  8
Sketch
100
AcDbCircle
 10
126.665415000
 20
-32.582060633
 30
0.000000000
 40
0.400000000
  0
CIRCLE
  5
A9B
330
A02
100
AcDbEntity
  8
Sketch
100
AcDbCircle
 10
128.402877000
 20
-27.808422000
 30
0.000000000
 40
0.400000000
  0
CIRCLE
  5
A9C
330
A02
100
AcDbEntity
  8
Sketch
100
AcDbCircle
 10
127.534146000
 20
-30.195241317
 30
0.000000000
 40
0.400000000
  0
CIRCLE
  5
A9D
330
A02
100
AcDbEntity
  8
Sketch
100
AcDbCircle
 10
129.271608000
 20
-25.421602683
 30
0.000000000
 40
0.400000000
  0
CIRCLE
  5
A9E
330
A02
100
AcDbEntity
  8
Sketch
100
AcDbCircle
 10
86.137330000
 20
-99.854529148
 30
0.000000000
 40
0.400000000
  0
CIRCLE
  5
A9F
330
A02
100
AcDbEntity
  8
Sketch
100
AcDbCircle
 10
87.770010000
 20
-97.908775819
 30
0.000000000
 40
0.400000000
  0
CIRCLE
  5
AA0
330
A02
100
AcDbEntity
  8
Sketch
100
AcDbCircle
 10
89.402691000
 20
-95.963023329
 30
0.000000000
 40
0.400000000
  0
CIRCLE
  5
AA1
330
A02
100
AcDbEntity
  8
Sketch
100
AcDbCircle
 10
91.035371000
 20
-94.017270000
 30
0.000000000
 40
0.400000000
  0
CIRCLE
  5
AA2
330
A02
100
AcDbEntity
  8
Sketch
100
AcDbCircle
 10
92.668052000
 20
-92.071517510
 30
0.000000000
 40
0.400000000
  0
CIRCLE
  5
AA3
330
A02
100
AcDbEntity
  8
Sketch
100
AcDbCircle
 10
106.250154000
 20
-75.884998329
 30
0.000000000
 40
0.400000000
  0
CIRCLE
  5
AA4
330
A02
100
AcDbEntity
  8
Sketch
100
AcDbCircle
 10
107.882834000
 20
-73.939245000
 30
0.000000000
 40
0.400000000
  0
CIRCLE
  5
AA5
330
A02
100
AcDbEntity
  8
Sketch
100
AcDbCircle
 10
111.148196000
 20
-70.047740020
 30
0.000000000
 40
0.400000000
  0
CIRCLE
  5
AA6
330
A02
100
AcDbEntity
  8
Sketch
100
AcDbCircle
 10
109.515515000
 20
-71.993492510
 30
0.000000000
 40
0.400000000
  0
CIRCLE
  5
AA7
330
A02
100
AcDbEntity
  8
Sketch
100
AcDbCircle
 10
112.780876000
 20
-68.101986691
 30
0.000000000
 40
0.400000000
  0
CIRCLE
  5
AA8
330
A02
100
AcDbEntity
  8
Sketch
100
AcDbCircle
 10
46.790353423
 20
-123.293266000
 30
0.000000000
 40
0.400000000
  0
CIRCLE
  5
AA9
330
A02
100
AcDbEntity
  8
Sketch
100
AcDbCircle
 10
48.990057949
 20
-122.023266000
 30
0.000000000
 40
0.400000000
  0
CIRCLE
  5
AAA
330
A02
100
AcDbEntity
  8
Sketch
100
AcDbCircle
 10
51.189762474
 20
-120.753266000
 30
0.000000000
 40
0.400000000
  0
CIRCLE
  5
AAB
330
A02
100
AcDbEntity
  8
Sketch
100
AcDbCircle
 10
53.389467000
 20
-119.483266000
 30
0.000000000
 40
0.400000000
  0
CIRCLE
  5
AAC
330
A02
100
AcDbEntity
  8
Sketch
100
AcDbCircle
 10
55.589171526
 20
-118.213266000
 30
0.000000000
 40
0.400000000
  0
CIRCLE
  5
AAD
330
A02
100
AcDbEntity
  8
Sketch
100
AcDbCircle
 10
73.888287474
 20
-107.648266000
 30
0.000000000
 40
0.400000000
  0
CIRCLE
  5
AAE
330
A02
100
AcDbEntity
  8
Sketch
100
AcDbCircle
 10
76.087992000
 20
-106.378266000
 30
0.000000000
 40
0.400000000
  0
CIRCLE
  5
AAF
330
A02
100
AcDbEntity
  8
Sketch
100
AcDbCircle
 10
80.487401051
 20
-103.838266000
 30
0.000000000
 40
0.400000000
  0
CIRCLE
  5
AB0
330
A02
100
AcDbEntity
  8
Sketch
100
AcDbCircle
 10
78.287696526
 20
-105.108266000
 30
0.000000000
 40
0.400000000
  0
CIRCLE
  5
AB1
330
A02
100
AcDbEntity
  8
Sketch
100
AcDbCircle
 10
82.687105577
 20
-102.568266000
 30
0.000000000
 40
0.400000000
  0
CIRCLE
  5
AB2
330
A02
100
AcDbEntity
  8
Sketch
100
AcDbCircle
 10
1.799769078
 20
-131.861016000
 30
0.000000000
 40
0.400000000
  0
CIRCLE
  5
AB3
330
A02
100
AcDbEntity
  8
Sketch
100
AcDbCircle
 10
4.301180660
 20
-131.419949000
 30
0.000000000
 40
0.400000000
  0
CIRCLE
  5
AB4
330
A02
100
AcDbEntity
  8
Sketch
100
AcDbCircle
 10
6.802592418
 20
-130.978883000
 30
0.000000000
 40
0.400000000
  0
CIRCLE
  5
AB5
330
A02
100
AcDbEntity
  8
Sketch
100
AcDbCircle
 10
9.304004000
 20
-130.537816000
 30
0.000000000
 40
0.400000000
  0
CIRCLE
  5
AB6
330
A02
100
AcDbEntity
  8
Sketch
100
AcDbCircle
 10
11.805415758
 20
-130.096750000
 30
0.000000000
 40
0.400000000
  0
CIRCLE
  5
AB7
330
A02
100
AcDbEntity
  8
Sketch
100
AcDbCircle
 10
32.614403902
 20
-126.427564000
 30
0.000000000
 40
0.400000000
  0
CIRCLE
  5
AB8
330
A02
100
AcDbEntity
  8
Sketch
100
AcDbCircle
 10
35.115815484
 20
-125.986497000
 30
0.000000000
 40
0.400000000
  0
CIRCLE
  5
AB9
330
A02
100
AcDbEntity
  8
Sketch
100
AcDbCircle
 10
40.118639000
 20
-125.104365000
 30
0.000000000
 40
0.400000000
  0
CIRCLE
  5
ABA
330
A02
100
AcDbEntity
  8
Sketch
100
AcDbCircle
 10
37.617227242
 20
-125.545431000
 30
0.000000000
 40
0.400000000
  0
CIRCLE
  5
ABB
330
A02
100
AcDbEntity
  8
Sketch
100
AcDbCircle
 10
42.620050582
 20
-124.663298000
 30
0.000000000
 40
0.400000000
  0
ENDSEC
  0
SECTION
  2
OBJECTS
  0
DICTIONARY
  5
F000
330
0
100
AcDbDictionary
  3
ACAD_GROUP
350
F001
  0
DICTIONARY
  5
F001
330
F000
100
AcDbDictionary
  0
ENDSEC
  0
EOF